<svg width="80" height="80" viewBox="0 0 80 80" fill="none" xmlns="http://www.w3.org/2000/svg">
<g clip-path="url(#clip0_1040_386)">
<path d="M7.8452 14.6666C8.01877 14.6659 8.19234 14.6652 8.37118 14.6645C8.56346 14.6645 8.75574 14.6646 8.95385 14.6646C9.25841 14.6637 9.25841 14.6637 9.56911 14.6629C10.1346 14.6613 10.7001 14.6607 11.2655 14.6603C11.8747 14.6597 12.4839 14.6582 13.093 14.6568C14.5651 14.6537 16.0373 14.6522 17.5094 14.6508C18.2023 14.6501 18.8952 14.6492 19.5881 14.6484C21.891 14.6458 24.1939 14.6435 26.4968 14.6424C27.0947 14.6421 27.6925 14.6418 28.2904 14.6415C28.439 14.6414 28.5876 14.6413 28.7407 14.6412C31.1482 14.6399 33.5557 14.636 35.9633 14.6309C38.4339 14.6257 40.9046 14.6229 43.3753 14.6224C44.7629 14.6221 46.1506 14.6207 47.5382 14.6167C48.7199 14.6133 49.9016 14.6121 51.0834 14.6136C51.6863 14.6143 52.2893 14.614 52.8923 14.611C53.546 14.6077 54.1997 14.6093 54.8534 14.6114C55.044 14.6097 55.2345 14.608 55.4308 14.6062C56.4672 14.6141 57.1337 14.6782 57.9689 15.3126C58.5759 16.0793 58.7715 16.659 58.7654 17.6197C58.7649 17.7587 58.7644 17.8977 58.7639 18.0409C58.7625 18.1847 58.7612 18.3285 58.7599 18.4767C58.7592 18.6229 58.7585 18.7691 58.7578 18.9198C58.7559 19.2799 58.7533 19.64 58.7501 20.0001C58.8778 19.9987 59.0055 19.9973 59.137 19.9959C60.346 19.9833 61.555 19.9738 62.764 19.9677C63.3855 19.9645 64.0069 19.9601 64.6283 19.9529C65.229 19.9461 65.8298 19.9424 66.4306 19.9408C66.6587 19.9396 66.8868 19.9374 67.1149 19.934C69.1514 19.9049 70.6915 20.2731 72.1876 21.7188C73.3502 23.0873 73.4881 24.7775 73.5151 26.5028C73.4249 27.1182 73.2532 27.3811 72.8126 27.8126C72.7095 27.8126 72.6064 27.8126 72.5001 27.8126C72.7399 28.9583 72.9933 30.1004 73.2564 31.241C73.3442 31.6291 73.4289 32.0179 73.5103 32.4073C73.8275 34.4342 73.8275 34.4342 74.7687 36.1843C75.3285 36.5477 75.9153 36.6251 76.5626 36.7188C78.2385 37.5717 79.1924 38.8914 79.8439 40.6251C79.9708 41.0626 80.0206 41.4533 80.0242 41.9083C80.0255 42.0384 80.0269 42.1685 80.0282 42.3026C80.0292 42.5147 80.0292 42.5147 80.0303 42.7311C80.0315 42.8811 80.0328 43.031 80.0341 43.1855C80.038 43.6813 80.0406 44.1771 80.0428 44.6729C80.0441 44.9269 80.0441 44.9269 80.0454 45.186C80.0495 46.0813 80.0526 46.9766 80.0548 47.8719C80.0569 48.6136 80.0613 49.3553 80.0676 50.0971C80.0753 50.9924 80.0792 51.8876 80.0803 52.7829C80.0814 53.1243 80.0838 53.4657 80.0875 53.8071C80.0924 54.2841 80.0925 54.7608 80.0913 55.2378C80.0951 55.4499 80.0951 55.4499 80.0991 55.6664C80.0895 56.6207 80.0895 56.6207 79.6353 57.1195C79.108 57.4036 78.7489 57.4154 78.1514 57.4049C77.8485 57.4019 77.8485 57.4019 77.5395 57.3988C77.3278 57.3936 77.1161 57.3883 76.9044 57.3829C76.6897 57.3798 76.4749 57.3769 76.2602 57.3744C75.7359 57.367 75.2118 57.3567 74.6876 57.3438C74.6905 57.4338 74.6933 57.5238 74.6962 57.6164C74.7354 59.78 73.8399 61.6094 72.3732 63.1739C70.638 64.8025 68.6455 65.4107 66.3076 65.3864C64.0681 65.3084 62.1785 64.363 60.6416 62.7418C59.2645 61.0759 58.7501 59.4811 58.7501 57.3438C49.4689 57.3438 40.1876 57.3438 30.6251 57.3438C30.6251 57.7563 30.6251 58.1688 30.6251 58.5938C30.2511 60.6498 29.2933 62.4311 27.6564 63.7501C25.5486 65.199 23.6114 65.5414 21.0939 65.3126C18.9572 64.9033 17.1699 63.6392 15.9272 61.8891C15.2015 60.7295 14.6597 59.4643 14.6779 58.086C14.6793 57.9466 14.6807 57.8073 14.6821 57.6637C14.6839 57.5581 14.6858 57.4526 14.6876 57.3438C14.5957 57.3449 14.5039 57.3459 14.4092 57.347C13.4511 57.3574 12.493 57.3644 11.5348 57.3696C11.1774 57.3719 10.82 57.3751 10.4627 57.3792C9.94838 57.3849 9.43413 57.3876 8.9198 57.3896C8.68098 57.3932 8.68098 57.3932 8.43733 57.3969C7.47002 57.3972 6.73374 57.3265 5.99316 56.6352C5.47798 55.9615 5.29274 55.6498 5.29736 54.8084C5.29787 54.6473 5.29837 54.4862 5.29889 54.3202C5.30085 54.067 5.30085 54.067 5.30286 53.8087C5.30356 53.6387 5.30427 53.4687 5.30499 53.2935C5.30684 52.8728 5.30941 52.4521 5.31262 52.0313C5.17945 52.0346 5.04627 52.0379 4.90907 52.0413C4.41258 52.0519 3.91615 52.0598 3.41958 52.0657C3.20512 52.0688 2.99068 52.0731 2.77627 52.0785C2.4672 52.0861 2.15803 52.0893 1.84888 52.0924C1.66313 52.0956 1.47739 52.0989 1.28602 52.1023C0.681816 52.0173 0.42742 51.8336 0.00012207 51.4063C-0.103638 51.0597 -0.103638 51.0597 -0.0975342 50.7032C-0.0995483 50.5856 -0.101562 50.468 -0.103638 50.3468C0.0539554 49.8202 0.322338 49.6682 0.781372 49.3751C1.22431 49.3146 1.60601 49.2894 2.04816 49.2942C2.17351 49.2931 2.29886 49.292 2.42801 49.2909C2.8411 49.2882 3.25402 49.29 3.66711 49.2921C3.95489 49.2917 4.24266 49.2911 4.53044 49.2903C5.13306 49.2893 5.73563 49.2907 6.33824 49.2936C7.1101 49.2972 7.88183 49.2951 8.65369 49.2914C9.24778 49.2891 9.84184 49.2898 10.4359 49.2915C10.7205 49.2919 11.0051 49.2914 11.2896 49.2899C11.6876 49.2883 12.0854 49.2907 12.4833 49.2942C12.6006 49.293 12.7178 49.2917 12.8386 49.2904C13.4092 49.2996 13.7279 49.3609 14.2134 49.671C14.575 50.0452 14.6378 50.1907 14.629 50.7032C14.632 50.8797 14.632 50.8797 14.6351 51.0597C14.4767 51.5892 14.2142 51.7391 13.7501 52.0313C13.2824 52.0849 12.8749 52.1046 12.4092 52.0924C12.2184 52.091 12.2184 52.091 12.0237 52.0897C11.6192 52.0862 11.215 52.0784 10.8107 52.0704C10.5357 52.0673 10.2607 52.0644 9.98578 52.0619C9.31332 52.0555 8.64134 52.0433 7.96887 52.0313C7.96887 52.9079 7.96887 53.7845 7.96887 54.6876C10.3407 54.6876 12.7126 54.6876 15.1564 54.6876C15.2079 54.4298 15.2595 54.172 15.3126 53.9063C16.3326 51.9285 17.852 50.449 19.9708 49.7169C22.1877 49.0306 24.3485 49.2586 26.4308 50.2302C28.1886 51.169 29.3527 52.5598 30.1564 54.3751C30.1564 54.4782 30.1564 54.5813 30.1564 54.6876C38.7157 54.6876 47.2751 54.6876 56.0939 54.6876C56.0939 51.3876 56.0939 48.0876 56.0939 44.6876C56.7189 44.0626 56.7189 44.0626 57.0314 43.9796C57.6058 43.9886 57.8809 43.9949 58.3497 44.3556C58.7596 44.9129 58.7693 45.2362 58.7679 45.9248C58.7678 46.1188 58.7678 46.3127 58.7678 46.5125C58.767 46.7249 58.7662 46.9373 58.7654 47.1497C58.7651 47.3665 58.7649 47.5832 58.7647 47.8C58.7641 48.3708 58.7626 48.9415 58.7608 49.5123C58.7593 50.0946 58.7585 50.6769 58.7578 51.2592C58.7561 52.402 58.7534 53.5448 58.7501 54.6876C58.9048 54.6876 59.0595 54.6876 59.2189 54.6876C59.2447 54.5426 59.2704 54.3975 59.297 54.2481C59.7588 52.6528 61.1851 51.2484 62.5636 50.3913C64.5899 49.3108 66.8379 49.0015 69.0529 49.6388C71.2551 50.4199 73.0079 51.7775 74.0626 53.9063C74.1142 54.1642 74.1657 54.422 74.2189 54.6876C75.2501 54.6876 76.2814 54.6876 77.3439 54.6876C77.3439 52.9345 77.3439 51.1813 77.3439 49.3751C76.7251 49.3751 76.1064 49.3751 75.4689 49.3751C74.2954 49.1536 73.345 48.6424 72.6564 47.6563C71.9628 46.552 71.9732 45.3469 71.963 44.0821C71.9614 43.9241 71.9598 43.7661 71.9582 43.6033C71.9752 42.1761 71.9752 42.1761 72.5001 41.5626C72.9277 41.3488 73.288 41.3725 73.766 41.3569C74.05 41.3471 74.05 41.3471 74.3397 41.3371C74.5383 41.3309 74.7369 41.3248 74.9415 41.3184C75.2412 41.3083 75.2412 41.3083 75.547 41.298C76.0418 41.2814 76.5366 41.2654 77.0314 41.2501C76.4207 40.1344 75.8557 39.3487 74.5907 38.9618C73.7827 38.7337 73.0316 38.6811 72.1958 38.6825C72.0493 38.6809 71.9027 38.6793 71.7517 38.6777C71.2733 38.673 70.7948 38.6716 70.3163 38.6701C69.9822 38.6675 69.6481 38.6647 69.3141 38.6616C68.4392 38.6542 67.5643 38.6496 66.6894 38.6455C65.7949 38.6408 64.9004 38.6335 64.0059 38.6265C62.254 38.6131 60.5021 38.6025 58.7501 38.5938C58.7526 38.7122 58.7551 38.8307 58.7577 38.9527C58.7596 39.1078 58.7616 39.2629 58.7635 39.4227C58.766 39.5766 58.7685 39.7304 58.7711 39.8889C58.7455 40.406 58.6203 40.7028 58.2814 41.0938C57.7924 41.3383 57.2484 41.359 56.7189 41.2501C56.5126 41.0438 56.3064 40.8376 56.0939 40.6251C56.0939 32.9423 56.0939 25.2595 56.0939 17.3438C40.2126 17.3438 24.3314 17.3438 7.96887 17.3438C7.96887 24.9235 7.96887 32.5032 7.96887 40.3126C7.50012 41.0938 7.50012 41.0938 7.18762 41.2501C6.05507 41.3414 6.05507 41.3414 5.60986 40.9952C5.22434 40.5152 5.23407 40.2482 5.23326 39.6368C5.23149 39.4335 5.22973 39.2302 5.22792 39.0208C5.22913 38.7958 5.23041 38.5708 5.23175 38.3458C5.2309 38.1086 5.22979 37.8715 5.22843 37.6343C5.22558 36.9902 5.22669 36.3462 5.22867 35.7021C5.23025 35.028 5.22878 34.3538 5.2278 33.6796C5.22667 32.5471 5.22816 31.4146 5.23114 30.2821C5.23454 28.9734 5.23344 27.6649 5.23 26.3562C5.22716 25.2324 5.22676 24.1086 5.2284 22.9848C5.22937 22.3137 5.2295 21.6426 5.22744 20.9716C5.22563 20.3403 5.22689 19.7091 5.2305 19.0779C5.23132 18.8464 5.23109 18.615 5.22971 18.3836C5.22799 18.0672 5.23053 17.7507 5.23326 17.4343C5.23349 17.2574 5.23373 17.0805 5.23397 16.8982C5.36002 16.1099 5.75919 15.626 6.34778 15.1075C6.89679 14.7174 7.17731 14.6679 7.8452 14.6666ZM58.7501 22.6563C58.7501 23.5329 58.7501 24.4095 58.7501 25.3126C62.7204 25.3126 66.6908 25.3126 70.7814 25.3126C70.5653 24.2339 70.5653 24.2339 70.0294 23.4571C69.9167 23.3272 69.9167 23.3272 69.8018 23.1947C69.1745 22.6708 68.5381 22.6177 67.7435 22.6209C67.5433 22.6209 67.3432 22.6209 67.137 22.6209C66.9201 22.6225 66.7032 22.6242 66.4863 22.6258C66.2632 22.6264 66.0402 22.6269 65.8171 22.6272C65.2317 22.6284 64.6463 22.6314 64.0609 22.6349C63.4628 22.6381 62.8647 22.6395 62.2667 22.6411C61.0945 22.6444 59.9223 22.6499 58.7501 22.6563ZM58.7501 27.9688C58.7501 30.5985 58.7501 33.2282 58.7501 35.9376C63.0298 35.9376 67.3095 35.9376 71.7189 35.9376C71.4127 34.6808 71.1066 33.4239 70.7911 32.129C70.6947 31.7321 70.5982 31.3353 70.4988 30.9264C70.4223 30.6131 70.3458 30.2999 70.2693 29.9867C70.2296 29.8229 70.1899 29.6592 70.149 29.4906C70.092 29.2575 70.092 29.2575 70.0337 29.0196C70.0008 28.8843 69.9678 28.749 69.9338 28.6096C69.8539 28.2759 69.8538 28.2759 69.6876 27.9688C66.0782 27.9688 62.4689 27.9688 58.7501 27.9688ZM74.6876 44.0626C74.5925 45.3269 74.5925 45.3269 75.1564 46.4063C75.6503 46.7161 76.0241 46.7536 76.6017 46.7384C76.8466 46.7319 77.0915 46.7255 77.3439 46.7188C77.3439 45.8423 77.3439 44.9657 77.3439 44.0626C76.4673 44.0626 75.5907 44.0626 74.6876 44.0626ZM18.5939 53.7501C17.4616 55.2833 17.184 56.7036 17.3439 58.5938C17.4784 59.1214 17.6792 59.5411 17.9689 60.0001C18.0656 60.1605 18.0656 60.1605 18.1642 60.3242C18.9326 61.4703 20.0704 62.3041 21.4064 62.6563C23.2885 62.8362 24.7949 62.5617 26.2788 61.3685C27.4068 60.2769 27.9751 58.9166 28.0372 57.3634C27.9838 55.7447 27.4277 54.6202 26.3075 53.4632C25.0914 52.3514 23.8544 51.9481 22.2065 51.9831C20.8016 52.122 19.5772 52.7419 18.5939 53.7501ZM62.5001 54.0626C61.4586 55.4097 61.2581 56.7583 61.4064 58.4376C61.7615 59.9105 62.6484 61.1345 63.8887 61.9917C65.2214 62.7825 66.704 62.8425 68.2161 62.5886C69.5978 62.199 70.6411 61.2471 71.3722 60.0367C71.435 59.9215 71.4979 59.8063 71.5626 59.6876C71.6158 59.5917 71.669 59.4958 71.7238 59.3971C72.2445 58.2688 72.1991 56.9252 71.905 55.7417C71.2979 54.0968 70.209 53.0544 68.6348 52.3243C66.2936 51.4186 64.1192 52.2886 62.5001 54.0626Z" fill="#F4AA08"/>
<path d="M43.2812 26.7187C43.7541 27.034 43.8766 27.2586 44.0625 27.793C44.0625 28.7649 43.2588 29.4338 42.6096 30.0872C42.5013 30.1947 42.393 30.3021 42.2814 30.4128C42.1083 30.5863 42.1083 30.5863 41.9317 30.7634C41.5518 31.1439 41.1708 31.5232 40.7898 31.9024C40.5251 32.1669 40.2605 32.4314 39.996 32.696C39.4425 33.2493 38.8884 33.8021 38.334 34.3544C37.6221 35.0637 36.9112 35.7739 36.2007 36.4846C35.6549 37.0303 35.1088 37.5756 34.5625 38.1208C34.3001 38.3826 34.0378 38.6446 33.7756 38.9067C33.4102 39.2718 33.0443 39.6364 32.6781 40.0008C32.5692 40.1098 32.4603 40.2188 32.348 40.3311C32.1989 40.4793 32.1989 40.4793 32.0467 40.6304C31.9602 40.7166 31.8738 40.8028 31.7847 40.8917C31.3514 41.2857 30.9214 41.3316 30.3428 41.3231C29.9175 41.2324 29.7364 41.0768 29.4183 40.7829C29.3098 40.6832 29.2013 40.5835 29.0895 40.4808C28.5109 39.9276 27.9396 39.3681 27.3743 38.8013C27.2485 38.6756 27.1226 38.5499 26.993 38.4205C26.7294 38.157 26.4661 37.8933 26.2029 37.6295C25.7992 37.225 25.3948 36.8214 24.9902 36.4178C24.7334 36.1609 24.4767 35.904 24.22 35.647C24.099 35.5263 23.9781 35.4057 23.8535 35.2815C23.7418 35.1693 23.6302 35.0571 23.5151 34.9415C23.3677 34.794 23.3677 34.794 23.2174 34.6435C22.8253 34.2201 22.6629 33.9572 22.5879 33.3789C22.6562 32.8125 22.6562 32.8125 22.9785 32.3535C23.4375 32.0312 23.4375 32.0312 23.9551 31.914C24.5515 32.0354 24.6892 32.1227 25.1205 32.5147C25.2846 32.6635 25.2846 32.6635 25.452 32.8154C25.9536 33.287 26.4439 33.7683 26.9287 34.2572C27.031 34.3597 27.1333 34.4622 27.2386 34.5678C27.5605 34.8905 27.8818 35.2138 28.2031 35.5371C28.4232 35.758 28.6434 35.9788 28.8635 36.1996C29.399 36.7368 29.934 37.2745 30.4688 37.8125C30.9094 37.6118 31.2294 37.4031 31.5702 37.0601C31.66 36.9705 31.7498 36.8809 31.8423 36.7886C31.9389 36.6906 32.0355 36.5926 32.1351 36.4916C32.2899 36.3365 32.2899 36.3365 32.4479 36.1782C32.7886 35.8364 33.1283 35.4936 33.468 35.1507C33.7045 34.9133 33.9411 34.6759 34.1777 34.4386C34.8004 33.8138 35.4222 33.1882 36.0438 32.5623C37.0397 31.5597 38.0366 30.5581 39.034 29.5571C39.3829 29.2066 39.7312 28.8556 40.0794 28.5046C40.2922 28.2908 40.505 28.0769 40.7178 27.8631C40.8151 27.7648 40.9123 27.6665 41.0125 27.5652C41.7532 26.8226 42.2151 26.5688 43.2812 26.7187Z" fill="#F4AA08"/>
<path d="M34.6959 49.2764C34.8868 49.2753 35.0777 49.2742 35.2743 49.273C35.7968 49.2708 36.3189 49.2722 36.8413 49.2752C37.3886 49.2778 37.9358 49.2764 38.4831 49.2756C39.402 49.2749 40.3209 49.2774 41.2398 49.2818C42.3014 49.2868 43.363 49.2868 44.4246 49.2841C45.4469 49.2816 46.4691 49.2826 47.4913 49.2853C47.9259 49.2864 48.3605 49.2862 48.7951 49.2851C49.4022 49.2837 50.0092 49.2874 50.6163 49.2917C50.7964 49.2907 50.9764 49.2896 51.1619 49.2886C52.3781 49.3032 52.3781 49.3032 53.0017 49.6711C53.3205 50.0465 53.3871 50.2152 53.3788 50.7032C53.3808 50.8208 53.3828 50.9384 53.3849 51.0596C53.2203 51.6094 52.9965 51.7383 52.4999 52.0313C51.8728 52.1269 51.2497 52.1182 50.6163 52.1146C50.4254 52.116 50.2346 52.1173 50.0379 52.1187C49.5155 52.1217 48.9933 52.1218 48.4709 52.1204C48.0344 52.1196 47.598 52.1207 47.1615 52.1219C46.1318 52.1245 45.1021 52.124 44.0724 52.1213C43.0108 52.1187 41.9492 52.1212 40.8876 52.1262C39.9753 52.1304 39.063 52.1315 38.1507 52.1302C37.6061 52.1294 37.0617 52.1298 36.5171 52.133C35.91 52.1364 35.303 52.1334 34.6959 52.1299C34.4258 52.1326 34.4258 52.1326 34.1503 52.1354C32.9365 52.1209 32.9365 52.1209 32.3101 51.6687C31.939 51.1119 31.9139 50.8128 32.0311 50.1563C32.7105 49.1369 33.583 49.2651 34.6959 49.2764Z" fill="#F4AA08"/>
<path d="M4.9343 43.9816C5.10255 43.9805 5.2708 43.9794 5.44415 43.9783C6.00086 43.9755 6.55745 43.9774 7.11417 43.9795C7.50063 43.9791 7.88709 43.9784 8.27355 43.9777C9.08372 43.9767 9.89386 43.9781 10.704 43.981C11.7434 43.9846 12.7826 43.9825 13.8219 43.9788C14.62 43.9765 15.4181 43.9772 16.2162 43.9788C16.5994 43.9793 16.9827 43.9788 17.3659 43.9773C17.9013 43.9757 18.4364 43.9781 18.9718 43.9816C19.1307 43.9803 19.2897 43.9791 19.4534 43.9778C20.5261 43.9907 20.5261 43.9907 21.0355 44.3605C21.3343 44.8162 21.3379 45.1093 21.3122 45.6402C21.2173 46.0934 20.9898 46.2942 20.6249 46.5625C20.2615 46.7442 20.0501 46.7391 19.6454 46.7407C19.4354 46.742 19.4354 46.742 19.2212 46.7434C18.9902 46.7436 18.9902 46.7436 18.7546 46.7439C18.5927 46.7447 18.4309 46.7455 18.2641 46.7463C17.7268 46.7485 17.1895 46.7496 16.6521 46.7505C16.2796 46.7514 15.9071 46.7523 15.5346 46.7532C14.7526 46.7548 13.9707 46.7557 13.1887 46.7563C12.1862 46.7571 11.1837 46.7609 10.1812 46.7653C9.41139 46.7682 8.64159 46.7691 7.87178 46.7693C7.50217 46.7698 7.13256 46.771 6.76295 46.7731C6.24598 46.7757 5.72909 46.7754 5.21212 46.7744C5.05909 46.7759 4.90605 46.7773 4.74838 46.7788C3.98023 46.7741 3.42861 46.7657 2.81241 46.25C2.56792 45.761 2.54725 45.217 2.65616 44.6875C3.2117 43.8342 4.01693 43.9743 4.9343 43.9816Z" fill="#F4AA08"/>
<path d="M67.998 54.9219C68.693 55.314 69.097 55.8159 69.3749 56.5626C69.5122 57.339 69.4798 58.0251 69.1112 58.7305C68.6462 59.359 68.2453 59.7516 67.4999 60.0001C66.6222 60.0937 65.8333 60.0977 65.0841 59.5917C64.5228 59.086 64.1415 58.5224 63.9928 57.7753C63.9476 56.9024 64.1668 56.1725 64.6874 55.4688C65.7017 54.6615 66.788 54.4017 67.998 54.9219Z" fill="#F4AA08"/>
<path d="M23.7697 54.8534C24.4757 55.3292 25.0409 55.9032 25.3127 56.7187C25.3968 57.7112 25.2567 58.3909 24.6877 59.2187C23.9198 59.9491 23.2903 60.0478 22.2658 60.0329C21.4822 59.9668 21.0019 59.6377 20.4982 59.0624C19.9179 58.2665 19.897 57.5183 20.0002 56.5624C20.2758 55.7278 20.804 55.2634 21.5627 54.8437C22.3337 54.5867 23.0102 54.5952 23.7697 54.8534Z" fill="#F4AA08"/>
</g>
<defs>
<clipPath id="clip0_1040_386">
<rect width="80" height="80" fill="white"/>
</clipPath>
</defs>
</svg>
