<svg width="80" height="80" viewBox="0 0 80 80" fill="none" xmlns="http://www.w3.org/2000/svg">
<g clip-path="url(#clip0_1040_1293)">
<path d="M7.84523 14.6666C8.0188 14.6659 8.19238 14.6652 8.37121 14.6645C8.56349 14.6646 8.75577 14.6646 8.95388 14.6646C9.25844 14.6637 9.25844 14.6637 9.56914 14.6629C10.1346 14.6613 10.7001 14.6607 11.2656 14.6603C11.8747 14.6597 12.4839 14.6582 13.093 14.6568C14.5652 14.6537 16.0373 14.6522 17.5094 14.6508C18.2023 14.6501 18.8952 14.6493 19.5882 14.6484C21.8911 14.6458 24.194 14.6435 26.4969 14.6424C27.0947 14.6421 27.6926 14.6418 28.2904 14.6415C28.439 14.6414 28.5876 14.6413 28.7407 14.6413C31.1483 14.64 33.5558 14.636 35.9633 14.6309C38.434 14.6258 40.9047 14.6229 43.3753 14.6224C44.763 14.6221 46.1506 14.6207 47.5382 14.6167C48.7199 14.6134 49.9016 14.6121 51.0834 14.6136C51.6864 14.6143 52.2893 14.614 52.8923 14.611C53.5461 14.6077 54.1997 14.6093 54.8535 14.6114C55.044 14.6097 55.2345 14.608 55.4309 14.6062C56.4672 14.6141 57.1338 14.6783 57.9689 15.3126C58.5759 16.0793 58.7716 16.659 58.7654 17.6197C58.7649 17.7587 58.7644 17.8977 58.7639 18.0409C58.7626 18.1847 58.7613 18.3285 58.7599 18.4767C58.7592 18.6229 58.7585 18.7691 58.7578 18.9198C58.7559 19.2799 58.7534 19.64 58.7502 20.0001C58.8778 19.9987 59.0055 19.9973 59.1371 19.9959C60.3461 19.9833 61.555 19.9738 62.7641 19.9677C63.3855 19.9645 64.0069 19.9601 64.6283 19.953C65.2291 19.9461 65.8298 19.9424 66.4306 19.9408C66.6587 19.9397 66.8868 19.9374 67.1149 19.934C69.1514 19.9049 70.6915 20.2731 72.1877 21.7189C73.3502 23.0873 73.4882 24.7775 73.5152 26.5028C73.4249 27.1182 73.2532 27.3811 72.8127 27.8126C72.7095 27.8126 72.6064 27.8126 72.5002 27.8126C72.7399 28.9584 72.9934 30.1004 73.2564 31.2411C73.3442 31.6291 73.4289 32.0179 73.5103 32.4073C73.8275 34.4342 73.8275 34.4342 74.7687 36.1843C75.3285 36.5477 75.9153 36.6251 76.5627 36.7189C78.2385 37.5717 79.1924 38.8914 79.8439 40.6251C79.9708 41.0626 80.0207 41.4533 80.0242 41.9083C80.0255 42.0384 80.0269 42.1685 80.0283 42.3026C80.0293 42.5147 80.0293 42.5147 80.0303 42.7311C80.0316 42.8811 80.0328 43.031 80.0342 43.1856C80.038 43.6814 80.0406 44.1771 80.0429 44.673C80.0441 44.9269 80.0441 44.9269 80.0454 45.186C80.0496 46.0813 80.0526 46.9766 80.0549 47.8719C80.0569 48.6136 80.0613 49.3553 80.0677 50.0971C80.0754 50.9924 80.0792 51.8876 80.0804 52.783C80.0814 53.1244 80.0838 53.4657 80.0875 53.8071C80.0925 54.2841 80.0925 54.7608 80.0913 55.2378C80.0952 55.45 80.0952 55.45 80.0991 55.6664C80.0896 56.6207 80.0896 56.6207 79.6354 57.1195C79.108 57.4036 78.7489 57.4154 78.1514 57.4049C77.8485 57.4019 77.8485 57.4019 77.5395 57.3988C77.3278 57.3936 77.1161 57.3883 76.9044 57.3829C76.6897 57.3798 76.475 57.3769 76.2602 57.3744C75.7359 57.367 75.2118 57.3567 74.6877 57.3439C74.6905 57.4338 74.6933 57.5238 74.6962 57.6165C74.7355 59.78 73.8399 61.6094 72.3732 63.1739C70.6381 64.8025 68.6455 65.4107 66.3077 65.3865C64.0681 65.3084 62.1785 64.363 60.6416 62.7418C59.2645 61.076 58.7502 59.4811 58.7502 57.3439C49.4689 57.3439 40.1877 57.3439 30.6252 57.3439C30.6252 57.7564 30.6252 58.1689 30.6252 58.5939C30.2511 60.6498 29.2933 62.4311 27.6564 63.7501C25.5486 65.199 23.6115 65.5414 21.0939 65.3126C18.9573 64.9033 17.17 63.6392 15.9273 61.8891C15.2016 60.7295 14.6598 59.4643 14.6779 58.086C14.6793 57.9467 14.6807 57.8073 14.6822 57.6637C14.684 57.5581 14.6858 57.4526 14.6877 57.3439C14.5958 57.3449 14.5039 57.3459 14.4092 57.347C13.4511 57.3574 12.493 57.3645 11.5348 57.3696C11.1774 57.372 10.8201 57.3752 10.4627 57.3792C9.94841 57.3849 9.43417 57.3876 8.91983 57.3896C8.68101 57.3933 8.68101 57.3933 8.43736 57.397C7.47005 57.3972 6.73377 57.3266 5.99319 56.6352C5.47801 55.9615 5.29277 55.6498 5.29739 54.8085C5.2979 54.6473 5.2984 54.4862 5.29892 54.3202C5.30088 54.067 5.30088 54.067 5.30289 53.8087C5.30359 53.6387 5.3043 53.4687 5.30502 53.2936C5.30687 52.8728 5.30944 52.4521 5.31265 52.0314C5.17948 52.0346 5.04631 52.0379 4.9091 52.0413C4.41261 52.052 3.91618 52.0598 3.41961 52.0657C3.20515 52.0688 2.99071 52.0731 2.7763 52.0785C2.46723 52.0861 2.15806 52.0893 1.84891 52.0924C1.66316 52.0957 1.47742 52.0989 1.28605 52.1023C0.681847 52.0174 0.427451 51.8336 0.000152588 51.4064C-0.103607 51.0597 -0.103607 51.0597 -0.0975037 50.7032C-0.0995178 50.5856 -0.101532 50.468 -0.103607 50.3468C0.0539859 49.8202 0.322369 49.6683 0.781403 49.3751C1.22434 49.3146 1.60604 49.2895 2.04819 49.2942C2.17354 49.2931 2.29889 49.292 2.42804 49.2909C2.84113 49.2882 3.25405 49.29 3.66714 49.2921C3.95492 49.2917 4.24269 49.2911 4.53047 49.2903C5.13309 49.2894 5.73566 49.2907 6.33827 49.2936C7.11014 49.2972 7.88186 49.2951 8.65372 49.2914C9.24781 49.2891 9.84187 49.2899 10.436 49.2915C10.7205 49.2919 11.0051 49.2914 11.2897 49.2899C11.6876 49.2883 12.0854 49.2908 12.4834 49.2942C12.6006 49.293 12.7178 49.2917 12.8386 49.2904C13.4093 49.2996 13.7279 49.3609 14.2135 49.671C14.575 50.0452 14.6378 50.1907 14.6291 50.7032C14.6321 50.8797 14.6321 50.8797 14.6352 51.0597C14.4767 51.5892 14.2142 51.7392 13.7502 52.0314C13.2824 52.0849 12.875 52.1047 12.4092 52.0924C12.2184 52.0911 12.2184 52.0911 12.0237 52.0897C11.6193 52.0862 11.2151 52.0784 10.8107 52.0704C10.5357 52.0673 10.2608 52.0644 9.98581 52.0619C9.31336 52.0555 8.64137 52.0433 7.9689 52.0314C7.9689 52.9079 7.9689 53.7845 7.9689 54.6876C10.3408 54.6876 12.7127 54.6876 15.1564 54.6876C15.208 54.4298 15.2595 54.172 15.3127 53.9064C16.3326 51.9285 17.852 50.449 19.9709 49.7169C22.1877 49.0306 24.3485 49.2586 26.4308 50.2302C28.1886 51.169 29.3528 52.5599 30.1564 54.3751C30.1564 54.4782 30.1564 54.5814 30.1564 54.6876C38.7158 54.6876 47.2752 54.6876 56.0939 54.6876C56.0939 51.3876 56.0939 48.0876 56.0939 44.6876C56.7189 44.0626 56.7189 44.0626 57.0314 43.9796C57.6058 43.9886 57.881 43.995 58.3498 44.3556C58.7596 44.9129 58.7693 45.2362 58.7679 45.9249C58.7679 46.1188 58.7679 46.3127 58.7679 46.5125C58.7671 46.7249 58.7662 46.9373 58.7654 47.1498C58.7651 47.3665 58.7649 47.5833 58.7647 47.8C58.7641 48.3708 58.7626 48.9416 58.7609 49.5123C58.7593 50.0946 58.7586 50.6769 58.7578 51.2593C58.7561 52.402 58.7534 53.5448 58.7502 54.6876C58.9048 54.6876 59.0595 54.6876 59.2189 54.6876C59.2447 54.5426 59.2705 54.3976 59.297 54.2481C59.7588 52.6528 61.1851 51.2485 62.5636 50.3913C64.5899 49.3109 66.838 49.0015 69.0529 49.6388C71.2551 50.4199 73.0079 51.7775 74.0627 53.9064C74.1142 54.1642 74.1658 54.422 74.2189 54.6876C75.2502 54.6876 76.2814 54.6876 77.3439 54.6876C77.3439 52.9345 77.3439 51.1814 77.3439 49.3751C76.7252 49.3751 76.1064 49.3751 75.4689 49.3751C74.2955 49.1536 73.345 48.6425 72.6564 47.6564C71.9628 46.552 71.9732 45.3469 71.963 44.0821C71.9614 43.9241 71.9598 43.7661 71.9582 43.6033C71.9752 42.1761 71.9752 42.1761 72.5002 41.5626C72.9278 41.3488 73.2881 41.3726 73.766 41.3569C74.05 41.3471 74.05 41.3471 74.3398 41.3371C74.5383 41.3309 74.7369 41.3248 74.9416 41.3185C75.2413 41.3083 75.2413 41.3083 75.547 41.298C76.0418 41.2814 76.5366 41.2655 77.0314 41.2501C76.4207 40.1345 75.8558 39.3487 74.5907 38.9618C73.7828 38.7337 73.0316 38.6812 72.1958 38.6825C72.0493 38.681 71.9028 38.6794 71.7518 38.6777C71.2733 38.673 70.7948 38.6716 70.3163 38.6701C69.9822 38.6675 69.6482 38.6647 69.3141 38.6616C68.4392 38.6543 67.5643 38.6496 66.6894 38.6455C65.7949 38.6408 64.9004 38.6336 64.0059 38.6265C62.254 38.6131 60.5021 38.6026 58.7502 38.5939C58.7526 38.7123 58.7551 38.8307 58.7577 38.9527C58.7596 39.1078 58.7616 39.2629 58.7636 39.4227C58.7661 39.5766 58.7686 39.7304 58.7711 39.8889C58.7455 40.4061 58.6203 40.7028 58.2814 41.0939C57.7924 41.3383 57.2485 41.359 56.7189 41.2501C56.5127 41.0439 56.3064 40.8376 56.0939 40.6251C56.0939 32.9423 56.0939 25.2595 56.0939 17.3439C40.2127 17.3439 24.3314 17.3439 7.9689 17.3439C7.9689 24.9235 7.9689 32.5032 7.9689 40.3126C7.50015 41.0939 7.50015 41.0939 7.18765 41.2501C6.0551 41.3414 6.0551 41.3414 5.60989 40.9952C5.22437 40.5152 5.2341 40.2482 5.23329 39.6368C5.23153 39.4335 5.22976 39.2302 5.22795 39.0208C5.22916 38.7958 5.23044 38.5708 5.23178 38.3458C5.23093 38.1086 5.22982 37.8715 5.22846 37.6343C5.22561 36.9902 5.22672 36.3462 5.2287 35.7021C5.23028 35.028 5.22881 34.3538 5.22783 33.6796C5.2267 32.5471 5.22819 31.4146 5.23117 30.2821C5.23457 28.9735 5.23347 27.6649 5.23003 26.3563C5.22719 25.2324 5.22679 24.1086 5.22843 22.9848C5.2294 22.3137 5.22954 21.6427 5.22747 20.9716C5.22566 20.3403 5.22692 19.7091 5.23053 19.0779C5.23135 18.8465 5.23112 18.615 5.22974 18.3836C5.22802 18.0672 5.23056 17.7508 5.23329 17.4343C5.23352 17.2574 5.23376 17.0805 5.234 16.8982C5.36005 16.1099 5.75922 15.626 6.34781 15.1075C6.89682 14.7174 7.17734 14.6679 7.84523 14.6666ZM58.7502 22.6564C58.7502 23.5329 58.7502 24.4095 58.7502 25.3126C62.7205 25.3126 66.6908 25.3126 70.7814 25.3126C70.5654 24.2339 70.5654 24.2339 70.0294 23.4571C69.9168 23.3272 69.9168 23.3272 69.8018 23.1947C69.1745 22.6708 68.5381 22.6177 67.7435 22.6209C67.5433 22.6209 67.3432 22.6209 67.137 22.6209C66.9201 22.6225 66.7032 22.6242 66.4864 22.6258C66.2633 22.6264 66.0402 22.6269 65.8171 22.6272C65.2317 22.6284 64.6463 22.6314 64.0609 22.6349C63.4628 22.6381 62.8648 22.6395 62.2667 22.6411C61.0945 22.6444 59.9223 22.6499 58.7502 22.6564ZM58.7502 27.9689C58.7502 30.5985 58.7502 33.2282 58.7502 35.9376C63.0298 35.9376 67.3095 35.9376 71.7189 35.9376C71.4128 34.6808 71.1066 33.4239 70.7912 32.129C70.6947 31.7321 70.5982 31.3353 70.4988 30.9264C70.4224 30.6131 70.3459 30.2999 70.2693 29.9867C70.2296 29.823 70.1899 29.6593 70.1491 29.4906C70.092 29.2575 70.092 29.2575 70.0338 29.0197C70.0008 28.8843 69.9678 28.749 69.9339 28.6096C69.8539 28.2759 69.8539 28.2759 69.6877 27.9689C66.0783 27.9689 62.4689 27.9689 58.7502 27.9689ZM74.6877 44.0626C74.5926 45.327 74.5926 45.327 75.1564 46.4064C75.6503 46.7161 76.0241 46.7536 76.6017 46.7384C76.8466 46.7319 77.0916 46.7255 77.3439 46.7189C77.3439 45.8423 77.3439 44.9657 77.3439 44.0626C76.4673 44.0626 75.5908 44.0626 74.6877 44.0626ZM18.5939 53.7501C17.4616 55.2833 17.1841 56.7036 17.3439 58.5939C17.4785 59.1214 17.6792 59.5411 17.9689 60.0001C18.0656 60.1605 18.0656 60.1605 18.1642 60.3242C18.9326 61.4703 20.0705 62.3041 21.4064 62.6564C23.2885 62.8362 24.7949 62.5617 26.2788 61.3685C27.4068 60.2769 27.9751 58.9166 28.0373 57.3634C27.9839 55.7447 27.4278 54.6202 26.3075 53.4632C25.0914 52.3515 23.8544 51.9482 22.2066 51.9831C20.8017 52.122 19.5772 52.7419 18.5939 53.7501ZM62.5002 54.0626C61.4587 55.4097 61.2581 56.7583 61.4064 58.4376C61.7615 59.9105 62.6485 61.1345 63.8887 61.9917C65.2215 62.7825 66.704 62.8425 68.2161 62.5886C69.5979 62.199 70.6411 61.2472 71.3722 60.0367C71.4351 59.9215 71.4979 59.8063 71.5627 59.6876C71.6158 59.5917 71.669 59.4959 71.7238 59.3971C72.2445 58.2688 72.1992 56.9252 71.9051 55.7417C71.298 54.0968 70.209 53.0544 68.6348 52.3243C66.2936 51.4186 64.1193 52.2886 62.5002 54.0626Z" fill="white"/>
<path d="M43.2812 26.7187C43.7541 27.0339 43.8766 27.2586 44.0625 27.7929C44.0625 28.7649 43.2588 29.4338 42.6096 30.0872C42.5013 30.1946 42.393 30.3021 42.2814 30.4127C42.1083 30.5863 42.1083 30.5863 41.9317 30.7634C41.5518 31.1438 41.1708 31.5231 40.7898 31.9024C40.5251 32.1669 40.2605 32.4314 39.996 32.696C39.4425 33.2493 38.8884 33.802 38.334 34.3544C37.6221 35.0636 36.9112 35.7739 36.2007 36.4845C35.6549 37.0302 35.1088 37.5756 34.5625 38.1207C34.3001 38.3826 34.0378 38.6446 33.7756 38.9066C33.4102 39.2717 33.0443 39.6363 32.6781 40.0008C32.5692 40.1098 32.4603 40.2188 32.348 40.3311C32.1989 40.4792 32.1989 40.4792 32.0467 40.6304C31.9602 40.7166 31.8738 40.8028 31.7847 40.8916C31.3514 41.2857 30.9214 41.3316 30.3428 41.3231C29.9175 41.2324 29.7364 41.0768 29.4183 40.7829C29.3098 40.6832 29.2013 40.5835 29.0895 40.4808C28.5109 39.9276 27.9396 39.368 27.3743 38.8012C27.2485 38.6756 27.1226 38.5499 26.993 38.4204C26.7294 38.157 26.4661 37.8933 26.2029 37.6294C25.7992 37.225 25.3948 36.8213 24.9902 36.4178C24.7334 36.1609 24.4767 35.9039 24.22 35.6469C24.099 35.5263 23.9781 35.4057 23.8535 35.2814C23.7418 35.1693 23.6302 35.0571 23.5151 34.9415C23.3677 34.794 23.3677 34.794 23.2174 34.6434C22.8253 34.22 22.6629 33.9571 22.5879 33.3789C22.6562 32.8125 22.6562 32.8125 22.9785 32.3535C23.4375 32.0312 23.4375 32.0312 23.9551 31.914C24.5515 32.0353 24.6892 32.1227 25.1205 32.5146C25.2846 32.6635 25.2846 32.6635 25.452 32.8154C25.9536 33.287 26.4439 33.7683 26.9287 34.2572C27.031 34.3597 27.1333 34.4621 27.2386 34.5678C27.5605 34.8905 27.8818 35.2138 28.2031 35.5371C28.4232 35.7579 28.6434 35.9788 28.8635 36.1996C29.399 36.7368 29.934 37.2745 30.4688 37.8125C30.9094 37.6118 31.2294 37.403 31.5702 37.0601C31.66 36.9705 31.7498 36.8809 31.8423 36.7885C31.9389 36.6905 32.0355 36.5926 32.1351 36.4916C32.2899 36.3365 32.2899 36.3365 32.4479 36.1782C32.7886 35.8364 33.1283 35.4936 33.468 35.1507C33.7045 34.9132 33.9411 34.6758 34.1777 34.4385C34.8004 33.8138 35.4222 33.1881 36.0438 32.5623C37.0397 31.5597 38.0366 30.5581 39.034 29.557C39.3829 29.2066 39.7312 28.8556 40.0794 28.5046C40.2922 28.2907 40.505 28.0769 40.7178 27.8631C40.8151 27.7648 40.9123 27.6665 41.0125 27.5652C41.7532 26.8226 42.2151 26.5688 43.2812 26.7187Z" fill="white"/>
<path d="M34.6959 49.2764C34.8868 49.2752 35.0776 49.2741 35.2743 49.273C35.7967 49.2708 36.3189 49.2721 36.8413 49.2752C37.3885 49.2777 37.9358 49.2764 38.483 49.2756C39.402 49.2749 40.3208 49.2773 41.2398 49.2817C42.3014 49.2867 43.3629 49.2867 44.4246 49.284C45.4468 49.2815 46.469 49.2826 47.4913 49.2853C47.9259 49.2863 48.3605 49.2862 48.7951 49.285C49.4022 49.2836 50.0092 49.2873 50.6163 49.2916C50.7963 49.2906 50.9764 49.2896 51.1619 49.2885C52.378 49.3031 52.378 49.3031 53.0017 49.671C53.3205 50.0464 53.3871 50.2152 53.3787 50.7031C53.3808 50.8207 53.3828 50.9384 53.3848 51.0595C53.2203 51.6093 52.9965 51.7382 52.4998 52.0312C51.8727 52.1268 51.2496 52.1182 50.6163 52.1146C50.4254 52.1159 50.2345 52.1173 50.0379 52.1187C49.5155 52.1216 48.9932 52.1217 48.4709 52.1203C48.0344 52.1195 47.598 52.1207 47.1615 52.1218C46.1318 52.1245 45.1021 52.1239 44.0724 52.1213C43.0108 52.1186 41.9492 52.1211 40.8876 52.1262C39.9753 52.1303 39.063 52.1315 38.1506 52.1301C37.6061 52.1294 37.0616 52.1297 36.5171 52.1329C35.91 52.1363 35.303 52.1334 34.6959 52.1298C34.4258 52.1326 34.4258 52.1326 34.1502 52.1354C32.9365 52.1209 32.9365 52.1209 32.3101 51.6686C31.939 51.1118 31.9138 50.8128 32.0311 50.1562C32.7105 49.1368 33.5829 49.2651 34.6959 49.2764Z" fill="white"/>
<path d="M4.93434 43.9816C5.10259 43.9805 5.27084 43.9794 5.44419 43.9783C6.00091 43.9755 6.5575 43.9773 7.11421 43.9794C7.50067 43.979 7.88713 43.9784 8.27359 43.9776C9.08377 43.9767 9.8939 43.9781 10.7041 43.981C11.7434 43.9845 12.7826 43.9825 13.822 43.9787C14.6201 43.9765 15.4181 43.9772 16.2162 43.9788C16.5995 43.9792 16.9827 43.9787 17.366 43.9773C17.9013 43.9757 18.4365 43.9781 18.9718 43.9816C19.1308 43.9803 19.2897 43.9791 19.4535 43.9777C20.5261 43.9907 20.5261 43.9907 21.0356 44.3605C21.3343 44.8162 21.3379 45.1092 21.3122 45.6402C21.2173 46.0933 20.9898 46.2942 20.625 46.5625C20.2615 46.7442 20.0502 46.7391 19.6454 46.7406C19.4355 46.742 19.4355 46.742 19.2213 46.7434C18.9903 46.7436 18.9903 46.7436 18.7546 46.7439C18.5928 46.7447 18.4309 46.7454 18.2642 46.7462C17.7268 46.7485 17.1895 46.7496 16.6522 46.7504C16.2797 46.7513 15.9071 46.7522 15.5346 46.7531C14.7527 46.7548 13.9707 46.7557 13.1888 46.7562C12.1862 46.7571 11.1838 46.7609 10.1812 46.7653C9.41144 46.7682 8.64164 46.769 7.87183 46.7693C7.50222 46.7697 7.1326 46.771 6.763 46.773C6.24603 46.7757 5.72914 46.7754 5.21217 46.7744C5.05913 46.7758 4.9061 46.7773 4.74843 46.7788C3.98028 46.774 3.42866 46.7656 2.81245 46.25C2.56797 45.761 2.5473 45.217 2.6562 44.6875C3.21175 43.8342 4.01698 43.9743 4.93434 43.9816Z" fill="white"/>
<path d="M67.998 54.9219C68.6931 55.314 69.0971 55.8159 69.375 56.5625C69.5123 57.3389 69.4798 58.0251 69.1113 58.7305C68.6462 59.3589 68.2454 59.7515 67.5 60C66.6222 60.0936 65.8334 60.0976 65.0842 59.5917C64.5229 59.0859 64.1415 58.5223 63.9929 57.7753C63.9477 56.9023 64.1668 56.1725 64.6875 55.4687C65.7017 54.6615 66.7881 54.4017 67.998 54.9219Z" fill="white"/>
<path d="M23.7697 54.8534C24.4757 55.3292 25.0408 55.9032 25.3127 56.7187C25.3968 57.7112 25.2566 58.3909 24.6877 59.2187C23.9198 59.9491 23.2902 60.0478 22.2658 60.0329C21.4821 59.9668 21.0019 59.6377 20.4982 59.0624C19.9179 58.2665 19.897 57.5183 20.0002 56.5624C20.2758 55.7277 20.8039 55.2634 21.5627 54.8437C22.3337 54.5867 23.0102 54.5952 23.7697 54.8534Z" fill="white"/>
</g>
<defs>
<clipPath id="clip0_1040_1293">
<rect width="80" height="80" fill="white"/>
</clipPath>
</defs>
</svg>
