<svg width="26" height="26" viewBox="0 0 26 26" fill="none" xmlns="http://www.w3.org/2000/svg">
<path d="M5.14603 2.4165H15.52C16.219 2.4165 16.798 2.4165 17.2465 2.4585C17.692 2.5005 18.163 2.5935 18.5335 2.8995C19.0405 3.315 19.3285 3.939 19.333 4.593C19.336 5.067 19.123 5.493 18.8815 5.88C18.637 6.27 18.2815 6.7395 17.8465 7.311L13.9615 12.432C13.5925 12.918 13.471 13.083 13.387 13.2585C13.3045 13.4297 13.244 13.6106 13.207 13.797C13.168 13.992 13.165 14.202 13.165 14.82V21.174C13.165 21.4965 13.165 21.786 13.1455 22.0185C13.1245 22.248 13.0765 22.557 12.88 22.824C12.7558 22.9951 12.5955 23.1367 12.4104 23.2388C12.2253 23.341 12.02 23.4011 11.809 23.415C11.4685 23.436 11.1805 23.2995 10.981 23.187C10.7815 23.0745 10.546 22.9125 10.2895 22.7355L8.81353 21.7155L8.75053 21.672C8.45053 21.4665 8.18053 21.282 7.97953 21.027C7.80331 20.8039 7.67098 20.5494 7.58953 20.277C7.49953 19.965 7.49953 19.6365 7.49953 19.263V14.8215C7.49953 14.2035 7.49803 13.992 7.45903 13.7985C7.42201 13.6121 7.36153 13.4312 7.27903 13.26C7.19503 13.0845 7.07353 12.9195 6.70453 12.4335L2.86754 7.3785L2.85854 7.3635L2.81804 7.3125C2.45363 6.85019 2.10883 6.37277 1.78454 5.8815C1.54304 5.496 1.33004 5.0685 1.33304 4.5945C1.33604 3.9405 1.62554 3.3165 2.13254 2.8995C2.50304 2.595 2.97254 2.502 3.41954 2.46C3.86804 2.4165 4.44704 2.4165 5.14603 2.4165ZM4.97054 7.6665L7.89853 11.5245L7.94053 11.58C8.25253 11.991 8.47153 12.2775 8.62903 12.603C8.76903 12.891 8.87003 13.193 8.93203 13.509C9.00103 13.863 9.00103 14.2275 9.00103 14.751V19.185C9.00103 19.68 9.00703 19.7775 9.03103 19.854C9.05703 19.944 9.09803 20.024 9.15403 20.094C9.19903 20.151 9.26653 20.2065 9.66553 20.4825L11.1145 21.4815C11.365 21.654 11.53 21.7665 11.6545 21.843C11.665 21.6885 11.665 21.474 11.665 21.1425V14.751C11.665 14.226 11.665 13.863 11.734 13.509C11.797 13.193 11.898 12.891 12.037 12.603C12.1945 12.2775 12.4135 11.991 12.727 11.5785L12.7675 11.5245L15.6955 7.6665H4.97054ZM16.8325 6.1665C17.1865 5.7 17.437 5.3595 17.6095 5.085C17.8195 4.749 17.8345 4.6275 17.833 4.6005C17.8334 4.49705 17.8111 4.39477 17.7675 4.30093C17.724 4.20708 17.6603 4.12398 17.581 4.0575C17.5735 4.0515 17.488 3.9885 17.107 3.9525C16.7365 3.9165 16.228 3.9165 15.481 3.9165H5.18503C4.43654 3.9165 3.92954 3.9165 3.55904 3.9525C3.17804 3.9885 3.09254 4.0515 3.08504 4.0575C3.00576 4.12398 2.94209 4.20708 2.89854 4.30093C2.85499 4.39477 2.83263 4.49705 2.83304 4.6005C2.83304 4.6275 2.84654 4.7505 3.05654 5.085C3.22904 5.3595 3.47954 5.7 3.83354 6.1665H16.8325ZM19.333 10.6665C19.333 10.4676 19.412 10.2768 19.5527 10.1362C19.6933 9.99551 19.8841 9.91649 20.083 9.91649H24.583C24.7819 9.91649 24.9727 9.99551 25.1133 10.1362C25.254 10.2768 25.333 10.4676 25.333 10.6665C25.333 10.8654 25.254 11.0562 25.1133 11.1968C24.9727 11.3375 24.7819 11.4165 24.583 11.4165H20.083C19.8841 11.4165 19.6933 11.3375 19.5527 11.1968C19.412 11.0562 19.333 10.8654 19.333 10.6665ZM17.083 14.4165C17.083 14.2176 17.162 14.0268 17.3027 13.8862C17.4433 13.7455 17.6341 13.6665 17.833 13.6665H24.583C24.7819 13.6665 24.9727 13.7455 25.1133 13.8862C25.254 14.0268 25.333 14.2176 25.333 14.4165C25.333 14.6154 25.254 14.8062 25.1133 14.9468C24.9727 15.0875 24.7819 15.1665 24.583 15.1665H17.833C17.6341 15.1665 17.4433 15.0875 17.3027 14.9468C17.162 14.8062 17.083 14.6154 17.083 14.4165ZM16.333 18.1665C16.333 17.9676 16.412 17.7768 16.5527 17.6362C16.6933 17.4955 16.8841 17.4165 17.083 17.4165H24.583C24.7819 17.4165 24.9727 17.4955 25.1133 17.6362C25.254 17.7768 25.333 17.9676 25.333 18.1665C25.333 18.3654 25.254 18.5562 25.1133 18.6968C24.9727 18.8375 24.7819 18.9165 24.583 18.9165H17.083C16.8841 18.9165 16.6933 18.8375 16.5527 18.6968C16.412 18.5562 16.333 18.3654 16.333 18.1665ZM16.333 21.9165C16.333 21.7176 16.412 21.5268 16.5527 21.3861C16.6933 21.2455 16.8841 21.1665 17.083 21.1665H20.833C21.0319 21.1665 21.2227 21.2455 21.3633 21.3861C21.504 21.5268 21.583 21.7176 21.583 21.9165C21.583 22.1154 21.504 22.3062 21.3633 22.4468C21.2227 22.5875 21.0319 22.6665 20.833 22.6665H17.083C16.8841 22.6665 16.6933 22.5875 16.5527 22.4468C16.412 22.3062 16.333 22.1154 16.333 21.9165Z" fill="white"/>
</svg>
