<svg width="21" height="22" viewBox="0 0 21 22" fill="none" xmlns="http://www.w3.org/2000/svg">
<path d="M4.15592 2.4519H12.5349C13.0995 2.4519 13.5671 2.4519 13.9294 2.48583C14.2892 2.51975 14.6696 2.59487 14.9689 2.84202C15.3784 3.17761 15.611 3.68161 15.6146 4.20984C15.6171 4.59269 15.445 4.93677 15.25 5.24934C15.0525 5.56434 14.7654 5.94355 14.414 6.40515L11.2761 10.5413C10.9781 10.9339 10.88 11.0671 10.8121 11.2089C10.7455 11.3472 10.6966 11.4933 10.6667 11.6438C10.6352 11.8013 10.6328 11.971 10.6328 12.4701V17.6022C10.6328 17.8627 10.6328 18.0965 10.6171 18.2843C10.6001 18.4696 10.5613 18.7192 10.4026 18.9349C10.3023 19.073 10.1728 19.1875 10.0233 19.27C9.87379 19.3525 9.70796 19.401 9.53757 19.4122C9.26255 19.4292 9.02994 19.3189 8.8688 19.2281C8.70767 19.1372 8.51746 19.0063 8.31028 18.8634L7.11813 18.0395L7.06725 18.0044C6.82494 17.8384 6.60686 17.6894 6.44452 17.4834C6.30219 17.3032 6.1953 17.0977 6.12952 16.8777C6.05682 16.6257 6.05683 16.3603 6.05683 16.0587V12.4713C6.05683 11.9722 6.05561 11.8013 6.02411 11.645C5.99421 11.4945 5.94536 11.3484 5.87873 11.2101C5.81088 11.0684 5.71275 10.9351 5.41471 10.5425L2.3156 6.45967L2.30833 6.44755L2.27562 6.40636C1.98129 6.03296 1.7028 5.64735 1.44087 5.25055C1.24581 4.93919 1.07377 4.5939 1.0762 4.21106C1.07862 3.68283 1.31245 3.17883 1.72195 2.84202C2.0212 2.59608 2.40041 2.52096 2.76144 2.48704C3.12369 2.4519 3.59135 2.4519 4.15592 2.4519ZM4.01417 6.69228L6.37909 9.80836L6.41302 9.85318C6.66502 10.1851 6.8419 10.4165 6.96911 10.6795C7.08219 10.9121 7.16377 11.156 7.21384 11.4112C7.26957 11.6971 7.26957 11.9915 7.26957 12.4144V15.9957C7.26957 16.3955 7.27442 16.4742 7.2938 16.536C7.3148 16.6087 7.34792 16.6733 7.39315 16.7299C7.4295 16.7759 7.48402 16.8207 7.80628 17.0437L8.97663 17.8505C9.17896 17.9899 9.31222 18.0807 9.41278 18.1425C9.42126 18.0177 9.42126 17.8445 9.42126 17.5767V12.4144C9.42126 11.9903 9.42126 11.6971 9.47699 11.4112C9.52788 11.156 9.60946 10.9121 9.72172 10.6795C9.84894 10.4165 10.0258 10.1851 10.279 9.85197L10.3117 9.80836L12.6767 6.69228H4.01417ZM13.595 5.48075C13.8809 5.10396 14.0833 4.82894 14.2226 4.60723C14.3922 4.33584 14.4043 4.23771 14.4031 4.2159C14.4034 4.13234 14.3854 4.04973 14.3502 3.97394C14.315 3.89814 14.2636 3.83102 14.1996 3.77733C14.1935 3.77248 14.1244 3.7216 13.8167 3.69252C13.5175 3.66344 13.1068 3.66344 12.5034 3.66344H4.18742C3.58287 3.66344 3.17337 3.66344 2.87412 3.69252C2.56639 3.7216 2.49733 3.77248 2.49127 3.77733C2.42724 3.83102 2.37582 3.89814 2.34064 3.97394C2.30547 4.04973 2.2874 4.13234 2.28773 4.2159C2.28773 4.23771 2.29864 4.33706 2.46825 4.60723C2.60758 4.82894 2.80991 5.10396 3.09583 5.48075H13.595ZM15.6146 9.11536C15.6146 8.9547 15.6785 8.80062 15.7921 8.68701C15.9057 8.57341 16.0597 8.50959 16.2204 8.50959H19.855C20.0157 8.50959 20.1698 8.57341 20.2834 8.68701C20.397 8.80062 20.4608 8.9547 20.4608 9.11536C20.4608 9.27602 20.397 9.4301 20.2834 9.5437C20.1698 9.6573 20.0157 9.72113 19.855 9.72113H16.2204C16.0597 9.72113 15.9057 9.6573 15.7921 9.5437C15.6785 9.4301 15.6146 9.27602 15.6146 9.11536ZM13.7973 12.1442C13.7973 11.9835 13.8612 11.8295 13.9748 11.7159C14.0884 11.6023 14.2424 11.5384 14.4031 11.5384H19.855C20.0157 11.5384 20.1698 11.6023 20.2834 11.7159C20.397 11.8295 20.4608 11.9835 20.4608 12.1442C20.4608 12.3049 20.397 12.4589 20.2834 12.5725C20.1698 12.6861 20.0157 12.75 19.855 12.75H14.4031C14.2424 12.75 14.0884 12.6861 13.9748 12.5725C13.8612 12.4589 13.7973 12.3049 13.7973 12.1442ZM13.1916 15.173C13.1916 15.0124 13.2554 14.8583 13.369 14.7447C13.4826 14.6311 13.6367 14.5673 13.7973 14.5673H19.855C20.0157 14.5673 20.1698 14.6311 20.2834 14.7447C20.397 14.8583 20.4608 15.0124 20.4608 15.173C20.4608 15.3337 20.397 15.4878 20.2834 15.6014C20.1698 15.715 20.0157 15.7788 19.855 15.7788H13.7973C13.6367 15.7788 13.4826 15.715 13.369 15.6014C13.2554 15.4878 13.1916 15.3337 13.1916 15.173ZM13.1916 18.2019C13.1916 18.0412 13.2554 17.8871 13.369 17.7735C13.4826 17.6599 13.6367 17.5961 13.7973 17.5961H16.8262C16.9868 17.5961 17.1409 17.6599 17.2545 17.7735C17.3681 17.8871 17.4319 18.0412 17.4319 18.2019C17.4319 18.3625 17.3681 18.5166 17.2545 18.6302C17.1409 18.7438 16.9868 18.8077 16.8262 18.8077H13.7973C13.6367 18.8077 13.4826 18.7438 13.369 18.6302C13.2554 18.5166 13.1916 18.3625 13.1916 18.2019Z" fill="#F4AA08"/>
</svg>
