<svg width="595" height="99" viewBox="0 0 595 99" fill="none" xmlns="http://www.w3.org/2000/svg">
<g clip-path="url(#clip0_1117_12)">
<rect y="17" width="595" height="82" fill="#F4AA08"/>
<path d="M-0.0222222 31L-45 -8.34465e-07L130.022 -8.34465e-07L175 31L-0.0222222 31Z" fill="#515151"/>
<rect x="77" y="39" width="16" height="16" rx="6" fill="white"/>
<path d="M88.975 51.5C87.9333 51.5 86.9042 51.273 85.8875 50.819C84.8708 50.365 83.9458 49.7212 83.1125 48.8875C82.2792 48.0538 81.6355 47.1288 81.1815 46.1125C80.7275 45.0962 80.5003 44.067 80.5 43.025C80.5 42.875 80.55 42.75 80.65 42.65C80.75 42.55 80.875 42.5 81.025 42.5H83.05C83.1667 42.5 83.2708 42.5397 83.3625 42.619C83.4542 42.6983 83.5083 42.792 83.525 42.9L83.85 44.65C83.8667 44.7833 83.8625 44.8958 83.8375 44.9875C83.8125 45.0792 83.7667 45.1583 83.7 45.225L82.4875 46.45C82.6542 46.7583 82.852 47.0562 83.081 47.3435C83.31 47.6308 83.5622 47.908 83.8375 48.175C84.0958 48.4333 84.3667 48.673 84.65 48.894C84.9333 49.115 85.2333 49.317 85.55 49.5L86.725 48.325C86.8 48.25 86.898 48.1938 87.019 48.1565C87.14 48.1192 87.2587 48.1087 87.375 48.125L89.1 48.475C89.2167 48.5083 89.3125 48.5688 89.3875 48.6565C89.4625 48.7442 89.5 48.842 89.5 48.95V50.975C89.5 51.125 89.45 51.25 89.35 51.35C89.25 51.45 89.125 51.5 88.975 51.5Z" fill="#F4AA08"/>
<path d="M101.896 45.496H100.28V47.152H99.432V45.496H97.816V44.728H99.432V43.072H100.28V44.728H101.896V45.496ZM104.327 46.416C104.38 46.6827 104.495 46.8853 104.671 47.024C104.847 47.1627 105.084 47.232 105.383 47.232C105.762 47.232 106.039 47.0827 106.215 46.784C106.391 46.4853 106.479 45.976 106.479 45.256C106.351 45.4373 106.17 45.5787 105.935 45.68C105.706 45.776 105.455 45.824 105.183 45.824C104.836 45.824 104.522 45.7547 104.239 45.616C103.956 45.472 103.732 45.2613 103.567 44.984C103.407 44.7013 103.327 44.36 103.327 43.96C103.327 43.3733 103.498 42.9067 103.839 42.56C104.186 42.208 104.66 42.032 105.263 42.032C105.988 42.032 106.503 42.2747 106.807 42.76C107.116 43.24 107.271 43.9787 107.271 44.976C107.271 45.664 107.212 46.2267 107.095 46.664C106.983 47.1013 106.786 47.432 106.503 47.656C106.22 47.88 105.828 47.992 105.327 47.992C104.756 47.992 104.316 47.8427 104.007 47.544C103.698 47.2453 103.524 46.8693 103.487 46.416H104.327ZM105.343 45.056C105.663 45.056 105.914 44.9573 106.095 44.76C106.282 44.5573 106.375 44.2907 106.375 43.96C106.375 43.592 106.276 43.3067 106.079 43.104C105.887 42.896 105.623 42.792 105.287 42.792C104.951 42.792 104.684 42.8987 104.487 43.112C104.295 43.32 104.199 43.5947 104.199 43.936C104.199 44.2613 104.292 44.5307 104.479 44.744C104.671 44.952 104.959 45.056 105.343 45.056ZM111.965 42.872L109.741 48H108.821L111.069 42.968H108.109V42.192H111.965V42.872ZM112.634 46.784V46.096L115.322 42.24H116.426V45.992H117.17V46.784H116.426V48H115.53V46.784H112.634ZM115.57 43.168L113.682 45.992H115.57V43.168ZM119.987 43.608C120.019 43.112 120.209 42.7253 120.555 42.448C120.907 42.1707 121.355 42.032 121.899 42.032C122.273 42.032 122.595 42.0987 122.867 42.232C123.139 42.3653 123.345 42.5467 123.483 42.776C123.622 43.0053 123.691 43.264 123.691 43.552C123.691 43.8827 123.603 44.1653 123.427 44.4C123.251 44.6347 123.041 44.792 122.795 44.872V44.904C123.11 45 123.355 45.176 123.531 45.432C123.707 45.6827 123.795 46.0053 123.795 46.4C123.795 46.7147 123.723 46.9947 123.579 47.24C123.435 47.4853 123.222 47.68 122.939 47.824C122.657 47.9627 122.318 48.032 121.923 48.032C121.347 48.032 120.873 47.8853 120.499 47.592C120.131 47.2933 119.934 46.8667 119.907 46.312H120.787C120.809 46.5947 120.918 46.8267 121.115 47.008C121.313 47.184 121.579 47.272 121.915 47.272C122.241 47.272 122.491 47.184 122.667 47.008C122.843 46.8267 122.931 46.5947 122.931 46.312C122.931 45.9387 122.811 45.6747 122.571 45.52C122.337 45.36 121.974 45.28 121.483 45.28H121.275V44.528H121.491C121.923 44.5227 122.251 44.4507 122.475 44.312C122.705 44.1733 122.819 43.9547 122.819 43.656C122.819 43.4 122.737 43.1973 122.571 43.048C122.406 42.8933 122.171 42.816 121.867 42.816C121.569 42.816 121.337 42.8933 121.171 43.048C121.006 43.1973 120.907 43.384 120.875 43.608H119.987ZM124.753 45.008C124.753 44.0853 124.908 43.3653 125.217 42.848C125.532 42.3253 126.071 42.064 126.833 42.064C127.596 42.064 128.132 42.3253 128.441 42.848C128.756 43.3653 128.913 44.0853 128.913 45.008C128.913 45.9413 128.756 46.672 128.441 47.2C128.132 47.7227 127.596 47.984 126.833 47.984C126.071 47.984 125.532 47.7227 125.217 47.2C124.908 46.672 124.753 45.9413 124.753 45.008ZM128.017 45.008C128.017 44.576 127.988 44.2107 127.929 43.912C127.876 43.6133 127.764 43.3707 127.593 43.184C127.423 42.992 127.169 42.896 126.833 42.896C126.497 42.896 126.244 42.992 126.073 43.184C125.903 43.3707 125.788 43.6133 125.729 43.912C125.676 44.2107 125.649 44.576 125.649 45.008C125.649 45.456 125.676 45.832 125.729 46.136C125.783 46.44 125.895 46.6853 126.065 46.872C126.241 47.0587 126.497 47.152 126.833 47.152C127.169 47.152 127.423 47.0587 127.593 46.872C127.769 46.6853 127.884 46.44 127.937 46.136C127.991 45.832 128.017 45.456 128.017 45.008ZM133.638 42.952H130.958V44.544C131.07 44.3947 131.236 44.2693 131.454 44.168C131.678 44.0667 131.916 44.016 132.166 44.016C132.614 44.016 132.977 44.112 133.254 44.304C133.537 44.496 133.737 44.7387 133.854 45.032C133.977 45.3253 134.038 45.6347 134.038 45.96C134.038 46.3547 133.961 46.7067 133.806 47.016C133.657 47.32 133.43 47.56 133.126 47.736C132.828 47.912 132.46 48 132.022 48C131.441 48 130.974 47.856 130.622 47.568C130.27 47.28 130.06 46.8987 129.99 46.424H130.878C130.937 46.6747 131.068 46.8747 131.27 47.024C131.473 47.168 131.726 47.24 132.03 47.24C132.409 47.24 132.692 47.1253 132.878 46.896C133.07 46.6667 133.166 46.3627 133.166 45.984C133.166 45.6 133.07 45.3067 132.878 45.104C132.686 44.896 132.404 44.792 132.03 44.792C131.769 44.792 131.548 44.8587 131.366 44.992C131.19 45.12 131.062 45.296 130.982 45.52H130.118V42.152H133.638V42.952ZM135.492 46.76C136.004 46.3173 136.406 45.9547 136.7 45.672C136.998 45.384 137.246 45.0853 137.444 44.776C137.641 44.4667 137.74 44.1573 137.74 43.848C137.74 43.528 137.662 43.2773 137.508 43.096C137.358 42.9147 137.121 42.824 136.796 42.824C136.481 42.824 136.236 42.9253 136.06 43.128C135.889 43.3253 135.798 43.592 135.788 43.928H134.908C134.924 43.32 135.105 42.856 135.452 42.536C135.804 42.2107 136.249 42.048 136.788 42.048C137.369 42.048 137.822 42.208 138.148 42.528C138.478 42.848 138.644 43.2747 138.644 43.808C138.644 44.192 138.545 44.5627 138.348 44.92C138.156 45.272 137.924 45.5893 137.652 45.872C137.385 46.1493 137.044 46.472 136.628 46.84L136.268 47.16H138.804V47.92H134.916V47.256L135.492 46.76ZM141.667 43.608C141.699 43.112 141.888 42.7253 142.235 42.448C142.587 42.1707 143.035 42.032 143.579 42.032C143.952 42.032 144.275 42.0987 144.547 42.232C144.819 42.3653 145.024 42.5467 145.163 42.776C145.302 43.0053 145.371 43.264 145.371 43.552C145.371 43.8827 145.283 44.1653 145.107 44.4C144.931 44.6347 144.72 44.792 144.475 44.872V44.904C144.79 45 145.035 45.176 145.211 45.432C145.387 45.6827 145.475 46.0053 145.475 46.4C145.475 46.7147 145.403 46.9947 145.259 47.24C145.115 47.4853 144.902 47.68 144.619 47.824C144.336 47.9627 143.998 48.032 143.603 48.032C143.027 48.032 142.552 47.8853 142.179 47.592C141.811 47.2933 141.614 46.8667 141.587 46.312H142.467C142.488 46.5947 142.598 46.8267 142.795 47.008C142.992 47.184 143.259 47.272 143.595 47.272C143.92 47.272 144.171 47.184 144.347 47.008C144.523 46.8267 144.611 46.5947 144.611 46.312C144.611 45.9387 144.491 45.6747 144.251 45.52C144.016 45.36 143.654 45.28 143.163 45.28H142.955V44.528H143.171C143.603 44.5227 143.931 44.4507 144.155 44.312C144.384 44.1733 144.499 43.9547 144.499 43.656C144.499 43.4 144.416 43.1973 144.251 43.048C144.086 42.8933 143.851 42.816 143.547 42.816C143.248 42.816 143.016 42.8933 142.851 43.048C142.686 43.1973 142.587 43.384 142.555 43.608H141.667ZM146.433 45.008C146.433 44.0853 146.588 43.3653 146.897 42.848C147.212 42.3253 147.75 42.064 148.513 42.064C149.276 42.064 149.812 42.3253 150.121 42.848C150.436 43.3653 150.593 44.0853 150.593 45.008C150.593 45.9413 150.436 46.672 150.121 47.2C149.812 47.7227 149.276 47.984 148.513 47.984C147.75 47.984 147.212 47.7227 146.897 47.2C146.588 46.672 146.433 45.9413 146.433 45.008ZM149.697 45.008C149.697 44.576 149.668 44.2107 149.609 43.912C149.556 43.6133 149.444 43.3707 149.273 43.184C149.102 42.992 148.849 42.896 148.513 42.896C148.177 42.896 147.924 42.992 147.753 43.184C147.582 43.3707 147.468 43.6133 147.409 43.912C147.356 44.2107 147.329 44.576 147.329 45.008C147.329 45.456 147.356 45.832 147.409 46.136C147.462 46.44 147.574 46.6853 147.745 46.872C147.921 47.0587 148.177 47.152 148.513 47.152C148.849 47.152 149.102 47.0587 149.273 46.872C149.449 46.6853 149.564 46.44 149.617 46.136C149.67 45.832 149.697 45.456 149.697 45.008ZM151.446 46.784V46.096L154.134 42.24H155.238V45.992H155.982V46.784H155.238V48H154.342V46.784H151.446ZM154.382 43.168L152.494 45.992H154.382V43.168ZM156.618 43V42.168H158.282V48H157.362V43H156.618Z" fill="white"/>
<path d="M101.896 60.496H100.28V62.152H99.432V60.496H97.816V59.728H99.432V58.072H100.28V59.728H101.896V60.496ZM104.327 61.416C104.38 61.6827 104.495 61.8853 104.671 62.024C104.847 62.1627 105.084 62.232 105.383 62.232C105.762 62.232 106.039 62.0827 106.215 61.784C106.391 61.4853 106.479 60.976 106.479 60.256C106.351 60.4373 106.17 60.5787 105.935 60.68C105.706 60.776 105.455 60.824 105.183 60.824C104.836 60.824 104.522 60.7547 104.239 60.616C103.956 60.472 103.732 60.2613 103.567 59.984C103.407 59.7013 103.327 59.36 103.327 58.96C103.327 58.3733 103.498 57.9067 103.839 57.56C104.186 57.208 104.66 57.032 105.263 57.032C105.988 57.032 106.503 57.2747 106.807 57.76C107.116 58.24 107.271 58.9787 107.271 59.976C107.271 60.664 107.212 61.2267 107.095 61.664C106.983 62.1013 106.786 62.432 106.503 62.656C106.22 62.88 105.828 62.992 105.327 62.992C104.756 62.992 104.316 62.8427 104.007 62.544C103.698 62.2453 103.524 61.8693 103.487 61.416H104.327ZM105.343 60.056C105.663 60.056 105.914 59.9573 106.095 59.76C106.282 59.5573 106.375 59.2907 106.375 58.96C106.375 58.592 106.276 58.3067 106.079 58.104C105.887 57.896 105.623 57.792 105.287 57.792C104.951 57.792 104.684 57.8987 104.487 58.112C104.295 58.32 104.199 58.5947 104.199 58.936C104.199 59.2613 104.292 59.5307 104.479 59.744C104.671 59.952 104.959 60.056 105.343 60.056ZM111.965 57.872L109.741 63H108.821L111.069 57.968H108.109V57.192H111.965V57.872ZM112.634 61.784V61.096L115.322 57.24H116.426V60.992H117.17V61.784H116.426V63H115.53V61.784H112.634ZM115.57 58.168L113.682 60.992H115.57V58.168ZM119.987 58.608C120.019 58.112 120.209 57.7253 120.555 57.448C120.907 57.1707 121.355 57.032 121.899 57.032C122.273 57.032 122.595 57.0987 122.867 57.232C123.139 57.3653 123.345 57.5467 123.483 57.776C123.622 58.0053 123.691 58.264 123.691 58.552C123.691 58.8827 123.603 59.1653 123.427 59.4C123.251 59.6347 123.041 59.792 122.795 59.872V59.904C123.11 60 123.355 60.176 123.531 60.432C123.707 60.6827 123.795 61.0053 123.795 61.4C123.795 61.7147 123.723 61.9947 123.579 62.24C123.435 62.4853 123.222 62.68 122.939 62.824C122.657 62.9627 122.318 63.032 121.923 63.032C121.347 63.032 120.873 62.8853 120.499 62.592C120.131 62.2933 119.934 61.8667 119.907 61.312H120.787C120.809 61.5947 120.918 61.8267 121.115 62.008C121.313 62.184 121.579 62.272 121.915 62.272C122.241 62.272 122.491 62.184 122.667 62.008C122.843 61.8267 122.931 61.5947 122.931 61.312C122.931 60.9387 122.811 60.6747 122.571 60.52C122.337 60.36 121.974 60.28 121.483 60.28H121.275V59.528H121.491C121.923 59.5227 122.251 59.4507 122.475 59.312C122.705 59.1733 122.819 58.9547 122.819 58.656C122.819 58.4 122.737 58.1973 122.571 58.048C122.406 57.8933 122.171 57.816 121.867 57.816C121.569 57.816 121.337 57.8933 121.171 58.048C121.006 58.1973 120.907 58.384 120.875 58.608H119.987ZM124.753 60.008C124.753 59.0853 124.908 58.3653 125.217 57.848C125.532 57.3253 126.071 57.064 126.833 57.064C127.596 57.064 128.132 57.3253 128.441 57.848C128.756 58.3653 128.913 59.0853 128.913 60.008C128.913 60.9413 128.756 61.672 128.441 62.2C128.132 62.7227 127.596 62.984 126.833 62.984C126.071 62.984 125.532 62.7227 125.217 62.2C124.908 61.672 124.753 60.9413 124.753 60.008ZM128.017 60.008C128.017 59.576 127.988 59.2107 127.929 58.912C127.876 58.6133 127.764 58.3707 127.593 58.184C127.423 57.992 127.169 57.896 126.833 57.896C126.497 57.896 126.244 57.992 126.073 58.184C125.903 58.3707 125.788 58.6133 125.729 58.912C125.676 59.2107 125.649 59.576 125.649 60.008C125.649 60.456 125.676 60.832 125.729 61.136C125.783 61.44 125.895 61.6853 126.065 61.872C126.241 62.0587 126.497 62.152 126.833 62.152C127.169 62.152 127.423 62.0587 127.593 61.872C127.769 61.6853 127.884 61.44 127.937 61.136C127.991 60.832 128.017 60.456 128.017 60.008ZM133.638 57.952H130.958V59.544C131.07 59.3947 131.236 59.2693 131.454 59.168C131.678 59.0667 131.916 59.016 132.166 59.016C132.614 59.016 132.977 59.112 133.254 59.304C133.537 59.496 133.737 59.7387 133.854 60.032C133.977 60.3253 134.038 60.6347 134.038 60.96C134.038 61.3547 133.961 61.7067 133.806 62.016C133.657 62.32 133.43 62.56 133.126 62.736C132.828 62.912 132.46 63 132.022 63C131.441 63 130.974 62.856 130.622 62.568C130.27 62.28 130.06 61.8987 129.99 61.424H130.878C130.937 61.6747 131.068 61.8747 131.27 62.024C131.473 62.168 131.726 62.24 132.03 62.24C132.409 62.24 132.692 62.1253 132.878 61.896C133.07 61.6667 133.166 61.3627 133.166 60.984C133.166 60.6 133.07 60.3067 132.878 60.104C132.686 59.896 132.404 59.792 132.03 59.792C131.769 59.792 131.548 59.8587 131.366 59.992C131.19 60.12 131.062 60.296 130.982 60.52H130.118V57.152H133.638V57.952ZM135.492 61.76C136.004 61.3173 136.406 60.9547 136.7 60.672C136.998 60.384 137.246 60.0853 137.444 59.776C137.641 59.4667 137.74 59.1573 137.74 58.848C137.74 58.528 137.662 58.2773 137.508 58.096C137.358 57.9147 137.121 57.824 136.796 57.824C136.481 57.824 136.236 57.9253 136.06 58.128C135.889 58.3253 135.798 58.592 135.788 58.928H134.908C134.924 58.32 135.105 57.856 135.452 57.536C135.804 57.2107 136.249 57.048 136.788 57.048C137.369 57.048 137.822 57.208 138.148 57.528C138.478 57.848 138.644 58.2747 138.644 58.808C138.644 59.192 138.545 59.5627 138.348 59.92C138.156 60.272 137.924 60.5893 137.652 60.872C137.385 61.1493 137.044 61.472 136.628 61.84L136.268 62.16H138.804V62.92H134.916V62.256L135.492 61.76ZM141.667 58.608C141.699 58.112 141.888 57.7253 142.235 57.448C142.587 57.1707 143.035 57.032 143.579 57.032C143.952 57.032 144.275 57.0987 144.547 57.232C144.819 57.3653 145.024 57.5467 145.163 57.776C145.302 58.0053 145.371 58.264 145.371 58.552C145.371 58.8827 145.283 59.1653 145.107 59.4C144.931 59.6347 144.72 59.792 144.475 59.872V59.904C144.79 60 145.035 60.176 145.211 60.432C145.387 60.6827 145.475 61.0053 145.475 61.4C145.475 61.7147 145.403 61.9947 145.259 62.24C145.115 62.4853 144.902 62.68 144.619 62.824C144.336 62.9627 143.998 63.032 143.603 63.032C143.027 63.032 142.552 62.8853 142.179 62.592C141.811 62.2933 141.614 61.8667 141.587 61.312H142.467C142.488 61.5947 142.598 61.8267 142.795 62.008C142.992 62.184 143.259 62.272 143.595 62.272C143.92 62.272 144.171 62.184 144.347 62.008C144.523 61.8267 144.611 61.5947 144.611 61.312C144.611 60.9387 144.491 60.6747 144.251 60.52C144.016 60.36 143.654 60.28 143.163 60.28H142.955V59.528H143.171C143.603 59.5227 143.931 59.4507 144.155 59.312C144.384 59.1733 144.499 58.9547 144.499 58.656C144.499 58.4 144.416 58.1973 144.251 58.048C144.086 57.8933 143.851 57.816 143.547 57.816C143.248 57.816 143.016 57.8933 142.851 58.048C142.686 58.1973 142.587 58.384 142.555 58.608H141.667ZM146.433 60.008C146.433 59.0853 146.588 58.3653 146.897 57.848C147.212 57.3253 147.75 57.064 148.513 57.064C149.276 57.064 149.812 57.3253 150.121 57.848C150.436 58.3653 150.593 59.0853 150.593 60.008C150.593 60.9413 150.436 61.672 150.121 62.2C149.812 62.7227 149.276 62.984 148.513 62.984C147.75 62.984 147.212 62.7227 146.897 62.2C146.588 61.672 146.433 60.9413 146.433 60.008ZM149.697 60.008C149.697 59.576 149.668 59.2107 149.609 58.912C149.556 58.6133 149.444 58.3707 149.273 58.184C149.102 57.992 148.849 57.896 148.513 57.896C148.177 57.896 147.924 57.992 147.753 58.184C147.582 58.3707 147.468 58.6133 147.409 58.912C147.356 59.2107 147.329 59.576 147.329 60.008C147.329 60.456 147.356 60.832 147.409 61.136C147.462 61.44 147.574 61.6853 147.745 61.872C147.921 62.0587 148.177 62.152 148.513 62.152C148.849 62.152 149.102 62.0587 149.273 61.872C149.449 61.6853 149.564 61.44 149.617 61.136C149.67 60.832 149.697 60.456 149.697 60.008ZM154.694 58.52C154.635 58.2747 154.529 58.0907 154.374 57.968C154.219 57.8453 154.003 57.784 153.726 57.784C153.305 57.784 152.99 57.9467 152.782 58.272C152.574 58.592 152.465 59.1253 152.454 59.872C152.593 59.6373 152.795 59.456 153.062 59.328C153.329 59.2 153.617 59.136 153.926 59.136C154.278 59.136 154.587 59.2133 154.854 59.368C155.126 59.5173 155.337 59.736 155.486 60.024C155.641 60.312 155.718 60.656 155.718 61.056C155.718 61.4293 155.643 61.7627 155.494 62.056C155.35 62.3493 155.134 62.5813 154.846 62.752C154.558 62.9173 154.211 63 153.806 63C153.257 63 152.825 62.88 152.51 62.64C152.201 62.3947 151.982 62.0507 151.854 61.608C151.731 61.1653 151.67 60.6133 151.67 59.952C151.67 58 152.358 57.024 153.734 57.024C154.267 57.024 154.686 57.168 154.99 57.456C155.299 57.744 155.481 58.0987 155.534 58.52H154.694ZM153.726 59.904C153.401 59.904 153.123 60.0027 152.894 60.2C152.67 60.392 152.558 60.672 152.558 61.04C152.558 61.408 152.662 61.7013 152.87 61.92C153.083 62.1333 153.379 62.24 153.758 62.24C154.094 62.24 154.358 62.136 154.55 61.928C154.747 61.72 154.846 61.4427 154.846 61.096C154.846 60.7333 154.75 60.4453 154.558 60.232C154.371 60.0133 154.094 59.904 153.726 59.904ZM156.579 61.784V61.096L159.267 57.24H160.371V60.992H161.115V61.784H160.371V63H159.475V61.784H156.579ZM159.515 58.168L157.627 60.992H159.515V58.168Z" fill="white"/>
<rect x="206" y="39" width="16" height="16" rx="6" fill="white"/>
<path d="M209.034 43.741L213.471 48.179C213.603 48.3104 213.778 48.3884 213.964 48.3979C214.149 48.4074 214.331 48.3477 214.476 48.2305L214.532 48.179L218.967 43.744C218.981 43.799 218.991 43.8552 218.996 43.9125L219 44V50C219 50.2523 218.905 50.4953 218.733 50.6803C218.562 50.8653 218.327 50.9786 218.075 50.9975L218 51H210C209.748 51.0001 209.505 50.9048 209.32 50.7333C209.135 50.5617 209.021 50.3266 209.003 50.075L209 50V44C209 43.94 209.005 43.8817 209.015 43.825L209.034 43.741ZM218 43C218.061 43 218.12 43.0052 218.177 43.0155L218.262 43.035L214.003 47.295L209.741 43.034C209.796 43.019 209.853 43.009 209.911 43.004L210 43H218Z" fill="#F4AA08"/>
<path d="M228.2 48.072C227.853 48.072 227.541 48.0107 227.264 47.888C226.992 47.76 226.776 47.5893 226.616 47.376C226.456 47.1573 226.371 46.9147 226.36 46.648H227.304C227.32 46.8347 227.408 46.992 227.568 47.12C227.733 47.2427 227.939 47.304 228.184 47.304C228.44 47.304 228.637 47.256 228.776 47.16C228.92 47.0587 228.992 46.9307 228.992 46.776C228.992 46.6107 228.912 46.488 228.752 46.408C228.597 46.328 228.349 46.24 228.008 46.144C227.677 46.0533 227.408 45.9653 227.2 45.88C226.992 45.7947 226.811 45.664 226.656 45.488C226.507 45.312 226.432 45.08 226.432 44.792C226.432 44.5573 226.501 44.344 226.64 44.152C226.779 43.9547 226.976 43.8 227.232 43.688C227.493 43.576 227.792 43.52 228.128 43.52C228.629 43.52 229.032 43.648 229.336 43.904C229.645 44.1547 229.811 44.4987 229.832 44.936H228.92C228.904 44.7387 228.824 44.5813 228.68 44.464C228.536 44.3467 228.341 44.288 228.096 44.288C227.856 44.288 227.672 44.3333 227.544 44.424C227.416 44.5147 227.352 44.6347 227.352 44.784C227.352 44.9013 227.395 45 227.48 45.08C227.565 45.16 227.669 45.224 227.792 45.272C227.915 45.3147 228.096 45.3707 228.336 45.44C228.656 45.5253 228.917 45.6133 229.12 45.704C229.328 45.7893 229.507 45.9173 229.656 46.088C229.805 46.2587 229.883 46.4853 229.888 46.768C229.888 47.0187 229.819 47.2427 229.68 47.44C229.541 47.6373 229.344 47.792 229.088 47.904C228.837 48.016 228.541 48.072 228.2 48.072ZM230.569 45.776C230.569 45.3333 230.66 44.9413 230.841 44.6C231.028 44.2587 231.279 43.9947 231.593 43.808C231.913 43.616 232.265 43.52 232.649 43.52C232.996 43.52 233.297 43.5893 233.553 43.728C233.815 43.8613 234.023 44.0293 234.177 44.232V43.592H235.097V48H234.177V47.344C234.023 47.552 233.812 47.7253 233.545 47.864C233.279 48.0027 232.975 48.072 232.633 48.072C232.255 48.072 231.908 47.976 231.593 47.784C231.279 47.5867 231.028 47.3147 230.841 46.968C230.66 46.616 230.569 46.2187 230.569 45.776ZM234.177 45.792C234.177 45.488 234.113 45.224 233.985 45C233.863 44.776 233.7 44.6053 233.497 44.488C233.295 44.3707 233.076 44.312 232.841 44.312C232.607 44.312 232.388 44.3707 232.185 44.488C231.983 44.6 231.817 44.768 231.689 44.992C231.567 45.2107 231.505 45.472 231.505 45.776C231.505 46.08 231.567 46.3467 231.689 46.576C231.817 46.8053 231.983 46.9813 232.185 47.104C232.393 47.2213 232.612 47.28 232.841 47.28C233.076 47.28 233.295 47.2213 233.497 47.104C233.7 46.9867 233.863 46.816 233.985 46.592C234.113 46.3627 234.177 46.096 234.177 45.792ZM237.207 42.08V48H236.295V42.08H237.207ZM242.445 45.688C242.445 45.8533 242.434 46.0027 242.413 46.136H239.045C239.071 46.488 239.202 46.7707 239.437 46.984C239.671 47.1973 239.959 47.304 240.301 47.304C240.791 47.304 241.138 47.0987 241.341 46.688H242.325C242.191 47.0933 241.949 47.4267 241.597 47.688C241.25 47.944 240.818 48.072 240.301 48.072C239.879 48.072 239.501 47.9787 239.165 47.792C238.834 47.6 238.573 47.3333 238.381 46.992C238.194 46.6453 238.101 46.2453 238.101 45.792C238.101 45.3387 238.191 44.9413 238.373 44.6C238.559 44.2533 238.818 43.9867 239.149 43.8C239.485 43.6133 239.869 43.52 240.301 43.52C240.717 43.52 241.087 43.6107 241.413 43.792C241.738 43.9733 241.991 44.2293 242.173 44.56C242.354 44.8853 242.445 45.2613 242.445 45.688ZM241.493 45.4C241.487 45.064 241.367 44.7947 241.133 44.592C240.898 44.3893 240.607 44.288 240.261 44.288C239.946 44.288 239.677 44.3893 239.453 44.592C239.229 44.7893 239.095 45.0587 239.053 45.4H241.493ZM244.942 48.072C244.596 48.072 244.284 48.0107 244.006 47.888C243.734 47.76 243.518 47.5893 243.358 47.376C243.198 47.1573 243.113 46.9147 243.102 46.648H244.046C244.062 46.8347 244.15 46.992 244.31 47.12C244.476 47.2427 244.681 47.304 244.926 47.304C245.182 47.304 245.38 47.256 245.518 47.16C245.662 47.0587 245.734 46.9307 245.734 46.776C245.734 46.6107 245.654 46.488 245.494 46.408C245.34 46.328 245.092 46.24 244.75 46.144C244.42 46.0533 244.15 45.9653 243.942 45.88C243.734 45.7947 243.553 45.664 243.398 45.488C243.249 45.312 243.174 45.08 243.174 44.792C243.174 44.5573 243.244 44.344 243.382 44.152C243.521 43.9547 243.718 43.8 243.974 43.688C244.236 43.576 244.534 43.52 244.87 43.52C245.372 43.52 245.774 43.648 246.078 43.904C246.388 44.1547 246.553 44.4987 246.574 44.936H245.662C245.646 44.7387 245.566 44.5813 245.422 44.464C245.278 44.3467 245.084 44.288 244.838 44.288C244.598 44.288 244.414 44.3333 244.286 44.424C244.158 44.5147 244.094 44.6347 244.094 44.784C244.094 44.9013 244.137 45 244.222 45.08C244.308 45.16 244.412 45.224 244.534 45.272C244.657 45.3147 244.838 45.3707 245.078 45.44C245.398 45.5253 245.66 45.6133 245.862 45.704C246.07 45.7893 246.249 45.9173 246.398 46.088C246.548 46.2587 246.625 46.4853 246.63 46.768C246.63 47.0187 246.561 47.2427 246.422 47.44C246.284 47.6373 246.086 47.792 245.83 47.904C245.58 48.016 245.284 48.072 244.942 48.072ZM251.72 42.832C252.328 42.832 252.853 42.944 253.296 43.168C253.738 43.392 254.074 43.7067 254.304 44.112C254.538 44.512 254.656 44.9787 254.656 45.512C254.656 45.9387 254.581 46.3467 254.432 46.736C254.288 47.1253 254.077 47.4427 253.8 47.688C253.528 47.9333 253.205 48.056 252.832 48.056C252.56 48.056 252.346 47.9973 252.192 47.88C252.037 47.7573 251.941 47.5867 251.904 47.368C251.738 47.5813 251.53 47.7493 251.28 47.872C251.029 47.9947 250.768 48.056 250.496 48.056C250.085 48.056 249.762 47.9333 249.528 47.688C249.298 47.4373 249.184 47.0987 249.184 46.672C249.184 46.2667 249.266 45.888 249.432 45.536C249.602 45.184 249.84 44.904 250.144 44.696C250.448 44.4827 250.789 44.376 251.168 44.376C251.632 44.376 251.957 44.5333 252.144 44.848L252.216 44.448H253.008L252.608 46.736C252.592 46.848 252.584 46.9467 252.584 47.032C252.584 47.1707 252.61 47.2747 252.664 47.344C252.722 47.4133 252.824 47.448 252.968 47.448C253.17 47.448 253.344 47.3493 253.488 47.152C253.632 46.9493 253.738 46.7013 253.808 46.408C253.882 46.1147 253.92 45.8293 253.92 45.552C253.92 44.8747 253.722 44.3573 253.328 44C252.933 43.6427 252.36 43.464 251.608 43.464C250.978 43.464 250.413 43.6133 249.912 43.912C249.416 44.2107 249.026 44.6213 248.744 45.144C248.461 45.6667 248.32 46.248 248.32 46.888C248.32 47.5707 248.522 48.0907 248.928 48.448C249.333 48.8053 249.912 48.984 250.664 48.984C251.17 48.984 251.613 48.8907 251.992 48.704L252.112 49.312C251.626 49.52 251.082 49.624 250.48 49.624C249.898 49.624 249.389 49.5147 248.952 49.296C248.514 49.0773 248.176 48.7653 247.936 48.36C247.696 47.96 247.576 47.4933 247.576 46.96C247.576 46.1973 247.752 45.5013 248.104 44.872C248.461 44.2427 248.954 43.7467 249.584 43.384C250.213 43.016 250.925 42.832 251.72 42.832ZM250.776 47.352C251 47.352 251.202 47.288 251.384 47.16C251.57 47.0267 251.717 46.8533 251.824 46.64C251.93 46.4213 251.984 46.1893 251.984 45.944C251.984 45.688 251.912 45.48 251.768 45.32C251.629 45.1547 251.432 45.072 251.176 45.072C250.946 45.072 250.744 45.144 250.568 45.288C250.397 45.4267 250.264 45.608 250.168 45.832C250.077 46.056 250.032 46.2907 250.032 46.536C250.032 46.7867 250.093 46.9867 250.216 47.136C250.338 47.28 250.525 47.352 250.776 47.352ZM257.419 48.072C257.072 48.072 256.76 48.0107 256.483 47.888C256.211 47.76 255.995 47.5893 255.835 47.376C255.675 47.1573 255.589 46.9147 255.579 46.648H256.523C256.539 46.8347 256.627 46.992 256.787 47.12C256.952 47.2427 257.157 47.304 257.403 47.304C257.659 47.304 257.856 47.256 257.995 47.16C258.139 47.0587 258.211 46.9307 258.211 46.776C258.211 46.6107 258.131 46.488 257.971 46.408C257.816 46.328 257.568 46.24 257.227 46.144C256.896 46.0533 256.627 45.9653 256.419 45.88C256.211 45.7947 256.029 45.664 255.875 45.488C255.725 45.312 255.651 45.08 255.651 44.792C255.651 44.5573 255.72 44.344 255.859 44.152C255.997 43.9547 256.195 43.8 256.451 43.688C256.712 43.576 257.011 43.52 257.347 43.52C257.848 43.52 258.251 43.648 258.555 43.904C258.864 44.1547 259.029 44.4987 259.051 44.936H258.139C258.123 44.7387 258.043 44.5813 257.899 44.464C257.755 44.3467 257.56 44.288 257.315 44.288C257.075 44.288 256.891 44.3333 256.763 44.424C256.635 44.5147 256.571 44.6347 256.571 44.784C256.571 44.9013 256.613 45 256.699 45.08C256.784 45.16 256.888 45.224 257.011 45.272C257.133 45.3147 257.315 45.3707 257.555 45.44C257.875 45.5253 258.136 45.6133 258.339 45.704C258.547 45.7893 258.725 45.9173 258.875 46.088C259.024 46.2587 259.101 46.4853 259.107 46.768C259.107 47.0187 259.037 47.2427 258.899 47.44C258.76 47.6373 258.563 47.792 258.307 47.904C258.056 48.016 257.76 48.072 257.419 48.072ZM262.372 43.52C262.708 43.52 263.007 43.592 263.268 43.736C263.535 43.88 263.743 44.0933 263.892 44.376C264.047 44.6587 264.124 45 264.124 45.4V48H263.22V45.536C263.22 45.1413 263.122 44.84 262.924 44.632C262.727 44.4187 262.458 44.312 262.116 44.312C261.775 44.312 261.503 44.4187 261.3 44.632C261.103 44.84 261.004 45.1413 261.004 45.536V48H260.092V42.08H261.004V44.104C261.159 43.9173 261.354 43.7733 261.588 43.672C261.828 43.5707 262.09 43.52 262.372 43.52ZM264.984 45.776C264.984 45.3333 265.074 44.9413 265.256 44.6C265.442 44.2587 265.693 43.9947 266.008 43.808C266.328 43.616 266.68 43.52 267.064 43.52C267.41 43.52 267.712 43.5893 267.968 43.728C268.229 43.8613 268.437 44.0293 268.592 44.232V43.592H269.512V48H268.592V47.344C268.437 47.552 268.226 47.7253 267.96 47.864C267.693 48.0027 267.389 48.072 267.048 48.072C266.669 48.072 266.322 47.976 266.008 47.784C265.693 47.5867 265.442 47.3147 265.256 46.968C265.074 46.616 264.984 46.2187 264.984 45.776ZM268.592 45.792C268.592 45.488 268.528 45.224 268.4 45C268.277 44.776 268.114 44.6053 267.912 44.488C267.709 44.3707 267.49 44.312 267.256 44.312C267.021 44.312 266.802 44.3707 266.6 44.488C266.397 44.6 266.232 44.768 266.104 44.992C265.981 45.2107 265.92 45.472 265.92 45.776C265.92 46.08 265.981 46.3467 266.104 46.576C266.232 46.8053 266.397 46.9813 266.6 47.104C266.808 47.2213 267.026 47.28 267.256 47.28C267.49 47.28 267.709 47.2213 267.912 47.104C268.114 46.9867 268.277 46.816 268.4 46.592C268.528 46.3627 268.592 46.096 268.592 45.792ZM270.405 45.776C270.405 45.3333 270.496 44.9413 270.677 44.6C270.864 44.2587 271.115 43.9947 271.429 43.808C271.749 43.616 272.104 43.52 272.493 43.52C272.781 43.52 273.064 43.584 273.341 43.712C273.624 43.8347 273.848 44 274.013 44.208V42.08H274.933V48H274.013V47.336C273.864 47.5493 273.656 47.7253 273.389 47.864C273.128 48.0027 272.827 48.072 272.485 48.072C272.101 48.072 271.749 47.976 271.429 47.784C271.115 47.5867 270.864 47.3147 270.677 46.968C270.496 46.616 270.405 46.2187 270.405 45.776ZM274.013 45.792C274.013 45.488 273.949 45.224 273.821 45C273.699 44.776 273.536 44.6053 273.333 44.488C273.131 44.3707 272.912 44.312 272.677 44.312C272.443 44.312 272.224 44.3707 272.021 44.488C271.819 44.6 271.653 44.768 271.525 44.992C271.403 45.2107 271.341 45.472 271.341 45.776C271.341 46.08 271.403 46.3467 271.525 46.576C271.653 46.8053 271.819 46.9813 272.021 47.104C272.229 47.2213 272.448 47.28 272.677 47.28C272.912 47.28 273.131 47.2213 273.333 47.104C273.536 46.9867 273.699 46.816 273.821 46.592C273.949 46.3627 274.013 46.096 274.013 45.792ZM278.043 48.072C277.627 48.072 277.251 47.9787 276.915 47.792C276.579 47.6 276.315 47.3333 276.123 46.992C275.931 46.6453 275.835 46.2453 275.835 45.792C275.835 45.344 275.934 44.9467 276.131 44.6C276.329 44.2533 276.598 43.9867 276.939 43.8C277.281 43.6133 277.662 43.52 278.083 43.52C278.505 43.52 278.886 43.6133 279.227 43.8C279.569 43.9867 279.838 44.2533 280.035 44.6C280.233 44.9467 280.331 45.344 280.331 45.792C280.331 46.24 280.23 46.6373 280.027 46.984C279.825 47.3307 279.547 47.6 279.195 47.792C278.849 47.9787 278.465 48.072 278.043 48.072ZM278.043 47.28C278.278 47.28 278.497 47.224 278.699 47.112C278.907 47 279.075 46.832 279.203 46.608C279.331 46.384 279.395 46.112 279.395 45.792C279.395 45.472 279.334 45.2027 279.211 44.984C279.089 44.76 278.926 44.592 278.723 44.48C278.521 44.368 278.302 44.312 278.067 44.312C277.833 44.312 277.614 44.368 277.411 44.48C277.214 44.592 277.057 44.76 276.939 44.984C276.822 45.2027 276.763 45.472 276.763 45.792C276.763 46.2667 276.883 46.6347 277.123 46.896C277.369 47.152 277.675 47.28 278.043 47.28ZM287.153 43.592L285.785 48H284.825L283.937 44.744L283.049 48H282.089L280.713 43.592H281.641L282.561 47.136L283.497 43.592H284.449L285.345 47.12L286.257 43.592H287.153ZM289.61 43.52C289.952 43.52 290.253 43.5893 290.514 43.728C290.781 43.8613 290.989 44.0293 291.138 44.232V43.592H292.058V48.072C292.058 48.4773 291.973 48.8373 291.802 49.152C291.632 49.472 291.384 49.7227 291.058 49.904C290.738 50.0853 290.354 50.176 289.906 50.176C289.309 50.176 288.813 50.0347 288.418 49.752C288.024 49.4747 287.8 49.096 287.746 48.616H288.65C288.72 48.8453 288.866 49.0293 289.09 49.168C289.32 49.312 289.592 49.384 289.906 49.384C290.274 49.384 290.57 49.272 290.794 49.048C291.024 48.824 291.138 48.4987 291.138 48.072V47.336C290.984 47.544 290.773 47.72 290.506 47.864C290.245 48.0027 289.946 48.072 289.61 48.072C289.226 48.072 288.874 47.976 288.554 47.784C288.24 47.5867 287.989 47.3147 287.802 46.968C287.621 46.616 287.53 46.2187 287.53 45.776C287.53 45.3333 287.621 44.9413 287.802 44.6C287.989 44.2587 288.24 43.9947 288.554 43.808C288.874 43.616 289.226 43.52 289.61 43.52ZM291.138 45.792C291.138 45.488 291.074 45.224 290.946 45C290.824 44.776 290.661 44.6053 290.458 44.488C290.256 44.3707 290.037 44.312 289.802 44.312C289.568 44.312 289.349 44.3707 289.146 44.488C288.944 44.6 288.778 44.768 288.65 44.992C288.528 45.2107 288.466 45.472 288.466 45.776C288.466 46.08 288.528 46.3467 288.65 46.576C288.778 46.8053 288.944 46.9813 289.146 47.104C289.354 47.2213 289.573 47.28 289.802 47.28C290.037 47.28 290.256 47.2213 290.458 47.104C290.661 46.9867 290.824 46.816 290.946 46.592C291.074 46.3627 291.138 46.096 291.138 45.792ZM294.168 44.232C294.302 44.008 294.478 43.8347 294.696 43.712C294.92 43.584 295.184 43.52 295.488 43.52V44.464H295.256C294.899 44.464 294.627 44.5547 294.44 44.736C294.259 44.9173 294.168 45.232 294.168 45.68V48H293.256V43.592H294.168V44.232ZM298.239 48.072C297.823 48.072 297.447 47.9787 297.111 47.792C296.775 47.6 296.511 47.3333 296.319 46.992C296.127 46.6453 296.031 46.2453 296.031 45.792C296.031 45.344 296.129 44.9467 296.327 44.6C296.524 44.2533 296.793 43.9867 297.135 43.8C297.476 43.6133 297.857 43.52 298.279 43.52C298.7 43.52 299.081 43.6133 299.423 43.8C299.764 43.9867 300.033 44.2533 300.231 44.6C300.428 44.9467 300.527 45.344 300.527 45.792C300.527 46.24 300.425 46.6373 300.223 46.984C300.02 47.3307 299.743 47.6 299.391 47.792C299.044 47.9787 298.66 48.072 298.239 48.072ZM298.239 47.28C298.473 47.28 298.692 47.224 298.895 47.112C299.103 47 299.271 46.832 299.399 46.608C299.527 46.384 299.591 46.112 299.591 45.792C299.591 45.472 299.529 45.2027 299.407 44.984C299.284 44.76 299.121 44.592 298.919 44.48C298.716 44.368 298.497 44.312 298.263 44.312C298.028 44.312 297.809 44.368 297.607 44.48C297.409 44.592 297.252 44.76 297.135 44.984C297.017 45.2027 296.959 45.472 296.959 45.792C296.959 46.2667 297.079 46.6347 297.319 46.896C297.564 47.152 297.871 47.28 298.239 47.28ZM305.42 43.592V48H304.508V47.48C304.364 47.6613 304.175 47.8053 303.94 47.912C303.711 48.0133 303.465 48.064 303.204 48.064C302.857 48.064 302.545 47.992 302.268 47.848C301.996 47.704 301.78 47.4907 301.62 47.208C301.465 46.9253 301.388 46.584 301.388 46.184V43.592H302.292V46.048C302.292 46.4427 302.391 46.7467 302.588 46.96C302.785 47.168 303.055 47.272 303.396 47.272C303.737 47.272 304.007 47.168 304.204 46.96C304.407 46.7467 304.508 46.4427 304.508 46.048V43.592H305.42ZM307.535 44.24C307.69 44.0373 307.901 43.8667 308.167 43.728C308.434 43.5893 308.735 43.52 309.071 43.52C309.455 43.52 309.805 43.616 310.119 43.808C310.439 43.9947 310.69 44.2587 310.871 44.6C311.053 44.9413 311.143 45.3333 311.143 45.776C311.143 46.2187 311.053 46.616 310.871 46.968C310.69 47.3147 310.439 47.5867 310.119 47.784C309.805 47.976 309.455 48.072 309.071 48.072C308.735 48.072 308.437 48.0053 308.175 47.872C307.914 47.7333 307.701 47.5627 307.535 47.36V50.096H306.623V43.592H307.535V44.24ZM310.215 45.776C310.215 45.472 310.151 45.2107 310.023 44.992C309.901 44.768 309.735 44.6 309.527 44.488C309.325 44.3707 309.106 44.312 308.871 44.312C308.642 44.312 308.423 44.3707 308.215 44.488C308.013 44.6053 307.847 44.776 307.719 45C307.597 45.224 307.535 45.488 307.535 45.792C307.535 46.096 307.597 46.3627 307.719 46.592C307.847 46.816 308.013 46.9867 308.215 47.104C308.423 47.2213 308.642 47.28 308.871 47.28C309.106 47.28 309.325 47.2213 309.527 47.104C309.735 46.9813 309.901 46.8053 310.023 46.576C310.151 46.3467 310.215 46.08 310.215 45.776ZM311.741 45.776C311.741 45.3333 311.832 44.9413 312.013 44.6C312.2 44.2587 312.451 43.9947 312.765 43.808C313.085 43.616 313.44 43.52 313.829 43.52C314.171 43.52 314.472 43.5893 314.733 43.728C315 43.8667 315.205 44.0347 315.349 44.232V43.592H316.269V50.096H315.349V47.36C315.205 47.5573 314.997 47.7253 314.725 47.864C314.453 48.0027 314.144 48.072 313.797 48.072C313.419 48.072 313.072 47.976 312.757 47.784C312.448 47.5867 312.2 47.3147 312.013 46.968C311.832 46.616 311.741 46.2187 311.741 45.776ZM315.349 45.792C315.349 45.488 315.285 45.224 315.157 45C315.035 44.776 314.872 44.6053 314.669 44.488C314.467 44.3707 314.248 44.312 314.013 44.312C313.779 44.312 313.56 44.3707 313.357 44.488C313.155 44.6 312.989 44.768 312.861 44.992C312.739 45.2107 312.677 45.472 312.677 45.776C312.677 46.08 312.739 46.3467 312.861 46.576C312.989 46.8053 313.155 46.9813 313.357 47.104C313.565 47.2213 313.784 47.28 314.013 47.28C314.248 47.28 314.467 47.2213 314.669 47.104C314.872 46.9867 315.035 46.816 315.157 46.592C315.285 46.3627 315.349 46.096 315.349 45.792ZM317.163 45.776C317.163 45.3333 317.254 44.9413 317.435 44.6C317.622 44.2587 317.873 43.9947 318.187 43.808C318.507 43.616 318.859 43.52 319.243 43.52C319.59 43.52 319.891 43.5893 320.147 43.728C320.409 43.8613 320.617 44.0293 320.771 44.232V43.592H321.691V48H320.771V47.344C320.617 47.552 320.406 47.7253 320.139 47.864C319.873 48.0027 319.569 48.072 319.227 48.072C318.849 48.072 318.502 47.976 318.187 47.784C317.873 47.5867 317.622 47.3147 317.435 46.968C317.254 46.616 317.163 46.2187 317.163 45.776ZM320.771 45.792C320.771 45.488 320.707 45.224 320.579 45C320.457 44.776 320.294 44.6053 320.091 44.488C319.889 44.3707 319.67 44.312 319.435 44.312C319.201 44.312 318.982 44.3707 318.779 44.488C318.577 44.6 318.411 44.768 318.283 44.992C318.161 45.2107 318.099 45.472 318.099 45.776C318.099 46.08 318.161 46.3467 318.283 46.576C318.411 46.8053 318.577 46.9813 318.779 47.104C318.987 47.2213 319.206 47.28 319.435 47.28C319.67 47.28 319.889 47.2213 320.091 47.104C320.294 46.9867 320.457 46.816 320.579 46.592C320.707 46.3627 320.771 46.096 320.771 45.792ZM323.953 44.336V46.776C323.953 46.9413 323.99 47.0613 324.065 47.136C324.145 47.2053 324.278 47.24 324.465 47.24H325.025V48H324.305C323.894 48 323.58 47.904 323.361 47.712C323.142 47.52 323.033 47.208 323.033 46.776V44.336H322.513V43.592H323.033V42.496H323.953V43.592H325.025V44.336H323.953ZM325.562 45.776C325.562 45.3333 325.652 44.9413 325.834 44.6C326.02 44.2587 326.271 43.9947 326.586 43.808C326.906 43.616 327.258 43.52 327.642 43.52C327.988 43.52 328.29 43.5893 328.546 43.728C328.807 43.8613 329.015 44.0293 329.17 44.232V43.592H330.09V48H329.17V47.344C329.015 47.552 328.804 47.7253 328.538 47.864C328.271 48.0027 327.967 48.072 327.626 48.072C327.247 48.072 326.9 47.976 326.586 47.784C326.271 47.5867 326.02 47.3147 325.834 46.968C325.652 46.616 325.562 46.2187 325.562 45.776ZM329.17 45.792C329.17 45.488 329.106 45.224 328.978 45C328.855 44.776 328.692 44.6053 328.49 44.488C328.287 44.3707 328.068 44.312 327.834 44.312C327.599 44.312 327.38 44.3707 327.178 44.488C326.975 44.6 326.81 44.768 326.682 44.992C326.559 45.2107 326.498 45.472 326.498 45.776C326.498 46.08 326.559 46.3467 326.682 46.576C326.81 46.8053 326.975 46.9813 327.178 47.104C327.386 47.2213 327.604 47.28 327.834 47.28C328.068 47.28 328.287 47.2213 328.49 47.104C328.692 46.9867 328.855 46.816 328.978 46.592C329.106 46.3627 329.17 46.096 329.17 45.792ZM332.2 44.232C332.333 44.008 332.509 43.8347 332.728 43.712C332.952 43.584 333.216 43.52 333.52 43.52V44.464H333.288C332.93 44.464 332.658 44.5547 332.472 44.736C332.29 44.9173 332.2 45.232 332.2 45.68V48H331.288V43.592H332.2V44.232ZM334.726 48.056C334.56 48.056 334.422 48 334.31 47.888C334.198 47.776 334.142 47.6373 334.142 47.472C334.142 47.3067 334.198 47.168 334.31 47.056C334.422 46.944 334.56 46.888 334.726 46.888C334.886 46.888 335.022 46.944 335.134 47.056C335.246 47.168 335.302 47.3067 335.302 47.472C335.302 47.6373 335.246 47.776 335.134 47.888C335.022 48 334.886 48.056 334.726 48.056ZM335.984 45.792C335.984 45.3387 336.074 44.9413 336.256 44.6C336.442 44.2533 336.698 43.9867 337.024 43.8C337.349 43.6133 337.722 43.52 338.144 43.52C338.677 43.52 339.117 43.648 339.464 43.904C339.816 44.1547 340.053 44.5147 340.176 44.984H339.192C339.112 44.7653 338.984 44.5947 338.808 44.472C338.632 44.3493 338.41 44.288 338.144 44.288C337.77 44.288 337.472 44.4213 337.248 44.688C337.029 44.9493 336.92 45.3173 336.92 45.792C336.92 46.2667 337.029 46.6373 337.248 46.904C337.472 47.1707 337.77 47.304 338.144 47.304C338.672 47.304 339.021 47.072 339.192 46.608H340.176C340.048 47.056 339.808 47.4133 339.456 47.68C339.104 47.9413 338.666 48.072 338.144 48.072C337.722 48.072 337.349 47.9787 337.024 47.792C336.698 47.6 336.442 47.3333 336.256 46.992C336.074 46.6453 335.984 46.2453 335.984 45.792ZM342.996 48.072C342.58 48.072 342.204 47.9787 341.868 47.792C341.532 47.6 341.268 47.3333 341.076 46.992C340.884 46.6453 340.788 46.2453 340.788 45.792C340.788 45.344 340.887 44.9467 341.084 44.6C341.282 44.2533 341.551 43.9867 341.892 43.8C342.234 43.6133 342.615 43.52 343.036 43.52C343.458 43.52 343.839 43.6133 344.18 43.8C344.522 43.9867 344.791 44.2533 344.988 44.6C345.186 44.9467 345.284 45.344 345.284 45.792C345.284 46.24 345.183 46.6373 344.98 46.984C344.778 47.3307 344.5 47.6 344.148 47.792C343.802 47.9787 343.418 48.072 342.996 48.072ZM342.996 47.28C343.231 47.28 343.45 47.224 343.652 47.112C343.86 47 344.028 46.832 344.156 46.608C344.284 46.384 344.348 46.112 344.348 45.792C344.348 45.472 344.287 45.2027 344.164 44.984C344.042 44.76 343.879 44.592 343.676 44.48C343.474 44.368 343.255 44.312 343.02 44.312C342.786 44.312 342.567 44.368 342.364 44.48C342.167 44.592 342.01 44.76 341.892 44.984C341.775 45.2027 341.716 45.472 341.716 45.792C341.716 46.2667 341.836 46.6347 342.076 46.896C342.322 47.152 342.628 47.28 342.996 47.28ZM351.522 43.52C351.869 43.52 352.178 43.592 352.45 43.736C352.727 43.88 352.943 44.0933 353.098 44.376C353.258 44.6587 353.338 45 353.338 45.4V48H352.434V45.536C352.434 45.1413 352.335 44.84 352.138 44.632C351.941 44.4187 351.671 44.312 351.33 44.312C350.989 44.312 350.717 44.4187 350.514 44.632C350.317 44.84 350.218 45.1413 350.218 45.536V48H349.314V45.536C349.314 45.1413 349.215 44.84 349.018 44.632C348.821 44.4187 348.551 44.312 348.21 44.312C347.869 44.312 347.597 44.4187 347.394 44.632C347.197 44.84 347.098 45.1413 347.098 45.536V48H346.186V43.592H347.098V44.096C347.247 43.9147 347.437 43.7733 347.666 43.672C347.895 43.5707 348.141 43.52 348.402 43.52C348.754 43.52 349.069 43.5947 349.346 43.744C349.623 43.8933 349.837 44.1093 349.986 44.392C350.119 44.1253 350.327 43.9147 350.61 43.76C350.893 43.6 351.197 43.52 351.522 43.52Z" fill="white"/>
<rect x="398" y="39" width="16" height="16" rx="6" fill="white"/>
<g clip-path="url(#clip1_1117_12)">
<path d="M406 41.5C407.193 41.5 408.338 41.9741 409.182 42.818C410.026 43.6619 410.5 44.8065 410.5 46C410.5 47.863 409.08 49.815 406.3 51.9C406.213 51.9649 406.108 52 406 52C405.892 52 405.787 51.9649 405.7 51.9C402.92 49.815 401.5 47.863 401.5 46C401.5 44.8065 401.974 43.6619 402.818 42.818C403.662 41.9741 404.807 41.5 406 41.5ZM406 44.5C405.602 44.5 405.221 44.658 404.939 44.9393C404.658 45.2206 404.5 45.6022 404.5 46C404.5 46.3978 404.658 46.7794 404.939 47.0607C405.221 47.342 405.602 47.5 406 47.5C406.398 47.5 406.779 47.342 407.061 47.0607C407.342 46.7794 407.5 46.3978 407.5 46C407.5 45.6022 407.342 45.2206 407.061 44.9393C406.779 44.658 406.398 44.5 406 44.5Z" fill="#F4AA08"/>
</g>
<path d="M421.576 45.144C421.875 45.1973 422.128 45.3547 422.336 45.616C422.544 45.8773 422.648 46.1733 422.648 46.504C422.648 46.7867 422.573 47.0427 422.424 47.272C422.28 47.496 422.069 47.6747 421.792 47.808C421.515 47.936 421.192 48 420.824 48H418.6V42.44H420.72C421.099 42.44 421.424 42.504 421.696 42.632C421.968 42.76 422.173 42.9333 422.312 43.152C422.451 43.3653 422.52 43.6053 422.52 43.872C422.52 44.192 422.435 44.4587 422.264 44.672C422.093 44.8853 421.864 45.0427 421.576 45.144ZM419.512 44.776H420.64C420.939 44.776 421.171 44.7093 421.336 44.576C421.507 44.4373 421.592 44.24 421.592 43.984C421.592 43.7333 421.507 43.5387 421.336 43.4C421.171 43.256 420.939 43.184 420.64 43.184H419.512V44.776ZM420.744 47.256C421.053 47.256 421.296 47.1813 421.472 47.032C421.648 46.8827 421.736 46.6747 421.736 46.408C421.736 46.136 421.643 45.92 421.456 45.76C421.269 45.6 421.021 45.52 420.712 45.52H419.512V47.256H420.744ZM427.631 43.592V48H426.719V47.48C426.575 47.6613 426.386 47.8053 426.151 47.912C425.922 48.0133 425.676 48.064 425.415 48.064C425.068 48.064 424.756 47.992 424.479 47.848C424.207 47.704 423.991 47.4907 423.831 47.208C423.676 46.9253 423.599 46.584 423.599 46.184V43.592H424.503V46.048C424.503 46.4427 424.602 46.7467 424.799 46.96C424.996 47.168 425.266 47.272 425.607 47.272C425.948 47.272 426.218 47.168 426.415 46.96C426.618 46.7467 426.719 46.4427 426.719 46.048V43.592H427.631ZM429.298 43.008C429.133 43.008 428.994 42.952 428.882 42.84C428.77 42.728 428.714 42.5893 428.714 42.424C428.714 42.2587 428.77 42.12 428.882 42.008C428.994 41.896 429.133 41.84 429.298 41.84C429.458 41.84 429.594 41.896 429.706 42.008C429.818 42.12 429.874 42.2587 429.874 42.424C429.874 42.5893 429.818 42.728 429.706 42.84C429.594 42.952 429.458 43.008 429.298 43.008ZM429.746 43.592V48H428.834V43.592H429.746ZM431.856 42.08V48H430.944V42.08H431.856ZM432.749 45.776C432.749 45.3333 432.84 44.9413 433.021 44.6C433.208 44.2587 433.458 43.9947 433.773 43.808C434.093 43.616 434.448 43.52 434.837 43.52C435.125 43.52 435.408 43.584 435.685 43.712C435.968 43.8347 436.192 44 436.357 44.208V42.08H437.277V48H436.357V47.336C436.208 47.5493 436 47.7253 435.733 47.864C435.472 48.0027 435.17 48.072 434.829 48.072C434.445 48.072 434.093 47.976 433.773 47.784C433.458 47.5867 433.208 47.3147 433.021 46.968C432.84 46.616 432.749 46.2187 432.749 45.776ZM436.357 45.792C436.357 45.488 436.293 45.224 436.165 45C436.042 44.776 435.88 44.6053 435.677 44.488C435.474 44.3707 435.256 44.312 435.021 44.312C434.786 44.312 434.568 44.3707 434.365 44.488C434.162 44.6 433.997 44.768 433.869 44.992C433.746 45.2107 433.685 45.472 433.685 45.776C433.685 46.08 433.746 46.3467 433.869 46.576C433.997 46.8053 434.162 46.9813 434.365 47.104C434.573 47.2213 434.792 47.28 435.021 47.28C435.256 47.28 435.474 47.2213 435.677 47.104C435.88 46.9867 436.042 46.816 436.165 46.592C436.293 46.3627 436.357 46.096 436.357 45.792ZM438.939 43.008C438.774 43.008 438.635 42.952 438.523 42.84C438.411 42.728 438.355 42.5893 438.355 42.424C438.355 42.2587 438.411 42.12 438.523 42.008C438.635 41.896 438.774 41.84 438.939 41.84C439.099 41.84 439.235 41.896 439.347 42.008C439.459 42.12 439.515 42.2587 439.515 42.424C439.515 42.5893 439.459 42.728 439.347 42.84C439.235 42.952 439.099 43.008 438.939 43.008ZM439.387 43.592V48H438.475V43.592H439.387ZM442.808 43.52C443.155 43.52 443.464 43.592 443.736 43.736C444.014 43.88 444.23 44.0933 444.384 44.376C444.539 44.6587 444.616 45 444.616 45.4V48H443.712V45.536C443.712 45.1413 443.614 44.84 443.416 44.632C443.219 44.4187 442.95 44.312 442.608 44.312C442.267 44.312 441.995 44.4187 441.792 44.632C441.595 44.84 441.496 45.1413 441.496 45.536V48H440.584V43.592H441.496V44.096C441.646 43.9147 441.835 43.7733 442.064 43.672C442.299 43.5707 442.547 43.52 442.808 43.52ZM447.556 43.52C447.897 43.52 448.198 43.5893 448.46 43.728C448.726 43.8613 448.934 44.0293 449.084 44.232V43.592H450.004V48.072C450.004 48.4773 449.918 48.8373 449.748 49.152C449.577 49.472 449.329 49.7227 449.004 49.904C448.684 50.0853 448.3 50.176 447.852 50.176C447.254 50.176 446.758 50.0347 446.364 49.752C445.969 49.4747 445.745 49.096 445.692 48.616H446.596C446.665 48.8453 446.812 49.0293 447.036 49.168C447.265 49.312 447.537 49.384 447.852 49.384C448.22 49.384 448.516 49.272 448.74 49.048C448.969 48.824 449.084 48.4987 449.084 48.072V47.336C448.929 47.544 448.718 47.72 448.452 47.864C448.19 48.0027 447.892 48.072 447.556 48.072C447.172 48.072 446.82 47.976 446.5 47.784C446.185 47.5867 445.934 47.3147 445.748 46.968C445.566 46.616 445.476 46.2187 445.476 45.776C445.476 45.3333 445.566 44.9413 445.748 44.6C445.934 44.2587 446.185 43.9947 446.5 43.808C446.82 43.616 447.172 43.52 447.556 43.52ZM449.084 45.792C449.084 45.488 449.02 45.224 448.892 45C448.769 44.776 448.606 44.6053 448.404 44.488C448.201 44.3707 447.982 44.312 447.748 44.312C447.513 44.312 447.294 44.3707 447.092 44.488C446.889 44.6 446.724 44.768 446.596 44.992C446.473 45.2107 446.412 45.472 446.412 45.776C446.412 46.08 446.473 46.3467 446.596 46.576C446.724 46.8053 446.889 46.9813 447.092 47.104C447.3 47.2213 447.518 47.28 447.748 47.28C447.982 47.28 448.201 47.2213 448.404 47.104C448.606 46.9867 448.769 46.816 448.892 46.592C449.02 46.3627 449.084 46.096 449.084 45.792ZM457.848 48H456.936L454.192 43.848V48H453.28V42.432H454.192L456.936 46.576V42.432H457.848V48ZM460.957 48.072C460.541 48.072 460.165 47.9787 459.829 47.792C459.493 47.6 459.229 47.3333 459.037 46.992C458.845 46.6453 458.749 46.2453 458.749 45.792C458.749 45.344 458.848 44.9467 459.045 44.6C459.243 44.2533 459.512 43.9867 459.853 43.8C460.195 43.6133 460.576 43.52 460.997 43.52C461.419 43.52 461.8 43.6133 462.141 43.8C462.483 43.9867 462.752 44.2533 462.949 44.6C463.147 44.9467 463.245 45.344 463.245 45.792C463.245 46.24 463.144 46.6373 462.941 46.984C462.739 47.3307 462.461 47.6 462.109 47.792C461.763 47.9787 461.379 48.072 460.957 48.072ZM460.957 47.28C461.192 47.28 461.411 47.224 461.613 47.112C461.821 47 461.989 46.832 462.117 46.608C462.245 46.384 462.309 46.112 462.309 45.792C462.309 45.472 462.248 45.2027 462.125 44.984C462.003 44.76 461.84 44.592 461.637 44.48C461.435 44.368 461.216 44.312 460.981 44.312C460.747 44.312 460.528 44.368 460.325 44.48C460.128 44.592 459.971 44.76 459.853 44.984C459.736 45.2027 459.677 45.472 459.677 45.792C459.677 46.2667 459.797 46.6347 460.037 46.896C460.283 47.152 460.589 47.28 460.957 47.28ZM464.515 48.056C464.35 48.056 464.211 48 464.099 47.888C463.987 47.776 463.931 47.6373 463.931 47.472C463.931 47.3067 463.987 47.168 464.099 47.056C464.211 46.944 464.35 46.888 464.515 46.888C464.675 46.888 464.811 46.944 464.923 47.056C465.035 47.168 465.091 47.3067 465.091 47.472C465.091 47.6373 465.035 47.776 464.923 47.888C464.811 48 464.675 48.056 464.515 48.056ZM464.515 44.696C464.35 44.696 464.211 44.64 464.099 44.528C463.987 44.416 463.931 44.2773 463.931 44.112C463.931 43.9467 463.987 43.808 464.099 43.696C464.211 43.584 464.35 43.528 464.515 43.528C464.675 43.528 464.811 43.584 464.923 43.696C465.035 43.808 465.091 43.9467 465.091 44.112C465.091 44.2773 465.035 44.416 464.923 44.528C464.811 44.64 464.675 44.696 464.515 44.696ZM467.946 43V42.168H469.61V48H468.69V43H467.946ZM474.559 42.872L472.335 48H471.415L473.663 42.968H470.703V42.192H474.559V42.872ZM475.219 43V42.168H476.883V48H475.963V43H475.219ZM479.256 46.904L478.288 49.112H477.696L478.264 46.904H479.256ZM485.147 43.52C485.089 43.2747 484.982 43.0907 484.827 42.968C484.673 42.8453 484.457 42.784 484.179 42.784C483.758 42.784 483.443 42.9467 483.235 43.272C483.027 43.592 482.918 44.1253 482.907 44.872C483.046 44.6373 483.249 44.456 483.515 44.328C483.782 44.2 484.07 44.136 484.379 44.136C484.731 44.136 485.041 44.2133 485.307 44.368C485.579 44.5173 485.79 44.736 485.939 45.024C486.094 45.312 486.171 45.656 486.171 46.056C486.171 46.4293 486.097 46.7627 485.947 47.056C485.803 47.3493 485.587 47.5813 485.299 47.752C485.011 47.9173 484.665 48 484.259 48C483.71 48 483.278 47.88 482.963 47.64C482.654 47.3947 482.435 47.0507 482.307 46.608C482.185 46.1653 482.123 45.6133 482.123 44.952C482.123 43 482.811 42.024 484.187 42.024C484.721 42.024 485.139 42.168 485.443 42.456C485.753 42.744 485.934 43.0987 485.987 43.52H485.147ZM484.179 44.904C483.854 44.904 483.577 45.0027 483.347 45.2C483.123 45.392 483.011 45.672 483.011 46.04C483.011 46.408 483.115 46.7013 483.323 46.92C483.537 47.1333 483.833 47.24 484.211 47.24C484.547 47.24 484.811 47.136 485.003 46.928C485.201 46.72 485.299 46.4427 485.299 46.096C485.299 45.7333 485.203 45.4453 485.011 45.232C484.825 45.0133 484.547 44.904 484.179 44.904ZM488.328 44.336V46.776C488.328 46.9413 488.365 47.0613 488.44 47.136C488.52 47.2053 488.653 47.24 488.84 47.24H489.4V48H488.68C488.269 48 487.955 47.904 487.736 47.712C487.517 47.52 487.408 47.208 487.408 46.776V44.336H486.888V43.592H487.408V42.496H488.328V43.592H489.4V44.336H488.328ZM492.521 43.52C492.857 43.52 493.155 43.592 493.417 43.736C493.683 43.88 493.891 44.0933 494.041 44.376C494.195 44.6587 494.273 45 494.273 45.4V48H493.369V45.536C493.369 45.1413 493.27 44.84 493.073 44.632C492.875 44.4187 492.606 44.312 492.265 44.312C491.923 44.312 491.651 44.4187 491.449 44.632C491.251 44.84 491.153 45.1413 491.153 45.536V48H490.241V42.08H491.153V44.104C491.307 43.9173 491.502 43.7733 491.737 43.672C491.977 43.5707 492.238 43.52 492.521 43.52ZM500.786 42.44V43.184H498.426V44.824H500.266V45.568H498.426V48H497.514V42.44H500.786ZM502.543 42.08V48H501.631V42.08H502.543ZM505.653 48.072C505.237 48.072 504.861 47.9787 504.525 47.792C504.189 47.6 503.925 47.3333 503.733 46.992C503.541 46.6453 503.445 46.2453 503.445 45.792C503.445 45.344 503.543 44.9467 503.741 44.6C503.938 44.2533 504.207 43.9867 504.549 43.8C504.89 43.6133 505.271 43.52 505.693 43.52C506.114 43.52 506.495 43.6133 506.837 43.8C507.178 43.9867 507.447 44.2533 507.645 44.6C507.842 44.9467 507.941 45.344 507.941 45.792C507.941 46.24 507.839 46.6373 507.637 46.984C507.434 47.3307 507.157 47.6 506.805 47.792C506.458 47.9787 506.074 48.072 505.653 48.072ZM505.653 47.28C505.887 47.28 506.106 47.224 506.309 47.112C506.517 47 506.685 46.832 506.813 46.608C506.941 46.384 507.005 46.112 507.005 45.792C507.005 45.472 506.943 45.2027 506.821 44.984C506.698 44.76 506.535 44.592 506.333 44.48C506.13 44.368 505.911 44.312 505.677 44.312C505.442 44.312 505.223 44.368 505.021 44.48C504.823 44.592 504.666 44.76 504.549 44.984C504.431 45.2027 504.373 45.472 504.373 45.792C504.373 46.2667 504.493 46.6347 504.733 46.896C504.978 47.152 505.285 47.28 505.653 47.28ZM510.754 48.072C510.338 48.072 509.962 47.9787 509.626 47.792C509.29 47.6 509.026 47.3333 508.834 46.992C508.642 46.6453 508.546 46.2453 508.546 45.792C508.546 45.344 508.645 44.9467 508.842 44.6C509.04 44.2533 509.309 43.9867 509.65 43.8C509.992 43.6133 510.373 43.52 510.794 43.52C511.216 43.52 511.597 43.6133 511.938 43.8C512.28 43.9867 512.549 44.2533 512.746 44.6C512.944 44.9467 513.042 45.344 513.042 45.792C513.042 46.24 512.941 46.6373 512.738 46.984C512.536 47.3307 512.258 47.6 511.906 47.792C511.56 47.9787 511.176 48.072 510.754 48.072ZM510.754 47.28C510.989 47.28 511.208 47.224 511.41 47.112C511.618 47 511.786 46.832 511.914 46.608C512.042 46.384 512.106 46.112 512.106 45.792C512.106 45.472 512.045 45.2027 511.922 44.984C511.8 44.76 511.637 44.592 511.434 44.48C511.232 44.368 511.013 44.312 510.778 44.312C510.544 44.312 510.325 44.368 510.122 44.48C509.925 44.592 509.768 44.76 509.65 44.984C509.533 45.2027 509.474 45.472 509.474 45.792C509.474 46.2667 509.594 46.6347 509.834 46.896C510.08 47.152 510.386 47.28 510.754 47.28ZM514.856 44.232C514.989 44.008 515.165 43.8347 515.384 43.712C515.608 43.584 515.872 43.52 516.176 43.52V44.464H515.944C515.586 44.464 515.314 44.5547 515.128 44.736C514.946 44.9173 514.856 45.232 514.856 45.68V48H513.944V43.592H514.856V44.232ZM420.432 60.056C420.059 60.056 419.723 59.992 419.424 59.864C419.125 59.7307 418.891 59.544 418.72 59.304C418.549 59.064 418.464 58.784 418.464 58.464H419.44C419.461 58.704 419.555 58.9013 419.72 59.056C419.891 59.2107 420.128 59.288 420.432 59.288C420.747 59.288 420.992 59.2133 421.168 59.064C421.344 58.9093 421.432 58.712 421.432 58.472C421.432 58.2853 421.376 58.1333 421.264 58.016C421.157 57.8987 421.021 57.808 420.856 57.744C420.696 57.68 420.472 57.6107 420.184 57.536C419.821 57.44 419.525 57.344 419.296 57.248C419.072 57.1467 418.88 56.992 418.72 56.784C418.56 56.576 418.48 56.2987 418.48 55.952C418.48 55.632 418.56 55.352 418.72 55.112C418.88 54.872 419.104 54.688 419.392 54.56C419.68 54.432 420.013 54.368 420.392 54.368C420.931 54.368 421.371 54.504 421.712 54.776C422.059 55.0427 422.251 55.4107 422.288 55.88H421.28C421.264 55.6773 421.168 55.504 420.992 55.36C420.816 55.216 420.584 55.144 420.296 55.144C420.035 55.144 419.821 55.2107 419.656 55.344C419.491 55.4773 419.408 55.6693 419.408 55.92C419.408 56.0907 419.459 56.232 419.56 56.344C419.667 56.4507 419.8 56.536 419.96 56.6C420.12 56.664 420.339 56.7333 420.616 56.808C420.984 56.9093 421.283 57.0107 421.512 57.112C421.747 57.2133 421.944 57.3707 422.104 57.584C422.269 57.792 422.352 58.072 422.352 58.424C422.352 58.7067 422.275 58.9733 422.12 59.224C421.971 59.4747 421.749 59.6773 421.456 59.832C421.168 59.9813 420.827 60.056 420.432 60.056ZM424.492 56.336V58.776C424.492 58.9413 424.529 59.0613 424.604 59.136C424.684 59.2053 424.817 59.24 425.004 59.24H425.564V60H424.844C424.433 60 424.119 59.904 423.9 59.712C423.681 59.52 423.572 59.208 423.572 58.776V56.336H423.052V55.592H423.572V54.496H424.492V55.592H425.564V56.336H424.492ZM427.317 56.232C427.45 56.008 427.626 55.8347 427.845 55.712C428.069 55.584 428.333 55.52 428.637 55.52V56.464H428.405C428.047 56.464 427.775 56.5547 427.589 56.736C427.407 56.9173 427.317 57.232 427.317 57.68V60H426.405V55.592H427.317V56.232ZM433.515 57.688C433.515 57.8533 433.504 58.0027 433.483 58.136H430.115C430.142 58.488 430.272 58.7707 430.507 58.984C430.742 59.1973 431.03 59.304 431.371 59.304C431.862 59.304 432.208 59.0987 432.411 58.688H433.395C433.262 59.0933 433.019 59.4267 432.667 59.688C432.32 59.944 431.888 60.072 431.371 60.072C430.95 60.072 430.571 59.9787 430.235 59.792C429.904 59.6 429.643 59.3333 429.451 58.992C429.264 58.6453 429.171 58.2453 429.171 57.792C429.171 57.3387 429.262 56.9413 429.443 56.6C429.63 56.2533 429.888 55.9867 430.219 55.8C430.555 55.6133 430.939 55.52 431.371 55.52C431.787 55.52 432.158 55.6107 432.483 55.792C432.808 55.9733 433.062 56.2293 433.243 56.56C433.424 56.8853 433.515 57.2613 433.515 57.688ZM432.563 57.4C432.558 57.064 432.438 56.7947 432.203 56.592C431.968 56.3893 431.678 56.288 431.331 56.288C431.016 56.288 430.747 56.3893 430.523 56.592C430.299 56.7893 430.166 57.0587 430.123 57.4H432.563ZM438.453 57.688C438.453 57.8533 438.442 58.0027 438.421 58.136H435.053C435.079 58.488 435.21 58.7707 435.445 58.984C435.679 59.1973 435.967 59.304 436.309 59.304C436.799 59.304 437.146 59.0987 437.349 58.688H438.332C438.199 59.0933 437.957 59.4267 437.605 59.688C437.258 59.944 436.826 60.072 436.309 60.072C435.887 60.072 435.509 59.9787 435.173 59.792C434.842 59.6 434.581 59.3333 434.389 58.992C434.202 58.6453 434.109 58.2453 434.109 57.792C434.109 57.3387 434.199 56.9413 434.381 56.6C434.567 56.2533 434.826 55.9867 435.157 55.8C435.493 55.6133 435.877 55.52 436.309 55.52C436.725 55.52 437.095 55.6107 437.421 55.792C437.746 55.9733 437.999 56.2293 438.181 56.56C438.362 56.8853 438.453 57.2613 438.453 57.688ZM437.501 57.4C437.495 57.064 437.375 56.7947 437.141 56.592C436.906 56.3893 436.615 56.288 436.269 56.288C435.954 56.288 435.685 56.3893 435.461 56.592C435.237 56.7893 435.103 57.0587 435.061 57.4H437.501ZM440.414 56.336V58.776C440.414 58.9413 440.451 59.0613 440.526 59.136C440.606 59.2053 440.739 59.24 440.926 59.24H441.486V60H440.766C440.355 60 440.041 59.904 439.822 59.712C439.603 59.52 439.494 59.208 439.494 58.776V56.336H438.974V55.592H439.494V54.496H440.414V55.592H441.486V56.336H440.414ZM448.973 60H448.061L445.317 55.848V60H444.405V54.432H445.317L448.061 58.576V54.432H448.973V60ZM452.082 60.072C451.666 60.072 451.29 59.9787 450.954 59.792C450.618 59.6 450.354 59.3333 450.162 58.992C449.97 58.6453 449.874 58.2453 449.874 57.792C449.874 57.344 449.973 56.9467 450.17 56.6C450.368 56.2533 450.637 55.9867 450.978 55.8C451.32 55.6133 451.701 55.52 452.122 55.52C452.544 55.52 452.925 55.6133 453.266 55.8C453.608 55.9867 453.877 56.2533 454.074 56.6C454.272 56.9467 454.37 57.344 454.37 57.792C454.37 58.24 454.269 58.6373 454.066 58.984C453.864 59.3307 453.586 59.6 453.234 59.792C452.888 59.9787 452.504 60.072 452.082 60.072ZM452.082 59.28C452.317 59.28 452.536 59.224 452.738 59.112C452.946 59 453.114 58.832 453.242 58.608C453.37 58.384 453.434 58.112 453.434 57.792C453.434 57.472 453.373 57.2027 453.25 56.984C453.128 56.76 452.965 56.592 452.762 56.48C452.56 56.368 452.341 56.312 452.106 56.312C451.872 56.312 451.653 56.368 451.45 56.48C451.253 56.592 451.096 56.76 450.978 56.984C450.861 57.2027 450.802 57.472 450.802 57.792C450.802 58.2667 450.922 58.6347 451.162 58.896C451.408 59.152 451.714 59.28 452.082 59.28ZM455.64 60.056C455.475 60.056 455.336 60 455.224 59.888C455.112 59.776 455.056 59.6373 455.056 59.472C455.056 59.3067 455.112 59.168 455.224 59.056C455.336 58.944 455.475 58.888 455.64 58.888C455.8 58.888 455.936 58.944 456.048 59.056C456.16 59.168 456.216 59.3067 456.216 59.472C456.216 59.6373 456.16 59.776 456.048 59.888C455.936 60 455.8 60.056 455.64 60.056ZM455.64 56.696C455.475 56.696 455.336 56.64 455.224 56.528C455.112 56.416 455.056 56.2773 455.056 56.112C455.056 55.9467 455.112 55.808 455.224 55.696C455.336 55.584 455.475 55.528 455.64 55.528C455.8 55.528 455.936 55.584 456.048 55.696C456.16 55.808 456.216 55.9467 456.216 56.112C456.216 56.2773 456.16 56.416 456.048 56.528C455.936 56.64 455.8 56.696 455.64 56.696ZM459.071 55V54.168H460.735V60H459.815V55H459.071ZM465.748 54.952H463.068V56.544C463.18 56.3947 463.345 56.2693 463.564 56.168C463.788 56.0667 464.025 56.016 464.276 56.016C464.724 56.016 465.086 56.112 465.364 56.304C465.646 56.496 465.846 56.7387 465.964 57.032C466.086 57.3253 466.148 57.6347 466.148 57.96C466.148 58.3547 466.07 58.7067 465.916 59.016C465.766 59.32 465.54 59.56 465.236 59.736C464.937 59.912 464.569 60 464.132 60C463.55 60 463.084 59.856 462.732 59.568C462.38 59.28 462.169 58.8987 462.1 58.424H462.988C463.046 58.6747 463.177 58.8747 463.38 59.024C463.582 59.168 463.836 59.24 464.14 59.24C464.518 59.24 464.801 59.1253 464.988 58.896C465.18 58.6667 465.276 58.3627 465.276 57.984C465.276 57.6 465.18 57.3067 464.988 57.104C464.796 56.896 464.513 56.792 464.14 56.792C463.878 56.792 463.657 56.8587 463.476 56.992C463.3 57.12 463.172 57.296 463.092 57.52H462.228V54.152H465.748V54.952ZM467.097 57.008C467.097 56.0853 467.252 55.3653 467.561 54.848C467.876 54.3253 468.415 54.064 469.177 54.064C469.94 54.064 470.476 54.3253 470.785 54.848C471.1 55.3653 471.257 56.0853 471.257 57.008C471.257 57.9413 471.1 58.672 470.785 59.2C470.476 59.7227 469.94 59.984 469.177 59.984C468.415 59.984 467.876 59.7227 467.561 59.2C467.252 58.672 467.097 57.9413 467.097 57.008ZM470.361 57.008C470.361 56.576 470.332 56.2107 470.273 55.912C470.22 55.6133 470.108 55.3707 469.937 55.184C469.767 54.992 469.513 54.896 469.177 54.896C468.841 54.896 468.588 54.992 468.417 55.184C468.247 55.3707 468.132 55.6133 468.073 55.912C468.02 56.2107 467.993 56.576 467.993 57.008C467.993 57.456 468.02 57.832 468.073 58.136C468.127 58.44 468.239 58.6853 468.409 58.872C468.585 59.0587 468.841 59.152 469.177 59.152C469.513 59.152 469.767 59.0587 469.937 58.872C470.113 58.6853 470.228 58.44 470.281 58.136C470.335 57.832 470.361 57.456 470.361 57.008ZM473.342 58.904L472.374 61.112H471.782L472.35 58.904H473.342ZM477.097 59.208H479.681V60H476.017V59.288L478.593 55.232H476.017V54.44H479.681V55.152L477.097 59.208ZM482.59 60.072C482.174 60.072 481.798 59.9787 481.462 59.792C481.126 59.6 480.862 59.3333 480.67 58.992C480.478 58.6453 480.382 58.2453 480.382 57.792C480.382 57.344 480.481 56.9467 480.678 56.6C480.875 56.2533 481.145 55.9867 481.486 55.8C481.827 55.6133 482.209 55.52 482.63 55.52C483.051 55.52 483.433 55.6133 483.774 55.8C484.115 55.9867 484.385 56.2533 484.582 56.6C484.779 56.9467 484.878 57.344 484.878 57.792C484.878 58.24 484.777 58.6373 484.574 58.984C484.371 59.3307 484.094 59.6 483.742 59.792C483.395 59.9787 483.011 60.072 482.59 60.072ZM482.59 59.28C482.825 59.28 483.043 59.224 483.246 59.112C483.454 59 483.622 58.832 483.75 58.608C483.878 58.384 483.942 58.112 483.942 57.792C483.942 57.472 483.881 57.2027 483.758 56.984C483.635 56.76 483.473 56.592 483.27 56.48C483.067 56.368 482.849 56.312 482.614 56.312C482.379 56.312 482.161 56.368 481.958 56.48C481.761 56.592 481.603 56.76 481.486 56.984C481.369 57.2027 481.31 57.472 481.31 57.792C481.31 58.2667 481.43 58.6347 481.67 58.896C481.915 59.152 482.222 59.28 482.59 59.28ZM488.004 55.52C488.35 55.52 488.66 55.592 488.932 55.736C489.209 55.88 489.425 56.0933 489.58 56.376C489.734 56.6587 489.812 57 489.812 57.4V60H488.908V57.536C488.908 57.1413 488.809 56.84 488.612 56.632C488.414 56.4187 488.145 56.312 487.804 56.312C487.462 56.312 487.19 56.4187 486.988 56.632C486.79 56.84 486.692 57.1413 486.692 57.536V60H485.78V55.592H486.692V56.096C486.841 55.9147 487.03 55.7733 487.26 55.672C487.494 55.5707 487.742 55.52 488.004 55.52ZM495.015 57.688C495.015 57.8533 495.004 58.0027 494.983 58.136H491.615C491.642 58.488 491.772 58.7707 492.007 58.984C492.242 59.1973 492.53 59.304 492.871 59.304C493.362 59.304 493.708 59.0987 493.911 58.688H494.895C494.762 59.0933 494.519 59.4267 494.167 59.688C493.82 59.944 493.388 60.072 492.871 60.072C492.45 60.072 492.071 59.9787 491.735 59.792C491.404 59.6 491.143 59.3333 490.951 58.992C490.764 58.6453 490.671 58.2453 490.671 57.792C490.671 57.3387 490.762 56.9413 490.943 56.6C491.13 56.2533 491.388 55.9867 491.719 55.8C492.055 55.6133 492.439 55.52 492.871 55.52C493.287 55.52 493.658 55.6107 493.983 55.792C494.308 55.9733 494.562 56.2293 494.743 56.56C494.924 56.8853 495.015 57.2613 495.015 57.688ZM494.063 57.4C494.058 57.064 493.938 56.7947 493.703 56.592C493.468 56.3893 493.178 56.288 492.831 56.288C492.516 56.288 492.247 56.3893 492.023 56.592C491.799 56.7893 491.666 57.0587 491.623 57.4H494.063ZM496.281 60.056C496.115 60.056 495.977 60 495.865 59.888C495.753 59.776 495.697 59.6373 495.697 59.472C495.697 59.3067 495.753 59.168 495.865 59.056C495.977 58.944 496.115 58.888 496.281 58.888C496.441 58.888 496.577 58.944 496.689 59.056C496.801 59.168 496.857 59.3067 496.857 59.472C496.857 59.6373 496.801 59.776 496.689 59.888C496.577 60 496.441 60.056 496.281 60.056ZM496.281 56.696C496.115 56.696 495.977 56.64 495.865 56.528C495.753 56.416 495.697 56.2773 495.697 56.112C495.697 55.9467 495.753 55.808 495.865 55.696C495.977 55.584 496.115 55.528 496.281 55.528C496.441 55.528 496.577 55.584 496.689 55.696C496.801 55.808 496.857 55.9467 496.857 56.112C496.857 56.2773 496.801 56.416 496.689 56.528C496.577 56.64 496.441 56.696 496.281 56.696ZM499.816 55.608C499.848 55.112 500.037 54.7253 500.384 54.448C500.736 54.1707 501.184 54.032 501.728 54.032C502.101 54.032 502.424 54.0987 502.696 54.232C502.968 54.3653 503.173 54.5467 503.312 54.776C503.45 55.0053 503.52 55.264 503.52 55.552C503.52 55.8827 503.432 56.1653 503.256 56.4C503.08 56.6347 502.869 56.792 502.624 56.872V56.904C502.938 57 503.184 57.176 503.36 57.432C503.536 57.6827 503.624 58.0053 503.624 58.4C503.624 58.7147 503.552 58.9947 503.408 59.24C503.264 59.4853 503.05 59.68 502.768 59.824C502.485 59.9627 502.146 60.032 501.752 60.032C501.176 60.032 500.701 59.8853 500.328 59.592C499.96 59.2933 499.762 58.8667 499.736 58.312H500.616C500.637 58.5947 500.746 58.8267 500.944 59.008C501.141 59.184 501.408 59.272 501.744 59.272C502.069 59.272 502.32 59.184 502.496 59.008C502.672 58.8267 502.76 58.5947 502.76 58.312C502.76 57.9387 502.64 57.6747 502.4 57.52C502.165 57.36 501.802 57.28 501.312 57.28H501.104V56.528H501.32C501.752 56.5227 502.08 56.4507 502.304 56.312C502.533 56.1733 502.648 55.9547 502.648 55.656C502.648 55.4 502.565 55.1973 502.4 55.048C502.234 54.8933 502 54.816 501.696 54.816C501.397 54.816 501.165 54.8933 501 55.048C500.834 55.1973 500.736 55.384 500.704 55.608H499.816ZM505.566 56.952C505.011 56.6747 504.734 56.2373 504.734 55.64C504.734 55.352 504.806 55.088 504.95 54.848C505.094 54.608 505.31 54.4187 505.598 54.28C505.886 54.136 506.238 54.064 506.654 54.064C507.064 54.064 507.414 54.136 507.702 54.28C507.995 54.4187 508.214 54.608 508.358 54.848C508.502 55.088 508.574 55.352 508.574 55.64C508.574 55.9387 508.496 56.2027 508.342 56.432C508.192 56.656 507.992 56.8293 507.742 56.952C508.046 57.064 508.286 57.248 508.462 57.504C508.638 57.7547 508.726 58.0507 508.726 58.392C508.726 58.7387 508.638 59.0453 508.462 59.312C508.286 59.5787 508.04 59.784 507.726 59.928C507.411 60.072 507.054 60.144 506.654 60.144C506.254 60.144 505.896 60.072 505.582 59.928C505.272 59.784 505.03 59.5787 504.854 59.312C504.678 59.0453 504.59 58.7387 504.59 58.392C504.59 58.0453 504.678 57.7467 504.854 57.496C505.03 57.2453 505.267 57.064 505.566 56.952ZM507.702 55.752C507.702 55.4533 507.608 55.224 507.422 55.064C507.235 54.904 506.979 54.824 506.654 54.824C506.334 54.824 506.08 54.904 505.894 55.064C505.707 55.224 505.614 55.456 505.614 55.76C505.614 56.0267 505.71 56.2453 505.902 56.416C506.099 56.5813 506.35 56.664 506.654 56.664C506.958 56.664 507.208 56.5787 507.406 56.408C507.603 56.2373 507.702 56.0187 507.702 55.752ZM506.654 57.352C506.302 57.352 506.014 57.44 505.79 57.616C505.571 57.7867 505.462 58.0347 505.462 58.36C505.462 58.664 505.568 58.912 505.782 59.104C505.995 59.2907 506.286 59.384 506.654 59.384C507.016 59.384 507.302 59.288 507.51 59.096C507.723 58.904 507.83 58.6587 507.83 58.36C507.83 58.04 507.72 57.792 507.502 57.616C507.288 57.44 507.006 57.352 506.654 57.352ZM510.803 58.904L509.835 61.112H509.243L509.811 58.904H510.803ZM420.416 66.44C421.008 66.44 421.525 66.5547 421.968 66.784C422.416 67.008 422.76 67.3333 423 67.76C423.245 68.1813 423.368 68.6747 423.368 69.24C423.368 69.8053 423.245 70.296 423 70.712C422.76 71.128 422.416 71.448 421.968 71.672C421.525 71.8907 421.008 72 420.416 72H418.6V66.44H420.416ZM420.416 71.256C421.067 71.256 421.565 71.08 421.912 70.728C422.259 70.376 422.432 69.88 422.432 69.24C422.432 68.5947 422.259 68.0907 421.912 67.728C421.565 67.3653 421.067 67.184 420.416 67.184H419.512V71.256H420.416ZM426.184 72.072C425.768 72.072 425.392 71.9787 425.056 71.792C424.72 71.6 424.456 71.3333 424.264 70.992C424.072 70.6453 423.976 70.2453 423.976 69.792C423.976 69.344 424.075 68.9467 424.272 68.6C424.469 68.2533 424.739 67.9867 425.08 67.8C425.421 67.6133 425.803 67.52 426.224 67.52C426.645 67.52 427.027 67.6133 427.368 67.8C427.709 67.9867 427.979 68.2533 428.176 68.6C428.373 68.9467 428.472 69.344 428.472 69.792C428.472 70.24 428.371 70.6373 428.168 70.984C427.965 71.3307 427.688 71.6 427.336 71.792C426.989 71.9787 426.605 72.072 426.184 72.072ZM426.184 71.28C426.419 71.28 426.637 71.224 426.84 71.112C427.048 71 427.216 70.832 427.344 70.608C427.472 70.384 427.536 70.112 427.536 69.792C427.536 69.472 427.475 69.2027 427.352 68.984C427.229 68.76 427.067 68.592 426.864 68.48C426.661 68.368 426.443 68.312 426.208 68.312C425.973 68.312 425.755 68.368 425.552 68.48C425.355 68.592 425.197 68.76 425.08 68.984C424.963 69.2027 424.904 69.472 424.904 69.792C424.904 70.2667 425.024 70.6347 425.264 70.896C425.509 71.152 425.816 71.28 426.184 71.28ZM431.653 67.52C431.989 67.52 432.288 67.592 432.549 67.736C432.816 67.88 433.024 68.0933 433.173 68.376C433.328 68.6587 433.405 69 433.405 69.4V72H432.501V69.536C432.501 69.1413 432.403 68.84 432.205 68.632C432.008 68.4187 431.739 68.312 431.397 68.312C431.056 68.312 430.784 68.4187 430.581 68.632C430.384 68.84 430.285 69.1413 430.285 69.536V72H429.373V66.08H430.285V68.104C430.44 67.9173 430.635 67.7733 430.869 67.672C431.109 67.5707 431.371 67.52 431.653 67.52ZM434.265 69.776C434.265 69.3333 434.355 68.9413 434.537 68.6C434.723 68.2587 434.974 67.9947 435.289 67.808C435.609 67.616 435.961 67.52 436.345 67.52C436.691 67.52 436.993 67.5893 437.249 67.728C437.51 67.8613 437.718 68.0293 437.873 68.232V67.592H438.793V72H437.873V71.344C437.718 71.552 437.507 71.7253 437.241 71.864C436.974 72.0027 436.67 72.072 436.329 72.072C435.95 72.072 435.603 71.976 435.289 71.784C434.974 71.5867 434.723 71.3147 434.537 70.968C434.355 70.616 434.265 70.2187 434.265 69.776ZM437.873 69.792C437.873 69.488 437.809 69.224 437.681 69C437.558 68.776 437.395 68.6053 437.193 68.488C436.99 68.3707 436.771 68.312 436.537 68.312C436.302 68.312 436.083 68.3707 435.881 68.488C435.678 68.6 435.513 68.768 435.385 68.992C435.262 69.2107 435.201 69.472 435.201 69.776C435.201 70.08 435.262 70.3467 435.385 70.576C435.513 70.8053 435.678 70.9813 435.881 71.104C436.089 71.2213 436.307 71.28 436.537 71.28C436.771 71.28 436.99 71.2213 437.193 71.104C437.395 70.9867 437.558 70.816 437.681 70.592C437.809 70.3627 437.873 70.096 437.873 69.792ZM443.375 68.72V69.488H440.087V68.72H443.375ZM448.974 73.008L447.998 71.952C447.758 72.0213 447.494 72.056 447.206 72.056C446.689 72.056 446.212 71.936 445.774 71.696C445.342 71.4507 444.998 71.112 444.742 70.68C444.492 70.2427 444.366 69.752 444.366 69.208C444.366 68.664 444.492 68.176 444.742 67.744C444.998 67.312 445.342 66.976 445.774 66.736C446.212 66.4907 446.689 66.368 447.206 66.368C447.729 66.368 448.206 66.4907 448.638 66.736C449.076 66.976 449.42 67.312 449.67 67.744C449.921 68.176 450.046 68.664 450.046 69.208C450.046 69.72 449.934 70.184 449.71 70.6C449.492 71.0107 449.188 71.3413 448.798 71.592L450.134 73.008H448.974ZM445.302 69.208C445.302 69.6187 445.382 69.9813 445.542 70.296C445.708 70.6053 445.934 70.8453 446.222 71.016C446.51 71.1813 446.838 71.264 447.206 71.264C447.574 71.264 447.902 71.1813 448.19 71.016C448.478 70.8453 448.702 70.6053 448.862 70.296C449.028 69.9813 449.11 69.6187 449.11 69.208C449.11 68.7973 449.028 68.4373 448.862 68.128C448.702 67.8187 448.478 67.5813 448.19 67.416C447.902 67.2507 447.574 67.168 447.206 67.168C446.838 67.168 446.51 67.2507 446.222 67.416C445.934 67.5813 445.708 67.8187 445.542 68.128C445.382 68.4373 445.302 68.7973 445.302 69.208ZM450.663 69.776C450.663 69.3333 450.754 68.9413 450.935 68.6C451.122 68.2587 451.373 67.9947 451.687 67.808C452.007 67.616 452.359 67.52 452.743 67.52C453.09 67.52 453.391 67.5893 453.647 67.728C453.909 67.8613 454.117 68.0293 454.271 68.232V67.592H455.191V72H454.271V71.344C454.117 71.552 453.906 71.7253 453.639 71.864C453.373 72.0027 453.069 72.072 452.727 72.072C452.349 72.072 452.002 71.976 451.687 71.784C451.373 71.5867 451.122 71.3147 450.935 70.968C450.754 70.616 450.663 70.2187 450.663 69.776ZM454.271 69.792C454.271 69.488 454.207 69.224 454.079 69C453.957 68.776 453.794 68.6053 453.591 68.488C453.389 68.3707 453.17 68.312 452.935 68.312C452.701 68.312 452.482 68.3707 452.279 68.488C452.077 68.6 451.911 68.768 451.783 68.992C451.661 69.2107 451.599 69.472 451.599 69.776C451.599 70.08 451.661 70.3467 451.783 70.576C451.911 70.8053 452.077 70.9813 452.279 71.104C452.487 71.2213 452.706 71.28 452.935 71.28C453.17 71.28 453.389 71.2213 453.591 71.104C453.794 70.9867 453.957 70.816 454.079 70.592C454.207 70.3627 454.271 70.096 454.271 69.792ZM457.453 68.336V70.776C457.453 70.9413 457.49 71.0613 457.565 71.136C457.645 71.2053 457.778 71.24 457.965 71.24H458.525V72H457.805C457.394 72 457.08 71.904 456.861 71.712C456.642 71.52 456.533 71.208 456.533 70.776V68.336H456.013V67.592H456.533V66.496H457.453V67.592H458.525V68.336H457.453ZM459.062 69.776C459.062 69.3333 459.152 68.9413 459.334 68.6C459.52 68.2587 459.771 67.9947 460.086 67.808C460.406 67.616 460.758 67.52 461.142 67.52C461.488 67.52 461.79 67.5893 462.046 67.728C462.307 67.8613 462.515 68.0293 462.67 68.232V67.592H463.59V72H462.67V71.344C462.515 71.552 462.304 71.7253 462.038 71.864C461.771 72.0027 461.467 72.072 461.126 72.072C460.747 72.072 460.4 71.976 460.086 71.784C459.771 71.5867 459.52 71.3147 459.334 70.968C459.152 70.616 459.062 70.2187 459.062 69.776ZM462.67 69.792C462.67 69.488 462.606 69.224 462.478 69C462.355 68.776 462.192 68.6053 461.99 68.488C461.787 68.3707 461.568 68.312 461.334 68.312C461.099 68.312 460.88 68.3707 460.678 68.488C460.475 68.6 460.31 68.768 460.182 68.992C460.059 69.2107 459.998 69.472 459.998 69.776C459.998 70.08 460.059 70.3467 460.182 70.576C460.31 70.8053 460.475 70.9813 460.678 71.104C460.886 71.2213 461.104 71.28 461.334 71.28C461.568 71.28 461.787 71.2213 461.99 71.104C462.192 70.9867 462.355 70.816 462.478 70.592C462.606 70.3627 462.67 70.096 462.67 69.792ZM465.7 68.232C465.833 68.008 466.009 67.8347 466.228 67.712C466.452 67.584 466.716 67.52 467.02 67.52V68.464H466.788C466.43 68.464 466.158 68.5547 465.972 68.736C465.79 68.9173 465.7 69.232 465.7 69.68V72H464.788V67.592H465.7V68.232ZM418.296 81.208C418.296 80.664 418.421 80.176 418.672 79.744C418.928 79.312 419.272 78.976 419.704 78.736C420.141 78.4907 420.619 78.368 421.136 78.368C421.728 78.368 422.253 78.5147 422.712 78.808C423.176 79.096 423.512 79.5067 423.72 80.04H422.624C422.48 79.7467 422.28 79.528 422.024 79.384C421.768 79.24 421.472 79.168 421.136 79.168C420.768 79.168 420.44 79.2507 420.152 79.416C419.864 79.5813 419.637 79.8187 419.472 80.128C419.312 80.4373 419.232 80.7973 419.232 81.208C419.232 81.6187 419.312 81.9787 419.472 82.288C419.637 82.5973 419.864 82.8373 420.152 83.008C420.44 83.1733 420.768 83.256 421.136 83.256C421.472 83.256 421.768 83.184 422.024 83.04C422.28 82.896 422.48 82.6773 422.624 82.384H423.72C423.512 82.9173 423.176 83.328 422.712 83.616C422.253 83.904 421.728 84.048 421.136 84.048C420.613 84.048 420.136 83.928 419.704 83.688C419.272 83.4427 418.928 83.104 418.672 82.672C418.421 82.24 418.296 81.752 418.296 81.208ZM425.156 84.056C424.99 84.056 424.852 84 424.74 83.888C424.628 83.776 424.572 83.6373 424.572 83.472C424.572 83.3067 424.628 83.168 424.74 83.056C424.852 82.944 424.99 82.888 425.156 82.888C425.316 82.888 425.452 82.944 425.564 83.056C425.676 83.168 425.732 83.3067 425.732 83.472C425.732 83.6373 425.676 83.776 425.564 83.888C425.452 84 425.316 84.056 425.156 84.056ZM429.605 84L428.325 81.776H427.629V84H426.717V78.44H428.637C429.064 78.44 429.424 78.5147 429.717 78.664C430.016 78.8133 430.237 79.0133 430.381 79.264C430.531 79.5147 430.605 79.7947 430.605 80.104C430.605 80.4667 430.499 80.7973 430.285 81.096C430.077 81.3893 429.755 81.5893 429.317 81.696L430.693 84H429.605ZM427.629 81.048H428.637C428.979 81.048 429.235 80.9627 429.405 80.792C429.581 80.6213 429.669 80.392 429.669 80.104C429.669 79.816 429.584 79.592 429.413 79.432C429.243 79.2667 428.984 79.184 428.637 79.184H427.629V81.048ZM432.14 84.056C431.975 84.056 431.836 84 431.724 83.888C431.612 83.776 431.556 83.6373 431.556 83.472C431.556 83.3067 431.612 83.168 431.724 83.056C431.836 82.944 431.975 82.888 432.14 82.888C432.3 82.888 432.436 82.944 432.548 83.056C432.66 83.168 432.716 83.3067 432.716 83.472C432.716 83.6373 432.66 83.776 432.548 83.888C432.436 84 432.3 84.056 432.14 84.056ZM440.348 84H439.436L436.692 79.848V84H435.78V78.432H436.692L439.436 82.576V78.432H440.348V84ZM443.457 84.072C443.041 84.072 442.665 83.9787 442.329 83.792C441.993 83.6 441.729 83.3333 441.537 82.992C441.345 82.6453 441.249 82.2453 441.249 81.792C441.249 81.344 441.348 80.9467 441.545 80.6C441.743 80.2533 442.012 79.9867 442.353 79.8C442.695 79.6133 443.076 79.52 443.497 79.52C443.919 79.52 444.3 79.6133 444.641 79.8C444.983 79.9867 445.252 80.2533 445.449 80.6C445.647 80.9467 445.745 81.344 445.745 81.792C445.745 82.24 445.644 82.6373 445.441 82.984C445.239 83.3307 444.961 83.6 444.609 83.792C444.263 83.9787 443.879 84.072 443.457 84.072ZM443.457 83.28C443.692 83.28 443.911 83.224 444.113 83.112C444.321 83 444.489 82.832 444.617 82.608C444.745 82.384 444.809 82.112 444.809 81.792C444.809 81.472 444.748 81.2027 444.625 80.984C444.503 80.76 444.34 80.592 444.137 80.48C443.935 80.368 443.716 80.312 443.481 80.312C443.247 80.312 443.028 80.368 442.825 80.48C442.628 80.592 442.471 80.76 442.353 80.984C442.236 81.2027 442.177 81.472 442.177 81.792C442.177 82.2667 442.297 82.6347 442.537 82.896C442.783 83.152 443.089 83.28 443.457 83.28ZM447.015 84.056C446.85 84.056 446.711 84 446.599 83.888C446.487 83.776 446.431 83.6373 446.431 83.472C446.431 83.3067 446.487 83.168 446.599 83.056C446.711 82.944 446.85 82.888 447.015 82.888C447.175 82.888 447.311 82.944 447.423 83.056C447.535 83.168 447.591 83.3067 447.591 83.472C447.591 83.6373 447.535 83.776 447.423 83.888C447.311 84 447.175 84.056 447.015 84.056ZM447.015 80.696C446.85 80.696 446.711 80.64 446.599 80.528C446.487 80.416 446.431 80.2773 446.431 80.112C446.431 79.9467 446.487 79.808 446.599 79.696C446.711 79.584 446.85 79.528 447.015 79.528C447.175 79.528 447.311 79.584 447.423 79.696C447.535 79.808 447.591 79.9467 447.591 80.112C447.591 80.2773 447.535 80.416 447.423 80.528C447.311 80.64 447.175 80.696 447.015 80.696ZM451.07 82.76C451.582 82.3173 451.985 81.9547 452.278 81.672C452.577 81.384 452.825 81.0853 453.022 80.776C453.219 80.4667 453.318 80.1573 453.318 79.848C453.318 79.528 453.241 79.2773 453.086 79.096C452.937 78.9147 452.699 78.824 452.374 78.824C452.059 78.824 451.814 78.9253 451.638 79.128C451.467 79.3253 451.377 79.592 451.366 79.928H450.486C450.502 79.32 450.683 78.856 451.03 78.536C451.382 78.2107 451.827 78.048 452.366 78.048C452.947 78.048 453.401 78.208 453.726 78.528C454.057 78.848 454.222 79.2747 454.222 79.808C454.222 80.192 454.123 80.5627 453.926 80.92C453.734 81.272 453.502 81.5893 453.23 81.872C452.963 82.1493 452.622 82.472 452.206 82.84L451.846 83.16H454.382V83.92H450.494V83.256L451.07 82.76ZM455.183 81.008C455.183 80.0853 455.338 79.3653 455.647 78.848C455.962 78.3253 456.5 78.064 457.263 78.064C458.026 78.064 458.562 78.3253 458.871 78.848C459.186 79.3653 459.343 80.0853 459.343 81.008C459.343 81.9413 459.186 82.672 458.871 83.2C458.562 83.7227 458.026 83.984 457.263 83.984C456.5 83.984 455.962 83.7227 455.647 83.2C455.338 82.672 455.183 81.9413 455.183 81.008ZM458.447 81.008C458.447 80.576 458.418 80.2107 458.359 79.912C458.306 79.6133 458.194 79.3707 458.023 79.184C457.852 78.992 457.599 78.896 457.263 78.896C456.927 78.896 456.674 78.992 456.503 79.184C456.332 79.3707 456.218 79.6133 456.159 79.912C456.106 80.2107 456.079 80.576 456.079 81.008C456.079 81.456 456.106 81.832 456.159 82.136C456.212 82.44 456.324 82.6853 456.495 82.872C456.671 83.0587 456.927 83.152 457.263 83.152C457.599 83.152 457.852 83.0587 458.023 82.872C458.199 82.6853 458.314 82.44 458.367 82.136C458.42 81.832 458.447 81.456 458.447 81.008ZM460.308 81.008C460.308 80.0853 460.463 79.3653 460.772 78.848C461.087 78.3253 461.625 78.064 462.388 78.064C463.151 78.064 463.687 78.3253 463.996 78.848C464.311 79.3653 464.468 80.0853 464.468 81.008C464.468 81.9413 464.311 82.672 463.996 83.2C463.687 83.7227 463.151 83.984 462.388 83.984C461.625 83.984 461.087 83.7227 460.772 83.2C460.463 82.672 460.308 81.9413 460.308 81.008ZM463.572 81.008C463.572 80.576 463.543 80.2107 463.484 79.912C463.431 79.6133 463.319 79.3707 463.148 79.184C462.977 78.992 462.724 78.896 462.388 78.896C462.052 78.896 461.799 78.992 461.628 79.184C461.457 79.3707 461.343 79.6133 461.284 79.912C461.231 80.2107 461.204 80.576 461.204 81.008C461.204 81.456 461.231 81.832 461.284 82.136C461.337 82.44 461.449 82.6853 461.62 82.872C461.796 83.0587 462.052 83.152 462.388 83.152C462.724 83.152 462.977 83.0587 463.148 82.872C463.324 82.6853 463.439 82.44 463.492 82.136C463.545 81.832 463.572 81.456 463.572 81.008ZM465.321 82.784V82.096L468.009 78.24H469.113V81.992H469.857V82.784H469.113V84H468.217V82.784H465.321ZM468.257 79.168L466.369 81.992H468.257V79.168ZM470.501 82.784V82.096L473.189 78.24H474.293V81.992H475.037V82.784H474.293V84H473.397V82.784H470.501ZM473.437 79.168L471.549 81.992H473.437V79.168ZM478.929 79.52C478.87 79.2747 478.763 79.0907 478.609 78.968C478.454 78.8453 478.238 78.784 477.961 78.784C477.539 78.784 477.225 78.9467 477.017 79.272C476.809 79.592 476.699 80.1253 476.689 80.872C476.827 80.6373 477.03 80.456 477.297 80.328C477.563 80.2 477.851 80.136 478.161 80.136C478.513 80.136 478.822 80.2133 479.089 80.368C479.361 80.5173 479.571 80.736 479.72 81.024C479.875 81.312 479.953 81.656 479.953 82.056C479.953 82.4293 479.878 82.7627 479.729 83.056C479.585 83.3493 479.369 83.5813 479.081 83.752C478.793 83.9173 478.446 84 478.041 84C477.491 84 477.059 83.88 476.745 83.64C476.435 83.3947 476.217 83.0507 476.089 82.608C475.966 82.1653 475.905 81.6133 475.905 80.952C475.905 79 476.593 78.024 477.969 78.024C478.502 78.024 478.921 78.168 479.225 78.456C479.534 78.744 479.715 79.0987 479.769 79.52H478.929ZM477.961 80.904C477.635 80.904 477.358 81.0027 477.129 81.2C476.905 81.392 476.793 81.672 476.793 82.04C476.793 82.408 476.897 82.7013 477.105 82.92C477.318 83.1333 477.614 83.24 477.993 83.24C478.329 83.24 478.593 83.136 478.785 82.928C478.982 82.72 479.081 82.4427 479.081 82.096C479.081 81.7333 478.985 81.4453 478.793 81.232C478.606 81.0133 478.329 80.904 477.961 80.904Z" fill="white"/>
</g>
<defs>
<clipPath id="clip0_1117_12">
<rect width="595" height="99" fill="white"/>
</clipPath>
<clipPath id="clip1_1117_12">
<rect width="12" height="12" fill="white" transform="translate(400 41)"/>
</clipPath>
</defs>
</svg>
