<svg width="80" height="80" viewBox="0 0 80 80" fill="none" xmlns="http://www.w3.org/2000/svg">
<g clip-path="url(#clip0_1040_1045)">
<path d="M25.0937 -0.0439761C25.2941 -0.0449045 25.4946 -0.045833 25.7012 -0.0467896C26.2566 -0.0493046 26.812 -0.0498703 27.3675 -0.0501013C27.9669 -0.0506808 28.5664 -0.05304 29.1658 -0.0551436C30.4762 -0.0593837 31.7866 -0.0612704 33.097 -0.0626469C33.9157 -0.063511 34.7344 -0.0648353 35.553 -0.066242C37.821 -0.0700516 40.0889 -0.0732702 42.3569 -0.0743279C42.502 -0.0743965 42.647 -0.0744652 42.7965 -0.0745359C42.942 -0.0746041 43.0874 -0.0746723 43.2372 -0.0747426C43.5319 -0.0748811 43.8266 -0.0750207 44.1213 -0.0751612C44.2674 -0.0752304 44.4136 -0.0752996 44.5642 -0.0753709C46.9318 -0.0766042 49.2993 -0.0820574 51.6669 -0.0893361C54.0992 -0.0967536 56.5316 -0.100641 58.964 -0.101005C60.3291 -0.101292 61.694 -0.103079 63.0591 -0.108762C64.2216 -0.113584 65.3841 -0.115169 66.5467 -0.112593C67.1393 -0.111376 67.7319 -0.111647 68.3246 -0.116049C68.9685 -0.120788 69.6122 -0.118187 70.2561 -0.114929C70.4415 -0.117447 70.6269 -0.119965 70.8179 -0.122559C72.2509 -0.105657 73.4453 0.286992 74.5549 1.22001C75.9657 2.70122 76.0291 4.39821 76.0201 6.34366C76.0211 6.60643 76.0224 6.8692 76.024 7.13197C76.0275 7.85111 76.0271 8.5702 76.0261 9.28935C76.0257 10.066 76.0288 10.8427 76.0314 11.6194C76.036 13.1396 76.0372 14.6599 76.037 16.1801C76.0368 17.4157 76.0378 18.6512 76.0394 19.8867C76.0445 23.7718 76.0459 27.6569 76.0446 31.5419C76.0436 34.6071 76.0484 37.6721 76.0557 40.7372C76.0633 43.8851 76.0667 47.0329 76.0658 50.1808C76.0655 51.9479 76.0667 53.7149 76.0723 55.482C76.077 56.9858 76.0779 58.4896 76.0739 59.9934C76.0719 60.7607 76.0717 61.5278 76.0763 62.2951C76.0805 62.9976 76.0796 63.6998 76.0746 64.4023C76.0737 64.6563 76.0747 64.9103 76.0777 65.1643C76.1011 67.2972 76.1011 67.2972 75.4169 68.0923C75.2301 68.2641 75.039 68.4315 74.8438 68.5937C74.6566 68.7842 74.4709 68.9761 74.2873 69.17C74.0892 69.369 73.8907 69.5676 73.6918 69.7658C73.5278 69.9303 73.5278 69.9303 73.3604 70.0981C73.003 70.4562 72.645 70.8137 72.287 71.1712C72.0371 71.4212 71.7872 71.6713 71.5373 71.9214C71.0157 72.4431 70.4939 72.9646 69.9719 73.4859C69.3018 74.1551 68.6324 74.825 67.9632 75.4951C67.4484 76.0105 66.9332 76.5256 66.4179 77.0405C66.1707 77.2875 65.9237 77.5346 65.6768 77.7819C65.3331 78.126 64.9889 78.4696 64.6446 78.813C64.5423 78.9157 64.4399 79.0184 64.3344 79.1242C64.1942 79.2638 64.1942 79.2638 64.0511 79.4062C63.9698 79.4874 63.8886 79.5686 63.8049 79.6522C63.4155 80.0053 63.1289 80.0197 62.6201 80.0209C62.4805 80.0216 62.341 80.0223 62.1972 80.023C61.9658 80.0229 61.9658 80.0229 61.7297 80.0229C61.5666 80.0235 61.4034 80.0241 61.2353 80.0247C60.685 80.0264 60.1347 80.027 59.5844 80.0276C59.1912 80.0285 58.7981 80.0296 58.405 80.0307C57.2223 80.0337 56.0396 80.0353 54.8569 80.0367C54.2999 80.0374 53.7428 80.0383 53.1858 80.0391C51.3337 80.0417 49.4815 80.044 47.6294 80.0451C47.1486 80.0454 46.6678 80.0457 46.1869 80.046C46.0674 80.0461 45.9479 80.0462 45.8248 80.0463C43.8905 80.0476 41.9561 80.0515 40.0218 80.0566C38.0354 80.0618 36.0491 80.0646 34.0627 80.0651C32.9476 80.0654 31.8325 80.0668 30.7175 80.0708C29.6679 80.0745 28.6183 80.0751 27.5687 80.0735C27.1839 80.0734 26.799 80.0744 26.4142 80.0765C25.8878 80.0793 25.3617 80.0782 24.8353 80.0761C24.6838 80.0778 24.5323 80.0796 24.3763 80.0813C23.1176 80.0695 22.1078 79.7314 21.0547 79.0429C19.6215 77.5445 19.329 76.0336 19.3252 74.0347C19.3236 73.8455 19.3221 73.6564 19.3205 73.4615C19.3165 72.9457 19.3138 72.43 19.3118 71.9141C19.3093 71.374 19.3052 70.8339 19.3012 70.2938C19.2939 69.2723 19.2881 68.2509 19.2829 67.2294C19.2769 66.0659 19.2692 64.9024 19.2614 63.7389C19.2452 61.3468 19.2313 58.9546 19.2188 56.5624C19.1358 56.5329 19.0528 56.5034 18.9673 56.473C18.5837 56.336 18.2005 56.1974 17.8174 56.0589C17.6869 56.0125 17.5565 55.9662 17.4221 55.9184C14.7701 54.9548 12.5084 53.3358 10.4688 51.4062C10.3401 51.2875 10.2114 51.1689 10.0788 51.0467C6.60582 47.7363 4.27326 42.7256 4.03735 37.9251C3.96127 31.8199 5.29598 26.3029 9.53128 21.7187C9.60777 21.6345 9.68425 21.5503 9.76306 21.4636C12.0106 19.0131 14.8153 17.135 17.9639 16.0583C18.0853 16.0161 18.2067 15.9739 18.3318 15.9305C18.6272 15.828 18.923 15.7264 19.2188 15.6249C19.2202 15.4123 19.2202 15.4123 19.2216 15.1954C19.2306 13.8553 19.2419 12.5152 19.2556 11.1751C19.2626 10.4862 19.2687 9.7974 19.2729 9.10853C19.277 8.44289 19.2833 7.7773 19.2912 7.11169C19.2937 6.85861 19.2955 6.60552 19.2965 6.35242C19.3047 4.42464 19.4599 2.77154 20.7813 1.24991C22.1371 0.112737 23.3701 -0.0464652 25.0937 -0.0439761ZM23.125 4.06241C22.2396 5.83325 22.9688 8.02006 22.9688 9.99991C39.2625 9.99991 55.5563 9.99991 72.3438 9.99991C72.9294 4.94023 72.9294 4.94023 71.7188 3.59366C71.2521 3.43809 70.9453 3.41739 70.458 3.41644C70.2109 3.4154 70.2109 3.4154 69.9588 3.41433C69.7772 3.41436 69.5956 3.41439 69.4085 3.41442C69.2161 3.41384 69.0237 3.41327 68.8254 3.41268C68.2903 3.41125 67.7551 3.41053 67.22 3.41011C66.6432 3.40951 66.0665 3.40801 65.4897 3.40664C64.0964 3.40356 62.7032 3.40198 61.3099 3.40059C60.654 3.39991 59.9981 3.39907 59.3422 3.39825C57.1624 3.39559 54.9825 3.39333 52.8026 3.3922C52.2369 3.3919 51.6712 3.3916 51.1055 3.39129C50.9649 3.39122 50.8243 3.39114 50.6794 3.39106C48.4006 3.38977 46.1218 3.38581 43.843 3.38073C41.5042 3.37557 39.1655 3.37275 36.8267 3.37225C35.5132 3.37191 34.1997 3.37054 32.8863 3.36655C31.7679 3.36317 30.6495 3.3619 29.5312 3.36342C28.9605 3.36414 28.3898 3.36383 27.8191 3.36081C27.2006 3.35755 26.5821 3.35914 25.9635 3.3612C25.783 3.35949 25.6024 3.35777 25.4164 3.35601C24.453 3.36379 23.851 3.40189 23.125 4.06241ZM22.9688 13.4374C22.9688 13.953 22.9688 14.4687 22.9688 14.9999C23.0858 14.9975 23.2027 14.995 23.3233 14.9925C29.7618 14.8756 35.3501 16.3611 40.1367 20.8941C41.2125 21.9561 41.2125 21.9561 41.4063 22.3437C41.5396 22.3446 41.6729 22.3455 41.8103 22.3464C43.0679 22.3555 44.3254 22.3668 45.5829 22.3805C46.2294 22.3875 46.8758 22.3936 47.5223 22.3978C48.1465 22.4019 48.7705 22.4082 49.3946 22.416C49.6325 22.4186 49.8704 22.4204 50.1083 22.4214C50.442 22.4229 50.7755 22.4273 51.1091 22.4324C51.2989 22.4341 51.4887 22.4358 51.6843 22.4376C52.3854 22.5244 52.7883 22.7882 53.2813 23.2812C53.4787 24.0051 53.4291 24.472 53.125 25.1562C52.8157 25.5462 52.6731 25.6193 52.1875 25.7812C51.9216 25.7992 51.655 25.8087 51.3885 25.8132C51.2258 25.8164 51.0632 25.8195 50.8956 25.8227C50.7203 25.8253 50.545 25.8279 50.3644 25.8306C50.1847 25.8338 50.0051 25.8371 49.8199 25.8404C49.2452 25.8507 48.6705 25.8599 48.0957 25.8691C47.7064 25.8758 47.3171 25.8826 46.9278 25.8895C45.9727 25.9062 45.0176 25.9221 44.0625 25.9374C44.277 26.5958 44.5242 27.213 44.8145 27.8417C45.653 29.7401 46.1127 31.7731 46.3501 33.8293C46.3652 34.2087 46.3652 34.2087 46.5625 34.3749C46.9565 34.3941 47.3469 34.404 47.7411 34.4079C47.9856 34.4123 48.23 34.4167 48.4745 34.4213C48.8605 34.4277 49.2465 34.4335 49.6326 34.4376C50.0048 34.442 50.3768 34.4491 50.7489 34.4567C50.8632 34.4572 50.9775 34.4577 51.0953 34.4582C51.8313 34.4757 52.3472 34.6026 52.9688 34.9999C53.3518 35.6104 53.4939 36.0556 53.3594 36.7577C53.2579 37.1808 53.1565 37.319 52.8103 37.5906C52.1851 37.8879 51.6528 37.8869 50.9687 37.8924C50.838 37.8952 50.7073 37.898 50.5726 37.9009C50.1572 37.9093 49.7417 37.9146 49.3262 37.9198C49.0437 37.925 48.7612 37.9304 48.4787 37.936C47.7879 37.9493 47.0971 37.9597 46.4063 37.9687C46.3644 38.2695 46.3644 38.2695 46.3217 38.5764C45.9588 41.1512 45.314 43.4027 44.1522 45.7317C43.8839 46.2014 43.8839 46.2014 43.9063 46.5624C44.0122 46.5626 44.1181 46.5629 44.2273 46.5631C45.3299 46.5662 46.4324 46.5746 47.535 46.5863C47.9465 46.5899 48.358 46.5921 48.7694 46.593C49.361 46.5944 49.9523 46.6008 50.5438 46.6082C50.7278 46.6076 50.9117 46.607 51.1013 46.6063C52.3781 46.6291 52.3781 46.6291 53.0031 47.0881C53.3325 47.5758 53.4375 47.8476 53.4375 48.4374C53.2594 49.0941 53.131 49.4282 52.5502 49.797C51.6899 50.1323 50.7564 50.0421 49.849 50.0211C49.5038 50.0138 49.1587 50.0107 48.8134 50.009C47.8324 50.0038 46.8517 49.9965 45.8709 49.9737C45.2687 49.96 44.6671 49.9556 44.0648 49.9571C43.8373 49.956 43.6099 49.9515 43.3825 49.9433C42.4044 49.9094 41.4976 49.8985 40.7149 50.5583C40.3098 50.9451 39.9502 51.3632 39.5912 51.7924C38.3974 53.1108 36.7167 54.0303 35.1563 54.8437C34.9768 54.9385 34.7974 55.0334 34.6125 55.1311C31.602 56.6598 28.428 57.2073 25.0836 57.1935C24.8802 57.1931 24.6768 57.1926 24.4672 57.1922C23.9677 57.191 23.4683 57.1894 22.9688 57.1874C22.9505 59.5779 22.9367 61.9683 22.9283 64.3588C22.9243 65.4688 22.9188 66.5787 22.9098 67.6886C22.9012 68.7595 22.8967 69.8303 22.8947 70.9012C22.8932 71.3101 22.8904 71.7189 22.8862 72.1278C22.8805 72.6998 22.8797 73.2717 22.8801 73.8437C22.8773 74.0133 22.8745 74.1829 22.8716 74.3576C22.8748 75.3058 22.8748 75.3058 23.3356 76.1171C23.8538 76.4786 24.2304 76.582 24.8475 76.5816C25.0399 76.5821 25.0399 76.5821 25.2362 76.5826C25.3771 76.5821 25.518 76.5817 25.6632 76.5812C25.8129 76.5813 25.9626 76.5815 26.1169 76.5816C26.6207 76.5819 27.1245 76.581 27.6283 76.5802C27.9886 76.5801 28.3489 76.5801 28.7092 76.5802C29.6892 76.5803 30.6693 76.5793 31.6493 76.5783C32.6728 76.5773 33.6963 76.5772 34.7198 76.577C36.4383 76.5766 38.1568 76.5756 39.8753 76.5742C41.6455 76.5728 43.4157 76.5717 45.1858 76.571C45.2949 76.571 45.404 76.5709 45.5164 76.5709C46.0637 76.5707 46.6109 76.5705 47.1582 76.5703C51.6992 76.5687 56.2402 76.5659 60.7813 76.5624C60.7818 76.466 60.7824 76.3697 60.783 76.2704C60.7896 75.2614 60.8004 74.2525 60.8137 73.2436C60.8181 72.8678 60.8214 72.492 60.8236 72.1161C60.827 71.5738 60.8343 71.0317 60.8423 70.4894C60.8425 70.3232 60.8427 70.1569 60.8429 69.9856C60.8721 68.475 61.2458 67.1666 62.3438 66.0937C65.2657 63.9219 68.5211 64.9201 72.3438 64.8437C72.3438 47.8796 72.3438 30.9155 72.3438 13.4374C56.05 13.4374 39.7563 13.4374 22.9688 13.4374ZM13.9063 22.4999C13.7181 22.6519 13.7181 22.6519 13.526 22.8069C10.2441 25.5883 8.27198 29.6995 7.65628 33.9062C7.34034 39.1716 8.50829 43.5371 11.875 47.6562C11.9749 47.7795 11.9749 47.7795 12.0769 47.9054C12.6324 48.5843 13.2293 49.1338 13.9063 49.6874C14.1063 49.8521 14.1063 49.8521 14.3103 50.0201C18.1788 53.0671 22.8991 54.2361 27.779 53.7023C32.427 53.0078 36.6858 50.4561 39.5292 46.7161C42.3375 42.862 43.5426 38.0985 42.8607 33.3715C42.0534 28.6528 39.4678 24.3942 35.5664 21.5819C33.9985 20.5601 32.3566 19.7632 30.586 19.1601C30.4773 19.1228 30.3686 19.0855 30.2566 19.047C24.5942 17.2225 18.4296 18.8419 13.9063 22.4999ZM64.375 69.2187C64.2682 69.7303 64.2682 69.7303 64.2987 70.2862C64.3013 70.4881 64.3038 70.69 64.3064 70.898C64.3129 71.1097 64.3195 71.3214 64.3262 71.5331C64.3301 71.7478 64.3337 71.9626 64.3369 72.1773C64.3461 72.7017 64.3589 73.2257 64.375 73.7499C65.1157 73.1312 65.8174 72.487 66.4984 71.8035C66.5905 71.7116 66.6826 71.6196 66.7775 71.5249C66.9698 71.3327 67.1618 71.1404 67.3537 70.9478C67.649 70.6517 67.9451 70.3565 68.2413 70.0612C68.4286 69.8738 68.6159 69.6863 68.8031 69.4988C68.892 69.4103 68.9808 69.3218 69.0724 69.2305C69.4943 68.8901 69.4943 68.8901 69.6875 68.4374C69.0565 68.418 68.4257 68.4039 67.7945 68.3945C67.58 68.3906 67.3656 68.3853 67.1512 68.3785C66.8421 68.3689 66.5329 68.365 66.2238 68.3611C66.038 68.357 65.8523 68.3529 65.6609 68.3487C64.9928 68.4661 64.7709 68.6736 64.375 69.2187Z" fill="white"/>
<path d="M35.8948 24.7716C36.5847 25.2563 37.1688 25.8611 37.7637 26.455C37.8822 26.5697 38.0007 26.6844 38.1229 26.8026C38.8802 27.5559 39.3978 28.1735 39.5935 29.248C39.5665 31.3366 37.8875 32.6045 36.5112 33.9826C36.3693 34.1253 36.2274 34.268 36.0812 34.415C35.6955 34.8028 35.3093 35.19 34.9229 35.577C34.681 35.8194 34.4393 36.0618 34.1976 36.3042C33.4397 37.0641 32.6816 37.8238 31.923 38.583C31.0498 39.4569 30.1776 40.3318 29.3063 41.2076C28.6305 41.8868 27.9538 42.5651 27.2764 43.2427C26.8727 43.6466 26.4694 44.0508 26.067 44.456C25.6188 44.9072 25.1688 45.3566 24.7186 45.8058C24.5202 46.0063 24.5202 46.0063 24.3178 46.2109C23.3839 47.1382 22.611 47.742 21.25 47.8124C20.0134 47.6587 19.1663 47.0158 18.2919 46.1497C18.1469 46.0067 18.002 45.8638 17.8526 45.7165C17.6972 45.5615 17.5418 45.4065 17.3865 45.2514C17.2247 45.0906 17.0629 44.9298 16.901 44.7691C16.563 44.4329 16.2256 44.0961 15.8885 43.7588C15.4586 43.3289 15.0266 42.9012 14.594 42.474C14.2594 42.1429 13.9263 41.8103 13.5935 41.4774C13.4349 41.3192 13.2758 41.1614 13.1162 41.0042C11.2726 39.1862 11.2726 39.1862 11.0107 37.8612C11.0124 37.742 11.014 37.6228 11.0156 37.4999C11.0132 37.321 11.0132 37.321 11.0107 37.1386C11.2679 35.8375 12.0967 34.9935 13.0176 34.0917C13.1323 33.9746 13.247 33.8575 13.3652 33.7368C14.1277 32.9797 14.7599 32.461 15.8447 32.2814C18.2331 32.3081 19.6898 34.3505 21.25 35.9374C21.6925 35.7363 22.0102 35.5276 22.35 35.1812C22.4395 35.0907 22.5291 35.0002 22.6213 34.907C22.7177 34.8081 22.814 34.7091 22.9133 34.6072C23.0163 34.5027 23.1193 34.3983 23.2254 34.2907C23.4488 34.064 23.6719 33.8369 23.8947 33.6096C24.248 33.2494 24.6025 32.8905 24.9574 32.532C25.9663 31.5126 26.9739 30.492 27.9782 29.4681C28.5929 28.8416 29.2099 28.2175 29.8283 27.5948C30.0631 27.3575 30.297 27.1194 30.53 26.8803C30.8568 26.5452 31.1864 26.2131 31.5168 25.8816C31.6116 25.783 31.7064 25.6843 31.804 25.5827C32.9191 24.4779 34.4525 23.9575 35.8948 24.7716ZM33.9957 28.4662C33.9088 28.5535 33.822 28.6409 33.7325 28.7309C33.6326 28.8306 33.5327 28.9303 33.4297 29.033C33.3203 29.1438 33.2109 29.2546 33.0981 29.3688C32.9828 29.4843 32.8674 29.5999 32.7485 29.719C32.3655 30.1031 31.9835 30.4882 31.6016 30.8733C31.3366 31.1393 31.0716 31.4051 30.8064 31.6709C30.1072 32.3722 29.4088 33.0744 28.7107 33.7768C27.5933 34.901 26.4748 36.0241 25.3559 37.1467C24.9641 37.5401 24.5729 37.934 24.1817 38.3279C23.9426 38.5681 23.7035 38.8082 23.4644 39.0483C23.3549 39.1588 23.2455 39.2693 23.1328 39.3831C23.0329 39.4832 22.933 39.5834 22.83 39.6865C22.7432 39.774 22.6563 39.8614 22.5668 39.9515C22.0991 40.3806 21.6326 40.3966 21.0199 40.3814C20.5571 40.3005 20.3911 40.175 20.05 39.8577C19.9427 39.7585 19.8354 39.6593 19.7248 39.557C19.0802 38.9335 18.4435 38.3032 17.8125 37.6659C17.6765 37.5293 17.5406 37.3926 17.4005 37.2518C17.0687 36.9182 16.7373 36.5842 16.4062 36.2499C15.818 36.5189 15.4452 36.8737 15 37.3437C15.2238 37.8549 15.4982 38.1924 15.893 38.5847C16.0713 38.7629 16.0713 38.7629 16.2532 38.9447C16.3814 39.0714 16.5097 39.198 16.6418 39.3285C16.7732 39.4594 16.9045 39.5903 17.0399 39.7252C17.4594 40.143 17.8801 40.5598 18.3008 40.9765C18.5855 41.2596 18.8701 41.5428 19.1547 41.8261C19.8523 42.5203 20.5508 43.2135 21.25 43.9062C22.1068 43.1919 22.9005 42.4334 23.6871 41.6431C23.8168 41.5134 23.9465 41.3837 24.0801 41.2501C24.5057 40.8244 24.9308 40.3981 25.3558 39.9718C25.652 39.6754 25.9482 39.3789 26.2445 39.0825C26.9425 38.384 27.6402 37.685 28.3378 36.9859C29.1325 36.1894 29.9277 35.3934 30.7229 34.5974C32.3574 32.9612 33.9914 31.3245 35.625 29.6874C35.3533 29.0988 35.0152 28.7167 34.5312 28.2812C34.2105 28.2479 34.2105 28.2479 33.9957 28.4662Z" fill="white"/>
<path d="M48.3527 58.5708C48.4953 58.5697 48.6379 58.5685 48.7848 58.5674C49.0189 58.5668 49.0189 58.5668 49.2578 58.5661C49.5048 58.5646 49.5048 58.5646 49.7568 58.563C50.3027 58.5599 50.8486 58.5581 51.3945 58.5565C51.6739 58.5556 51.6739 58.5556 51.959 58.5546C52.9448 58.5514 53.9306 58.5491 54.9165 58.5477C55.9353 58.5459 56.954 58.5406 57.9728 58.5344C58.7557 58.5303 59.5387 58.529 60.3216 58.5284C60.6972 58.5276 61.0728 58.5258 61.4484 58.5229C61.9739 58.5191 62.4993 58.5193 63.0249 58.5203C63.18 58.5183 63.3352 58.5163 63.495 58.5143C64.4106 58.5212 64.9249 58.6135 65.6248 59.2188C66.0184 59.7819 65.9668 60.25 65.8769 60.9076C65.7276 61.4411 65.4317 61.7022 64.9998 62.0313C64.5618 62.1773 64.2935 62.2081 63.8404 62.2105C63.6284 62.2122 63.6284 62.2122 63.4122 62.2139C63.1803 62.2145 63.1803 62.2145 62.9436 62.2152C62.6989 62.2167 62.6989 62.2167 62.4492 62.2183C61.9084 62.2214 61.3676 62.2232 60.8268 62.2248C60.6423 62.2254 60.4577 62.226 60.2675 62.2267C59.2908 62.23 58.3141 62.2322 57.3374 62.2337C56.3281 62.2354 55.3188 62.2408 54.3094 62.247C53.5337 62.251 52.758 62.2524 51.9823 62.2529C51.6102 62.2537 51.2381 62.2555 50.866 62.2584C50.3453 62.2622 49.8248 62.2621 49.3041 62.261C49.1504 62.263 48.9967 62.265 48.8384 62.267C47.9496 62.2603 47.415 62.1721 46.7186 61.5625C46.2992 60.9334 46.2801 60.4269 46.4061 59.6875C46.8582 58.8475 47.4258 58.5758 48.3527 58.5708Z" fill="white"/>
<path d="M58.6238 22.3162C58.7552 22.3142 58.8867 22.3122 59.0221 22.3101C59.1637 22.309 59.3053 22.3078 59.4512 22.3066C59.5975 22.3054 59.7437 22.3041 59.8944 22.3028C60.204 22.3006 60.5135 22.299 60.8231 22.2977C61.2953 22.2951 61.7674 22.2882 62.2396 22.2813C62.5406 22.2797 62.8416 22.2784 63.1426 22.2773C63.3536 22.2732 63.3536 22.2732 63.5689 22.269C64.4589 22.2721 64.9426 22.3853 65.6249 22.9689C65.9875 23.5363 65.9779 24.0511 65.8776 24.698C65.7187 25.1959 65.3979 25.461 64.9999 25.7814C64.6443 25.9592 64.4428 25.9592 64.0476 25.9628C63.8496 25.965 63.8496 25.965 63.6477 25.9673C63.5048 25.968 63.3619 25.9687 63.2147 25.9693C63.0678 25.9702 62.921 25.9711 62.7697 25.972C62.4585 25.9735 62.1474 25.9745 61.8362 25.9751C61.3609 25.9767 60.8857 25.9815 60.4104 25.9864C60.1082 25.9875 59.8059 25.9883 59.5037 25.9889C59.3618 25.9908 59.2198 25.9927 59.0736 25.9947C58.141 25.9914 57.613 25.8504 56.9042 25.215C56.6113 24.629 56.598 24.0777 56.7187 23.4376C57.1614 22.62 57.7145 22.3283 58.6238 22.3162Z" fill="white"/>
<path d="M59.6782 34.3335C59.8103 34.3332 59.9424 34.3329 60.0785 34.3326C60.3565 34.3323 60.6345 34.3329 60.9125 34.3342C61.337 34.3359 61.7614 34.3342 62.1859 34.3322C62.4568 34.3324 62.7277 34.3328 62.9986 34.3335C63.1249 34.3328 63.2512 34.3322 63.3813 34.3315C64.2154 34.3385 64.8082 34.4458 65.5077 34.9316C65.9117 35.4942 65.9898 36.0322 65.9374 36.7187C65.6314 37.3198 65.4039 37.5952 64.8437 37.9687C64.5256 38.0094 64.5256 38.0094 64.1574 38.0116C63.9501 38.0139 63.9501 38.0139 63.7386 38.0161C63.5896 38.016 63.4407 38.0159 63.2873 38.0157C63.0569 38.0167 63.0569 38.0167 62.822 38.0177C62.497 38.0186 62.1721 38.0187 61.8471 38.018C61.3506 38.0175 60.8541 38.0212 60.3576 38.0252C60.0418 38.0255 59.7261 38.0256 59.4103 38.0255C59.1879 38.0276 59.1879 38.0276 58.9609 38.0298C58.1923 38.0245 57.6508 38.0096 57.0312 37.5C56.6075 36.8722 56.6142 36.2002 56.7187 35.4687C57.0058 34.9497 57.2049 34.7471 57.7483 34.5137C58.4048 34.3428 59.003 34.3301 59.6782 34.3335Z" fill="white"/>
<path d="M58.4808 46.535C58.6882 46.5319 58.6882 46.5319 58.8997 46.5289C59.0495 46.5277 59.1992 46.5266 59.3535 46.5254C59.5841 46.5235 59.5841 46.5235 59.8194 46.5216C60.1453 46.5194 60.4712 46.5177 60.7971 46.5165C61.295 46.5138 61.7928 46.5069 62.2908 46.5001C62.6072 46.4985 62.9237 46.4971 63.2402 46.4961C63.4634 46.492 63.4634 46.492 63.6911 46.4878C64.3652 46.49 64.7384 46.4972 65.3216 46.86C65.7125 47.2823 65.917 47.5759 65.9666 48.1538C65.912 48.8106 65.8544 49.2423 65.3416 49.6876C64.5428 50.1889 63.8596 50.1813 62.9313 50.1826C62.8065 50.1831 62.6817 50.1836 62.553 50.1842C62.2892 50.185 62.0253 50.1853 61.7615 50.1853C61.3603 50.1857 60.9592 50.1885 60.558 50.1915C60.3009 50.1919 60.0439 50.1922 59.7868 50.1924C59.668 50.1935 59.5491 50.1946 59.4267 50.1958C58.5247 50.192 57.6841 50.1233 56.9627 49.5314C56.6104 48.8549 56.5726 48.2472 56.7186 47.5001C57.2483 46.817 57.6335 46.5457 58.4808 46.535Z" fill="white"/>
</g>
<defs>
<clipPath id="clip0_1040_1045">
<rect width="80" height="80" fill="white"/>
</clipPath>
</defs>
</svg>
