<svg width="39" height="38" viewBox="0 0 39 38" fill="none" xmlns="http://www.w3.org/2000/svg">
<path d="M24.25 27.9063C24.1328 30.8386 21.6898 33.3276 18.417 33.2484C17.6554 33.2294 16.7133 32.9634 14.8307 32.433C10.3008 31.1553 6.36783 29.0067 5.42417 24.1949C5.25 23.313 5.25 22.3171 5.25 20.3253V17.6748C5.25 15.6845 5.25 14.6886 5.42417 13.8035C6.36783 8.99334 10.3008 6.84476 14.8307 5.56701C16.7149 5.03659 17.6554 4.77059 18.417 4.75159C21.6898 4.67243 24.1328 7.16143 24.25 10.0938M33.75 19H16.3333M33.75 19C33.75 17.8917 30.5928 15.8207 29.7917 15.0417M33.75 19C33.75 20.1083 30.5928 22.1793 29.7917 22.9583" stroke="#F4AA08" stroke-width="2.375" stroke-linecap="round" stroke-linejoin="round"/>
</svg>
