<svg width="38" height="36" viewBox="0 0 38 36" fill="none" xmlns="http://www.w3.org/2000/svg">
<path d="M26.325 25.095L37.5675 14.0375L37.71 13.875C37.9195 13.5911 38.0203 13.2416 37.9941 12.8898C37.968 12.538 37.8166 12.2072 37.5675 11.9575L26.325 0.904952L26.17 0.772452C25.27 0.0974523 23.945 0.747453 23.945 1.94495V7.26995L23.3825 7.30745C14.475 8.01245 9.2575 13.65 8.0125 23.875C7.8525 25.1875 9.3575 26.01 10.3325 25.14C13.91 21.945 17.6075 19.96 21.445 19.165C22.06 19.0366 22.6783 18.9391 23.3 18.8725L23.945 18.815V24.055L23.9575 24.26C24.1075 25.3925 25.48 25.925 26.325 25.095ZM23.565 9.79995L26.445 9.60745V4.52495L35.06 12.995L26.445 21.47V16.0775L23.055 16.3825H23.035C18.7775 16.84 14.76 18.545 10.9675 21.3875C11.7125 18.04 12.985 15.5225 14.6575 13.72C16.7325 11.4825 19.6325 10.115 23.565 9.79995ZM6.75 2.99995C5.0924 2.99995 3.50269 3.65843 2.33058 4.83054C1.15848 6.00264 0.5 7.59235 0.5 9.24995V29.25C0.5 30.9076 1.15848 32.4973 2.33058 33.6694C3.50269 34.8415 5.0924 35.5 6.75 35.5H26.75C28.4076 35.5 29.9973 34.8415 31.1694 33.6694C32.3415 32.4973 33 30.9076 33 29.25V26.75C33 26.4184 32.8683 26.1005 32.6339 25.8661C32.3995 25.6316 32.0815 25.5 31.75 25.5C31.4185 25.5 31.1005 25.6316 30.8661 25.8661C30.6317 26.1005 30.5 26.4184 30.5 26.75V29.25C30.5 30.2445 30.1049 31.1983 29.4017 31.9016C28.6984 32.6049 27.7446 33 26.75 33H6.75C5.75544 33 4.80161 32.6049 4.09835 31.9016C3.39509 31.1983 3 30.2445 3 29.25V9.24995C3 8.25539 3.39509 7.30156 4.09835 6.5983C4.80161 5.89504 5.75544 5.49995 6.75 5.49995H14.25C14.5815 5.49995 14.8995 5.36826 15.1339 5.13384C15.3683 4.89942 15.5 4.58147 15.5 4.24995C15.5 3.91843 15.3683 3.60049 15.1339 3.36607C14.8995 3.13165 14.5815 2.99995 14.25 2.99995H6.75Z" fill="#F4AA08"/>
</svg>
