<svg width="80" height="80" viewBox="0 0 80 80" fill="none" xmlns="http://www.w3.org/2000/svg">
<path d="M20.7404 36.0213C20.9075 36.0207 21.0746 36.0201 21.2468 36.0194C21.8058 36.0178 22.3649 36.0185 22.9239 36.0191C23.3251 36.0184 23.7263 36.0176 24.1275 36.0167C25.1037 36.0147 26.0798 36.0144 27.0559 36.0148C27.8496 36.015 28.6432 36.0148 29.4369 36.0141C29.5499 36.014 29.663 36.0139 29.7795 36.0138C30.0092 36.0136 30.2389 36.0134 30.4686 36.0132C32.6217 36.0115 34.7747 36.0119 36.9278 36.0128C38.896 36.0136 40.8643 36.0119 42.8325 36.0089C44.8551 36.0059 46.8777 36.0046 48.9003 36.0052C50.0352 36.0055 51.17 36.0051 52.3049 36.0029C53.3722 36.0008 54.4395 36.0012 55.5068 36.0033C55.8982 36.0036 56.2897 36.0032 56.6812 36.0019C57.216 36.0003 57.7509 36.0015 58.2857 36.0035C58.4402 36.0024 58.5946 36.0012 58.7537 36C59.8399 36.0085 60.86 36.1472 61.768 36.7828C61.849 36.8704 61.9299 36.9581 62.0134 37.0483C62.0967 37.1347 62.1801 37.2211 62.266 37.3102C62.8659 38.1105 63.0388 38.8048 63.0268 39.7899C63.0272 39.9104 63.0276 40.0309 63.028 40.155C63.0287 40.5583 63.0262 40.9616 63.0236 41.365C63.0235 41.6592 63.0235 41.9534 63.0238 42.2476C63.0239 43.0349 63.0212 43.8221 63.0179 44.6094C63.0152 45.3484 63.0151 46.0874 63.0147 46.8263C63.0123 48.9869 63.0057 51.1475 62.9997 53.3081C62.99 58.1356 62.9803 62.9632 62.9704 67.937C47.5016 67.937 32.0329 67.937 16.0954 67.937C16.0793 63.1159 16.0632 58.2948 16.0466 53.3276C16.0394 51.8054 16.0323 50.2832 16.025 48.7149C16.0215 46.8559 16.0215 46.8559 16.0208 45.9856C16.0201 45.3778 16.0172 44.7701 16.0129 44.1623C16.0075 43.3867 16.0059 42.611 16.0071 41.8353C16.0068 41.5509 16.0053 41.2665 16.0023 40.9822C15.9856 39.3373 16.0263 38.2822 17.1537 36.9958C17.2363 36.9261 17.3189 36.8565 17.404 36.7847C17.4858 36.7125 17.5675 36.6404 17.6518 36.5661C18.6153 35.9866 19.6514 36.0171 20.7404 36.0213ZM18.5954 39.187C18.3507 40.0583 18.3507 40.0583 18.4391 41.9995C27.7204 41.9995 37.0016 41.9995 46.5641 41.9995C46.5641 40.8651 46.5641 39.7307 46.5641 38.562C43.0328 38.5475 39.5015 38.5364 35.9702 38.5296C34.3306 38.5264 32.6909 38.522 31.0513 38.5148C29.6224 38.5086 28.1934 38.5046 26.7645 38.5032C26.0077 38.5024 25.251 38.5005 24.4943 38.4959C23.7821 38.4917 23.07 38.4904 22.3578 38.4913C22.0963 38.4911 21.8349 38.4899 21.5734 38.4875C21.2165 38.4844 20.8597 38.4851 20.5027 38.4868C20.303 38.4863 20.1032 38.4857 19.8974 38.4851C19.2798 38.5763 19.023 38.7376 18.5954 39.187ZM48.9079 38.562C48.9079 39.6964 48.9079 40.8307 48.9079 41.9995C52.7751 41.9995 56.6423 41.9995 60.6266 41.9995C60.7813 40.2072 60.7813 40.2072 60.0484 38.7509C59.5574 38.4927 59.1823 38.5057 58.6285 38.5088C58.5233 38.5087 58.418 38.5086 58.3096 38.5086C57.9629 38.5089 57.6163 38.5125 57.2697 38.5162C57.0289 38.5171 56.7881 38.5178 56.5472 38.5182C55.9143 38.52 55.2814 38.5246 54.6484 38.5298C54.0022 38.5346 53.356 38.5367 52.7098 38.5391C51.4424 38.5441 50.1752 38.5524 48.9079 38.562ZM18.4391 44.4995C18.4391 45.5823 18.4391 46.6651 18.4391 47.7807C27.7204 47.7807 37.0016 47.7807 46.5641 47.7807C46.5641 46.6979 46.5641 45.6151 46.5641 44.4995C37.2829 44.4995 28.0016 44.4995 18.4391 44.4995ZM48.9079 44.4995C48.9079 45.5823 48.9079 46.6651 48.9079 47.7807C52.7751 47.7807 56.6423 47.7807 60.6266 47.7807C60.6266 46.6979 60.6266 45.6151 60.6266 44.4995C56.7594 44.4995 52.8923 44.4995 48.9079 44.4995ZM18.4391 50.2807C18.4391 51.4151 18.4391 52.5495 18.4391 53.7182C27.7204 53.7182 37.0016 53.7182 46.5641 53.7182C46.5641 52.5839 46.5641 51.4495 46.5641 50.2807C37.2829 50.2807 28.0016 50.2807 18.4391 50.2807ZM48.9079 50.2807C48.9079 51.4151 48.9079 52.5495 48.9079 53.7182C52.7751 53.7182 56.6423 53.7182 60.6266 53.7182C60.6266 52.5839 60.6266 51.4495 60.6266 50.2807C56.7594 50.2807 52.8923 50.2807 48.9079 50.2807ZM18.4391 56.2182C18.4391 57.3011 18.4391 58.3839 18.4391 59.4995C27.7204 59.4995 37.0016 59.4995 46.5641 59.4995C46.5641 58.4167 46.5641 57.3339 46.5641 56.2182C37.2829 56.2182 28.0016 56.2182 18.4391 56.2182ZM48.9079 56.2182C48.9079 57.3011 48.9079 58.3839 48.9079 59.4995C52.7751 59.4995 56.6423 59.4995 60.6266 59.4995C60.6266 58.4167 60.6266 57.3339 60.6266 56.2182C56.7594 56.2182 52.8923 56.2182 48.9079 56.2182ZM18.4391 61.9995C18.4391 63.1339 18.4391 64.2682 18.4391 65.437C27.7204 65.437 37.0016 65.437 46.5641 65.437C46.5641 64.3026 46.5641 63.1682 46.5641 61.9995C37.2829 61.9995 28.0016 61.9995 18.4391 61.9995ZM48.9079 61.9995C48.9079 63.1339 48.9079 64.2682 48.9079 65.437C52.7751 65.437 56.6423 65.437 60.6266 65.437C60.6266 64.3026 60.6266 63.1682 60.6266 61.9995C56.7594 61.9995 52.8923 61.9995 48.9079 61.9995Z" fill="#F4AA08"/>
<path d="M10.625 0C30.0125 0 49.4 0 69.375 0C69.375 26.4 69.375 52.8 69.375 80C67.0031 80 64.6312 80 62.1875 80C62.1875 79.2266 62.1875 78.4531 62.1875 77.6562C63.7344 77.6562 65.2812 77.6562 66.875 77.6562C66.875 52.8031 66.875 27.95 66.875 2.34375C49.1375 2.34375 31.4 2.34375 13.125 2.34375C13.125 3.89062 13.125 5.4375 13.125 7.03125C12.3 7.03125 11.475 7.03125 10.625 7.03125C10.625 4.71094 10.625 2.39062 10.625 0Z" fill="#F4AA08"/>
<path d="M10.625 9.375C11.45 9.375 12.275 9.375 13.125 9.375C13.125 31.9078 13.125 54.4406 13.125 77.6562C28.5938 77.6562 44.0625 77.6562 60 77.6562C60 78.4297 60 79.2031 60 80C43.7062 80 27.4125 80 10.625 80C10.625 56.6937 10.625 33.3875 10.625 9.375Z" fill="#F4AA08"/>
<path d="M37.3752 16.4062C46.2956 16.4062 55.2159 16.4062 64.4065 16.4062C64.4065 17.1797 64.4065 17.9531 64.4065 18.75C55.4862 18.75 46.5659 18.75 37.3752 18.75C37.3752 17.9766 37.3752 17.2031 37.3752 16.4062Z" fill="#F4AA08"/>
<path d="M37.3752 11.7188C42.2737 11.7188 47.1721 11.7188 52.219 11.7188C52.219 12.4922 52.219 13.2656 52.219 14.0625C47.3206 14.0625 42.4221 14.0625 37.3752 14.0625C37.3752 13.2891 37.3752 12.5156 37.3752 11.7188Z" fill="#F4AA08"/>
<path opacity="0.979" fill-rule="evenodd" clip-rule="evenodd" d="M20.0021 8.00002C22.6681 8.00002 25.3341 8.00002 28 8.00002C28 8.50294 28 9.00587 28 9.50879C27.1602 9.4971 26.3207 9.50879 25.4815 9.54387C25.8042 9.96851 26.0084 10.448 26.0941 10.9825C26.7294 10.9825 27.3647 10.9825 28 10.9825C28 11.4971 28 12.0117 28 12.5263C27.3647 12.5263 26.7294 12.5263 26.0941 12.5263C25.6839 14.2415 24.6289 15.2298 22.929 15.4912C22.5546 15.5029 22.1803 15.5146 21.8059 15.5263C23.2466 17.0117 24.6874 18.4971 26.1282 19.9825C25.4248 20.0059 24.7215 20.0059 24.0181 19.9825C22.6851 18.6082 21.3521 17.2339 20.0191 15.8597C20.0021 15.2399 19.9964 14.62 20.0021 14C20.853 14.0059 21.7039 14 22.5546 13.9825C23.5033 13.9166 24.1726 13.4371 24.5626 12.5439C23.0425 12.5263 21.5223 12.5205 20.0021 12.5263C20.0021 12.0117 20.0021 11.4971 20.0021 10.9825C21.5223 10.9883 23.0425 10.9825 24.5626 10.9649C24.1724 10.0713 23.503 9.5918 22.5546 9.52633C21.7039 9.50879 20.853 9.50293 20.0021 9.50879C20.0021 9.00587 20.0021 8.50294 20.0021 8.00002Z" fill="#F4AA08"/>
</svg>
