<svg width="794" height="133" viewBox="0 0 794 133" fill="none" xmlns="http://www.w3.org/2000/svg">
<g clip-path="url(#clip0_1623_44)">
<rect y="22.6858" width="794" height="109.425" fill="#F4AA08"/>
<path d="M-0.0295258 41.3682L-60.0503 9.53674e-05L173.509 9.53674e-05L233.53 41.3682L-0.0295258 41.3682Z" fill="#515151"/>
<rect x="102.753" y="52.0437" width="21.3513" height="21.3513" rx="8.00672" fill="white"/>
<path d="M118.733 68.7244C117.343 68.7244 115.969 68.4215 114.613 67.8157C113.256 67.2098 112.022 66.3507 110.91 65.2382C109.798 64.1257 108.939 62.8913 108.333 61.5351C107.727 60.1788 107.424 58.8054 107.423 57.4149C107.423 57.2148 107.49 57.048 107.624 56.9145C107.757 56.7811 107.924 56.7144 108.124 56.7144H110.826C110.982 56.7144 111.121 56.7673 111.243 56.8732C111.366 56.979 111.438 57.104 111.46 57.2481L111.894 59.5834C111.916 59.7614 111.91 59.9115 111.877 60.0338C111.844 60.1561 111.783 60.2618 111.694 60.3507L110.076 61.9854C110.298 62.3969 110.562 62.7943 110.868 63.1778C111.173 63.5612 111.51 63.9311 111.877 64.2874C112.222 64.6321 112.583 64.9519 112.961 65.2469C113.339 65.5418 113.74 65.8113 114.162 66.0555L115.73 64.4875C115.83 64.3875 115.961 64.3125 116.123 64.2627C116.284 64.2129 116.442 64.1989 116.598 64.2207L118.9 64.6877C119.055 64.7322 119.183 64.8129 119.283 64.9299C119.383 65.0469 119.433 65.1775 119.433 65.3216V68.0239C119.433 68.224 119.367 68.3908 119.233 68.5243C119.1 68.6577 118.933 68.7244 118.733 68.7244Z" fill="#F4AA08"/>
<path d="M135.975 60.7022H133.819V62.9121H132.687V60.7022H130.531V59.6774H132.687V57.4675H133.819V59.6774H135.975V60.7022ZM139.219 61.9299C139.291 62.2858 139.444 62.5562 139.678 62.7413C139.913 62.9263 140.23 63.0188 140.629 63.0188C141.134 63.0188 141.504 62.8196 141.739 62.421C141.974 62.0224 142.091 61.3428 142.091 60.382C141.92 60.6239 141.678 60.8125 141.365 60.9478C141.059 61.0759 140.725 61.1399 140.362 61.1399C139.899 61.1399 139.479 61.0474 139.102 60.8624C138.725 60.6702 138.426 60.3891 138.205 60.019C137.992 59.6418 137.885 59.1863 137.885 58.6525C137.885 57.8696 138.113 57.2469 138.568 56.7843C139.031 56.3145 139.664 56.0797 140.468 56.0797C141.436 56.0797 142.123 56.4035 142.529 57.0512C142.942 57.6917 143.148 58.6774 143.148 60.0083C143.148 60.9264 143.07 61.6773 142.913 62.2609C142.764 62.8445 142.5 63.2857 142.123 63.5846C141.746 63.8836 141.223 64.033 140.554 64.033C139.792 64.033 139.205 63.8337 138.792 63.4352C138.38 63.0366 138.148 62.5349 138.098 61.9299H139.219ZM140.575 60.1151C141.002 60.1151 141.337 59.9834 141.579 59.7201C141.828 59.4496 141.952 59.0938 141.952 58.6525C141.952 58.1614 141.821 57.7807 141.557 57.5102C141.301 57.2326 140.949 57.0939 140.5 57.0939C140.052 57.0939 139.696 57.2362 139.433 57.5209C139.177 57.7985 139.049 58.165 139.049 58.6205C139.049 59.0546 139.173 59.414 139.422 59.6987C139.678 59.9763 140.063 60.1151 140.575 60.1151ZM149.412 57.2006L146.444 64.0437H145.217L148.216 57.3287H144.266V56.2932H149.412V57.2006ZM150.304 62.421V61.5029L153.891 56.3572H155.364V61.3641H156.357V62.421H155.364V64.0437H154.169V62.421H150.304ZM154.222 57.5956L151.703 61.3641H154.222V57.5956ZM160.118 58.1828C160.16 57.5209 160.413 57.0049 160.876 56.6348C161.345 56.2647 161.943 56.0797 162.669 56.0797C163.167 56.0797 163.598 56.1686 163.961 56.3466C164.324 56.5245 164.598 56.7665 164.783 57.0725C164.968 57.3785 165.06 57.7237 165.06 58.1081C165.06 58.5493 164.943 58.9265 164.708 59.2397C164.473 59.5528 164.192 59.7628 163.865 59.8695V59.9122C164.285 60.0403 164.612 60.2752 164.847 60.6168C165.082 60.9513 165.199 61.3819 165.199 61.9086C165.199 62.3285 165.103 62.7021 164.911 63.0295C164.719 63.3569 164.434 63.6167 164.057 63.8088C163.68 63.9939 163.228 64.0864 162.701 64.0864C161.932 64.0864 161.299 63.8907 160.801 63.4992C160.31 63.1007 160.046 62.5313 160.011 61.7911H161.185C161.214 62.1683 161.359 62.4779 161.623 62.7199C161.886 62.9548 162.242 63.0722 162.69 63.0722C163.125 63.0722 163.459 62.9548 163.694 62.7199C163.929 62.4779 164.046 62.1683 164.046 61.7911C164.046 61.2929 163.886 60.9407 163.566 60.7343C163.253 60.5207 162.769 60.414 162.114 60.414H161.836V59.4105H162.125C162.701 59.4034 163.139 59.3073 163.438 59.1222C163.744 58.9372 163.897 58.6454 163.897 58.2468C163.897 57.9052 163.786 57.6348 163.566 57.4355C163.345 57.2291 163.032 57.1259 162.626 57.1259C162.228 57.1259 161.918 57.2291 161.698 57.4355C161.477 57.6348 161.345 57.8839 161.303 58.1828H160.118ZM166.478 60.051C166.478 58.8198 166.684 57.859 167.097 57.1686C167.517 56.4711 168.235 56.1224 169.253 56.1224C170.271 56.1224 170.986 56.4711 171.399 57.1686C171.819 57.859 172.029 58.8198 172.029 60.051C172.029 61.2965 171.819 62.2715 171.399 62.9761C170.986 63.6736 170.271 64.0223 169.253 64.0223C168.235 64.0223 167.517 63.6736 167.097 62.9761C166.684 62.2715 166.478 61.2965 166.478 60.051ZM170.833 60.051C170.833 59.4745 170.794 58.987 170.716 58.5885C170.645 58.1899 170.495 57.8661 170.267 57.617C170.04 57.3608 169.702 57.2326 169.253 57.2326C168.805 57.2326 168.467 57.3608 168.239 57.617C168.011 57.8661 167.858 58.1899 167.78 58.5885C167.709 58.987 167.673 59.4745 167.673 60.051C167.673 60.6489 167.709 61.1506 167.78 61.5563C167.851 61.962 168.001 62.2893 168.228 62.5384C168.463 62.7875 168.805 62.9121 169.253 62.9121C169.702 62.9121 170.04 62.7875 170.267 62.5384C170.502 62.2893 170.655 61.962 170.726 61.5563C170.798 61.1506 170.833 60.6489 170.833 60.051ZM178.334 57.3074H174.758V59.4318C174.907 59.2326 175.128 59.0653 175.42 58.9301C175.719 58.7948 176.035 58.7272 176.37 58.7272C176.968 58.7272 177.452 58.8553 177.822 59.1116C178.199 59.3678 178.466 59.6916 178.622 60.083C178.786 60.4745 178.868 60.8873 178.868 61.3214C178.868 61.8481 178.765 62.3178 178.558 62.7306C178.359 63.1363 178.057 63.4565 177.651 63.6914C177.252 63.9263 176.761 64.0437 176.178 64.0437C175.402 64.0437 174.779 63.8515 174.309 63.4672C173.84 63.0829 173.559 62.574 173.466 61.9406H174.651C174.729 62.2751 174.904 62.542 175.174 62.7413C175.445 62.9334 175.783 63.0295 176.188 63.0295C176.694 63.0295 177.071 62.8765 177.32 62.5705C177.576 62.2644 177.704 61.8588 177.704 61.3534C177.704 60.841 177.576 60.4496 177.32 60.1791C177.064 59.9016 176.687 59.7628 176.188 59.7628C175.84 59.7628 175.544 59.8517 175.302 60.0297C175.067 60.2005 174.897 60.4353 174.79 60.7343H173.637V56.2398H178.334V57.3074ZM180.807 62.389C181.491 61.7983 182.028 61.3143 182.419 60.9371C182.818 60.5528 183.149 60.1542 183.412 59.7414C183.676 59.3286 183.807 58.9158 183.807 58.503C183.807 58.076 183.704 57.7415 183.498 57.4995C183.298 57.2576 182.982 57.1366 182.548 57.1366C182.128 57.1366 181.8 57.2718 181.565 57.5422C181.338 57.8056 181.217 58.1614 181.202 58.6098H180.028C180.049 57.7985 180.291 57.1793 180.754 56.7522C181.224 56.3181 181.818 56.101 182.537 56.101C183.313 56.101 183.918 56.3145 184.352 56.7416C184.793 57.1686 185.014 57.738 185.014 58.4497C185.014 58.9621 184.882 59.4567 184.619 59.9336C184.362 60.4033 184.053 60.8268 183.69 61.204C183.334 61.5741 182.879 62.0047 182.323 62.4957L181.843 62.9228H185.227V63.9369H180.039V63.0509L180.807 62.389ZM189.048 58.1828C189.091 57.5209 189.343 57.0049 189.806 56.6348C190.276 56.2647 190.874 56.0797 191.6 56.0797C192.098 56.0797 192.528 56.1686 192.891 56.3466C193.254 56.5245 193.528 56.7665 193.713 57.0725C193.898 57.3785 193.991 57.7237 193.991 58.1081C193.991 58.5493 193.873 58.9265 193.639 59.2397C193.404 59.5528 193.123 59.7628 192.795 59.8695V59.9122C193.215 60.0403 193.543 60.2752 193.777 60.6168C194.012 60.9513 194.13 61.3819 194.13 61.9086C194.13 62.3285 194.034 62.7021 193.841 63.0295C193.649 63.3569 193.365 63.6167 192.987 63.8088C192.61 63.9939 192.158 64.0864 191.632 64.0864C190.863 64.0864 190.23 63.8907 189.731 63.4992C189.24 63.1007 188.977 62.5313 188.941 61.7911H190.116C190.144 62.1683 190.29 62.4779 190.553 62.7199C190.817 62.9548 191.173 63.0722 191.621 63.0722C192.055 63.0722 192.39 62.9548 192.624 62.7199C192.859 62.4779 192.977 62.1683 192.977 61.7911C192.977 61.2929 192.817 60.9407 192.496 60.7343C192.183 60.5207 191.699 60.414 191.044 60.414H190.767V59.4105H191.055C191.632 59.4034 192.069 59.3073 192.368 59.1222C192.674 58.9372 192.827 58.6454 192.827 58.2468C192.827 57.9052 192.717 57.6348 192.496 57.4355C192.276 57.2291 191.963 57.1259 191.557 57.1259C191.158 57.1259 190.849 57.2291 190.628 57.4355C190.407 57.6348 190.276 57.8839 190.233 58.1828H189.048ZM195.408 60.051C195.408 58.8198 195.615 57.859 196.027 57.1686C196.447 56.4711 197.166 56.1224 198.184 56.1224C199.202 56.1224 199.917 56.4711 200.33 57.1686C200.749 57.859 200.959 58.8198 200.959 60.051C200.959 61.2965 200.749 62.2715 200.33 62.9761C199.917 63.6736 199.202 64.0223 198.184 64.0223C197.166 64.0223 196.447 63.6736 196.027 62.9761C195.615 62.2715 195.408 61.2965 195.408 60.051ZM199.764 60.051C199.764 59.4745 199.725 58.987 199.646 58.5885C199.575 58.1899 199.426 57.8661 199.198 57.617C198.97 57.3608 198.632 57.2326 198.184 57.2326C197.735 57.2326 197.397 57.3608 197.17 57.617C196.942 57.8661 196.789 58.1899 196.711 58.5885C196.639 58.987 196.604 59.4745 196.604 60.051C196.604 60.6489 196.639 61.1506 196.711 61.5563C196.782 61.962 196.931 62.2893 197.159 62.5384C197.394 62.7875 197.735 62.9121 198.184 62.9121C198.632 62.9121 198.97 62.7875 199.198 62.5384C199.433 62.2893 199.586 61.962 199.657 61.5563C199.728 61.1506 199.764 60.6489 199.764 60.051ZM202.098 62.421V61.5029L205.685 56.3572H207.158V61.3641H208.151V62.421H207.158V64.0437H205.962V62.421H202.098ZM206.016 57.5956L203.496 61.3641H206.016V57.5956ZM208.999 57.3714V56.2612H211.22V64.0437H209.992V57.3714H208.999Z" fill="white"/>
<path d="M135.975 80.7056H133.819V82.9155H132.687V80.7056H130.531V79.6808H132.687V77.4709H133.819V79.6808H135.975V80.7056ZM139.219 81.9333C139.291 82.2892 139.444 82.5596 139.678 82.7447C139.913 82.9297 140.23 83.0223 140.629 83.0223C141.134 83.0223 141.504 82.823 141.739 82.4244C141.974 82.0259 142.091 81.3462 142.091 80.3854C141.92 80.6274 141.678 80.816 141.365 80.9512C141.059 81.0793 140.725 81.1433 140.362 81.1433C139.899 81.1433 139.479 81.0508 139.102 80.8658C138.725 80.6736 138.426 80.3925 138.205 80.0224C137.992 79.6452 137.885 79.1897 137.885 78.6559C137.885 77.873 138.113 77.2503 138.568 76.7877C139.031 76.318 139.664 76.0831 140.468 76.0831C141.436 76.0831 142.123 76.4069 142.529 77.0546C142.942 77.6951 143.148 78.6808 143.148 80.0117C143.148 80.9298 143.07 81.6807 142.913 82.2643C142.764 82.8479 142.5 83.2891 142.123 83.5881C141.746 83.887 141.223 84.0364 140.554 84.0364C139.792 84.0364 139.205 83.8372 138.792 83.4386C138.38 83.0401 138.148 82.5383 138.098 81.9333H139.219ZM140.575 80.1185C141.002 80.1185 141.337 79.9868 141.579 79.7235C141.828 79.453 141.952 79.0972 141.952 78.6559C141.952 78.1648 141.821 77.7841 141.557 77.5136C141.301 77.2361 140.949 77.0973 140.5 77.0973C140.052 77.0973 139.696 77.2396 139.433 77.5243C139.177 77.8019 139.049 78.1684 139.049 78.6239C139.049 79.058 139.173 79.4175 139.422 79.7021C139.678 79.9797 140.063 80.1185 140.575 80.1185ZM149.412 77.204L146.444 84.0471H145.217L148.216 77.3321H144.266V76.2966H149.412V77.204ZM150.304 82.4244V81.5063L153.891 76.3607H155.364V81.3675H156.357V82.4244H155.364V84.0471H154.169V82.4244H150.304ZM154.222 77.599L151.703 81.3675H154.222V77.599ZM160.118 78.1862C160.16 77.5243 160.413 77.0083 160.876 76.6382C161.345 76.2681 161.943 76.0831 162.669 76.0831C163.167 76.0831 163.598 76.1721 163.961 76.35C164.324 76.5279 164.598 76.7699 164.783 77.0759C164.968 77.382 165.06 77.7271 165.06 78.1115C165.06 78.5527 164.943 78.9299 164.708 79.2431C164.473 79.5562 164.192 79.7662 163.865 79.8729V79.9156C164.285 80.0438 164.612 80.2786 164.847 80.6202C165.082 80.9547 165.199 81.3853 165.199 81.912C165.199 82.3319 165.103 82.7055 164.911 83.0329C164.719 83.3603 164.434 83.6201 164.057 83.8123C163.68 83.9973 163.228 84.0898 162.701 84.0898C161.932 84.0898 161.299 83.8941 160.801 83.5027C160.31 83.1041 160.046 82.5347 160.011 81.7946H161.185C161.214 82.1718 161.359 82.4814 161.623 82.7233C161.886 82.9582 162.242 83.0756 162.69 83.0756C163.125 83.0756 163.459 82.9582 163.694 82.7233C163.929 82.4814 164.046 82.1718 164.046 81.7946C164.046 81.2964 163.886 80.9441 163.566 80.7377C163.253 80.5242 162.769 80.4174 162.114 80.4174H161.836V79.4139H162.125C162.701 79.4068 163.139 79.3107 163.438 79.1257C163.744 78.9406 163.897 78.6488 163.897 78.2503C163.897 77.9086 163.786 77.6382 163.566 77.4389C163.345 77.2325 163.032 77.1293 162.626 77.1293C162.228 77.1293 161.918 77.2325 161.698 77.4389C161.477 77.6382 161.345 77.8873 161.303 78.1862H160.118ZM166.478 80.0544C166.478 78.8232 166.684 77.8624 167.097 77.172C167.517 76.4745 168.235 76.1258 169.253 76.1258C170.271 76.1258 170.986 76.4745 171.399 77.172C171.819 77.8624 172.029 78.8232 172.029 80.0544C172.029 81.2999 171.819 82.275 171.399 82.9796C170.986 83.677 170.271 84.0258 169.253 84.0258C168.235 84.0258 167.517 83.677 167.097 82.9796C166.684 82.275 166.478 81.2999 166.478 80.0544ZM170.833 80.0544C170.833 79.4779 170.794 78.9904 170.716 78.5919C170.645 78.1933 170.495 77.8695 170.267 77.6204C170.04 77.3642 169.702 77.2361 169.253 77.2361C168.805 77.2361 168.467 77.3642 168.239 77.6204C168.011 77.8695 167.858 78.1933 167.78 78.5919C167.709 78.9904 167.673 79.4779 167.673 80.0544C167.673 80.6523 167.709 81.154 167.78 81.5597C167.851 81.9654 168.001 82.2928 168.228 82.5419C168.463 82.791 168.805 82.9155 169.253 82.9155C169.702 82.9155 170.04 82.791 170.267 82.5419C170.502 82.2928 170.655 81.9654 170.726 81.5597C170.798 81.154 170.833 80.6523 170.833 80.0544ZM178.334 77.3108H174.758V79.4352C174.907 79.236 175.128 79.0687 175.42 78.9335C175.719 78.7983 176.035 78.7307 176.37 78.7307C176.968 78.7307 177.452 78.8588 177.822 79.115C178.199 79.3712 178.466 79.695 178.622 80.0865C178.786 80.4779 178.868 80.8907 178.868 81.3248C178.868 81.8515 178.765 82.3212 178.558 82.734C178.359 83.1397 178.057 83.46 177.651 83.6948C177.252 83.9297 176.761 84.0471 176.178 84.0471C175.402 84.0471 174.779 83.855 174.309 83.4706C173.84 83.0863 173.559 82.5774 173.466 81.944H174.651C174.729 82.2785 174.904 82.5454 175.174 82.7447C175.445 82.9369 175.783 83.0329 176.188 83.0329C176.694 83.0329 177.071 82.8799 177.32 82.5739C177.576 82.2678 177.704 81.8622 177.704 81.3569C177.704 80.8444 177.576 80.453 177.32 80.1825C177.064 79.905 176.687 79.7662 176.188 79.7662C175.84 79.7662 175.544 79.8552 175.302 80.0331C175.067 80.2039 174.897 80.4388 174.79 80.7377H173.637V76.2432H178.334V77.3108ZM179.985 82.4244V81.5063L183.572 76.3607H185.046V81.3675H186.039V82.4244H185.046V84.0471H183.85V82.4244H179.985ZM183.903 77.599L181.384 81.3675H183.903V77.599ZM194.838 77.3108H191.261V79.4352C191.411 79.236 191.631 79.0687 191.923 78.9335C192.222 78.7983 192.539 78.7307 192.873 78.7307C193.471 78.7307 193.955 78.8588 194.325 79.115C194.702 79.3712 194.969 79.695 195.126 80.0865C195.29 80.4779 195.371 80.8907 195.371 81.3248C195.371 81.8515 195.268 82.3212 195.062 82.734C194.863 83.1397 194.56 83.46 194.154 83.6948C193.756 83.9297 193.265 84.0471 192.681 84.0471C191.905 84.0471 191.283 83.855 190.813 83.4706C190.343 83.0863 190.062 82.5774 189.97 81.944H191.155C191.233 82.2785 191.407 82.5454 191.678 82.7447C191.948 82.9369 192.286 83.0329 192.692 83.0329C193.197 83.0329 193.574 82.8799 193.823 82.5739C194.08 82.2678 194.208 81.8622 194.208 81.3569C194.208 80.8444 194.08 80.453 193.823 80.1825C193.567 79.905 193.19 79.7662 192.692 79.7662C192.343 79.7662 192.048 79.8552 191.806 80.0331C191.571 80.2039 191.4 80.4388 191.293 80.7377H190.14V76.2432H194.838V77.3108ZM196.478 77.3749V76.2646H198.699V84.0471H197.471V77.3749H196.478ZM201.887 81.9333C201.958 82.2892 202.111 82.5596 202.346 82.7447C202.58 82.9297 202.897 83.0223 203.296 83.0223C203.801 83.0223 204.171 82.823 204.406 82.4244C204.641 82.0259 204.758 81.3462 204.758 80.3854C204.587 80.6274 204.346 80.816 204.032 80.9512C203.726 81.0793 203.392 81.1433 203.029 81.1433C202.566 81.1433 202.146 81.0508 201.769 80.8658C201.392 80.6736 201.093 80.3925 200.872 80.0224C200.659 79.6452 200.552 79.1897 200.552 78.6559C200.552 77.873 200.78 77.2503 201.235 76.7877C201.698 76.318 202.331 76.0831 203.136 76.0831C204.104 76.0831 204.79 76.4069 205.196 77.0546C205.609 77.6951 205.815 78.6808 205.815 80.0117C205.815 80.9298 205.737 81.6807 205.58 82.2643C205.431 82.8479 205.168 83.2891 204.79 83.5881C204.413 83.887 203.89 84.0364 203.221 84.0364C202.459 84.0364 201.872 83.8372 201.46 83.4386C201.047 83.0401 200.815 82.5383 200.766 81.9333H201.887ZM203.242 80.1185C203.669 80.1185 204.004 79.9868 204.246 79.7235C204.495 79.453 204.62 79.0972 204.62 78.6559C204.62 78.1648 204.488 77.7841 204.225 77.5136C203.968 77.2361 203.616 77.0973 203.168 77.0973C202.719 77.0973 202.363 77.2396 202.1 77.5243C201.844 77.8019 201.716 78.1684 201.716 78.6239C201.716 79.058 201.84 79.4175 202.089 79.7021C202.346 79.9797 202.73 80.1185 203.242 80.1185ZM208.663 81.9333C208.734 82.2892 208.887 82.5596 209.122 82.7447C209.357 82.9297 209.674 83.0223 210.072 83.0223C210.578 83.0223 210.948 82.823 211.183 82.4244C211.417 82.0259 211.535 81.3462 211.535 80.3854C211.364 80.6274 211.122 80.816 210.809 80.9512C210.503 81.0793 210.168 81.1433 209.805 81.1433C209.343 81.1433 208.923 81.0508 208.546 80.8658C208.168 80.6736 207.87 80.3925 207.649 80.0224C207.435 79.6452 207.329 79.1897 207.329 78.6559C207.329 77.873 207.556 77.2503 208.012 76.7877C208.474 76.318 209.108 76.0831 209.912 76.0831C210.88 76.0831 211.567 76.4069 211.973 77.0546C212.385 77.6951 212.592 78.6808 212.592 80.0117C212.592 80.9298 212.513 81.6807 212.357 82.2643C212.207 82.8479 211.944 83.2891 211.567 83.5881C211.19 83.887 210.667 84.0364 209.998 84.0364C209.236 84.0364 208.649 83.8372 208.236 83.4386C207.823 83.0401 207.592 82.5383 207.542 81.9333H208.663ZM210.019 80.1185C210.446 80.1185 210.78 79.9868 211.022 79.7235C211.271 79.453 211.396 79.0972 211.396 78.6559C211.396 78.1648 211.264 77.7841 211.001 77.5136C210.745 77.2361 210.393 77.0973 209.944 77.0973C209.496 77.0973 209.14 77.2396 208.877 77.5243C208.62 77.8019 208.492 78.1684 208.492 78.6239C208.492 79.058 208.617 79.4175 208.866 79.7021C209.122 79.9797 209.506 80.1185 210.019 80.1185Z" fill="white"/>
<rect x="274.897" y="52.0437" width="21.3513" height="21.3513" rx="8.00672" fill="white"/>
<path d="M278.946 58.3704L284.868 64.2927C285.043 64.468 285.277 64.5721 285.525 64.5848C285.772 64.5975 286.015 64.5179 286.208 64.3615L286.284 64.2927L292.201 58.3744C292.221 58.4478 292.233 58.5228 292.24 58.5993L292.245 58.716V66.7228C292.246 67.0594 292.118 67.3837 291.889 67.6306C291.661 67.8774 291.347 68.0286 291.011 68.0539L290.911 68.0572H280.235C279.899 68.0573 279.574 67.9302 279.328 67.7013C279.081 67.4723 278.929 67.1586 278.904 66.8229L278.901 66.7228V58.716C278.901 58.636 278.908 58.5581 278.921 58.4825L278.946 58.3704ZM290.911 57.3816C290.992 57.3816 291.071 57.3885 291.148 57.4023L291.261 57.4283L285.576 63.1131L279.89 57.427C279.964 57.4069 280.039 57.3936 280.117 57.3869L280.235 57.3816H290.911Z" fill="#F4AA08"/>
<path d="M304.522 64.1398C304.06 64.1398 303.643 64.0579 303.273 63.8942C302.91 63.7234 302.622 63.4957 302.408 63.211C302.195 62.9192 302.081 62.5954 302.067 62.2395H303.327C303.348 62.4886 303.465 62.6986 303.679 62.8694C303.899 63.0331 304.173 63.1149 304.501 63.1149C304.842 63.1149 305.106 63.0509 305.291 62.9228C305.483 62.7875 305.579 62.6167 305.579 62.4103C305.579 62.1897 305.472 62.026 305.259 61.9193C305.052 61.8125 304.722 61.6951 304.266 61.567C303.825 61.446 303.465 61.3285 303.188 61.2147C302.91 61.1008 302.668 60.9264 302.462 60.6916C302.263 60.4567 302.163 60.1471 302.163 59.7628C302.163 59.4496 302.255 59.1649 302.44 58.9087C302.626 58.6454 302.889 58.439 303.23 58.2895C303.579 58.1401 303.978 58.0653 304.426 58.0653C305.095 58.0653 305.632 58.2362 306.038 58.5778C306.451 58.9123 306.672 59.3713 306.7 59.9549H305.483C305.462 59.6916 305.355 59.4816 305.163 59.3251C304.971 59.1685 304.711 59.0902 304.383 59.0902C304.063 59.0902 303.818 59.1507 303.647 59.2717C303.476 59.3927 303.391 59.5528 303.391 59.7521C303.391 59.9087 303.448 60.0403 303.561 60.1471C303.675 60.2539 303.814 60.3393 303.978 60.4033C304.141 60.4602 304.383 60.535 304.704 60.6275C305.131 60.7414 305.479 60.8588 305.75 60.9798C306.027 61.0937 306.266 61.2645 306.465 61.4922C306.664 61.72 306.768 62.0224 306.775 62.3997C306.775 62.7342 306.682 63.0331 306.497 63.2964C306.312 63.5597 306.049 63.7661 305.707 63.9156C305.373 64.0651 304.978 64.1398 304.522 64.1398ZM307.684 61.0759C307.684 60.4852 307.805 59.9621 308.047 59.5066C308.296 59.0511 308.631 58.6988 309.051 58.4497C309.478 58.1935 309.947 58.0653 310.46 58.0653C310.922 58.0653 311.325 58.1579 311.666 58.3429C312.015 58.5208 312.292 58.745 312.499 59.0155V58.1614H313.727V64.0437H312.499V63.1683C312.292 63.4459 312.011 63.6772 311.655 63.8622C311.3 64.0473 310.894 64.1398 310.438 64.1398C309.933 64.1398 309.471 64.0117 309.051 63.7555C308.631 63.4921 308.296 63.1292 308.047 62.6665C307.805 62.1968 307.684 61.6666 307.684 61.0759ZM312.499 61.0972C312.499 60.6916 312.413 60.3393 312.243 60.0403C312.079 59.7414 311.862 59.5137 311.591 59.3571C311.321 59.2005 311.029 59.1222 310.716 59.1222C310.403 59.1222 310.111 59.2005 309.841 59.3571C309.57 59.5066 309.35 59.7307 309.179 60.0297C309.015 60.3215 308.933 60.6702 308.933 61.0759C308.933 61.4815 309.015 61.8374 309.179 62.1434C309.35 62.4495 309.57 62.6843 309.841 62.848C310.118 63.0046 310.41 63.0829 310.716 63.0829C311.029 63.0829 311.321 63.0046 311.591 62.848C311.862 62.6915 312.079 62.4637 312.243 62.1648C312.413 61.8588 312.499 61.5029 312.499 61.0972ZM316.542 56.1437V64.0437H315.325V56.1437H316.542ZM323.531 60.9584C323.531 61.1791 323.517 61.3784 323.488 61.5563H318.994C319.03 62.026 319.204 62.4032 319.517 62.6879C319.83 62.9726 320.215 63.1149 320.67 63.1149C321.325 63.1149 321.787 62.8409 322.058 62.2929H323.371C323.193 62.8338 322.869 63.2786 322.399 63.6274C321.937 63.969 321.36 64.1398 320.67 64.1398C320.108 64.1398 319.602 64.0152 319.154 63.7661C318.713 63.5099 318.364 63.1541 318.108 62.6986C317.859 62.236 317.734 61.7022 317.734 61.0972C317.734 60.4923 317.855 59.9621 318.097 59.5066C318.346 59.0439 318.691 58.6881 319.133 58.439C319.581 58.1899 320.094 58.0653 320.67 58.0653C321.225 58.0653 321.72 58.1863 322.154 58.4283C322.588 58.6703 322.926 59.0119 323.168 59.4532C323.41 59.8873 323.531 60.3891 323.531 60.9584ZM322.261 60.5741C322.254 60.1257 322.093 59.7663 321.78 59.4959C321.467 59.2254 321.079 59.0902 320.617 59.0902C320.197 59.0902 319.837 59.2254 319.538 59.4959C319.239 59.7592 319.062 60.1186 319.005 60.5741H322.261ZM326.864 64.1398C326.401 64.1398 325.985 64.0579 325.615 63.8942C325.252 63.7234 324.964 63.4957 324.75 63.211C324.537 62.9192 324.423 62.5954 324.409 62.2395H325.668C325.69 62.4886 325.807 62.6986 326.021 62.8694C326.241 63.0331 326.515 63.1149 326.843 63.1149C327.184 63.1149 327.448 63.0509 327.633 62.9228C327.825 62.7875 327.921 62.6167 327.921 62.4103C327.921 62.1897 327.814 62.026 327.601 61.9193C327.394 61.8125 327.063 61.6951 326.608 61.567C326.166 61.446 325.807 61.3285 325.529 61.2147C325.252 61.1008 325.01 60.9264 324.804 60.6916C324.604 60.4567 324.505 60.1471 324.505 59.7628C324.505 59.4496 324.597 59.1649 324.782 58.9087C324.967 58.6454 325.231 58.439 325.572 58.2895C325.921 58.1401 326.319 58.0653 326.768 58.0653C327.437 58.0653 327.974 58.2362 328.38 58.5778C328.793 58.9123 329.013 59.3713 329.042 59.9549H327.825C327.803 59.6916 327.697 59.4816 327.504 59.3251C327.312 59.1685 327.053 59.0902 326.725 59.0902C326.405 59.0902 326.159 59.1507 325.988 59.2717C325.818 59.3927 325.732 59.5528 325.732 59.7521C325.732 59.9087 325.789 60.0403 325.903 60.1471C326.017 60.2539 326.156 60.3393 326.319 60.4033C326.483 60.4602 326.725 60.535 327.045 60.6275C327.472 60.7414 327.821 60.8588 328.092 60.9798C328.369 61.0937 328.608 61.2645 328.807 61.4922C329.006 61.72 329.109 62.0224 329.116 62.3997C329.116 62.7342 329.024 63.0331 328.839 63.2964C328.654 63.5597 328.391 63.7661 328.049 63.9156C327.714 64.0651 327.319 64.1398 326.864 64.1398ZM335.908 57.1472C336.719 57.1472 337.42 57.2967 338.011 57.5956C338.602 57.8945 339.05 58.3144 339.356 58.8553C339.669 59.3891 339.826 60.0119 339.826 60.7236C339.826 61.2929 339.726 61.8374 339.527 62.357C339.335 62.8765 339.054 63.3 338.684 63.6274C338.321 63.9547 337.89 64.1184 337.392 64.1184C337.029 64.1184 336.744 64.0401 336.538 63.8836C336.332 63.7199 336.203 63.4921 336.154 63.2003C335.933 63.485 335.655 63.7092 335.321 63.8729C334.986 64.0366 334.638 64.1184 334.275 64.1184C333.727 64.1184 333.296 63.9547 332.983 63.6274C332.677 63.2928 332.524 62.8409 332.524 62.2715C332.524 61.7306 332.634 61.2253 332.855 60.7556C333.083 60.2859 333.399 59.9122 333.805 59.6347C334.211 59.35 334.666 59.2076 335.171 59.2076C335.791 59.2076 336.225 59.4176 336.474 59.8375L336.57 59.3037H337.627L337.093 62.357C337.072 62.5064 337.061 62.6381 337.061 62.7519C337.061 62.937 337.097 63.0758 337.168 63.1683C337.246 63.2608 337.381 63.3071 337.573 63.3071C337.844 63.3071 338.075 63.1754 338.267 62.9121C338.46 62.6416 338.602 62.3107 338.694 61.9193C338.794 61.5278 338.844 61.147 338.844 60.777C338.844 59.8731 338.581 59.1827 338.054 58.7059C337.527 58.229 336.762 57.9906 335.759 57.9906C334.919 57.9906 334.164 58.1899 333.495 58.5885C332.833 58.987 332.314 59.535 331.937 60.2325C331.56 60.93 331.371 61.7057 331.371 62.5598C331.371 63.4708 331.641 64.1647 332.182 64.6415C332.723 65.1184 333.495 65.3568 334.499 65.3568C335.175 65.3568 335.766 65.2323 336.271 64.9832L336.431 65.7945C335.784 66.0721 335.058 66.2109 334.253 66.2109C333.478 66.2109 332.798 66.065 332.214 65.7732C331.631 65.4814 331.179 65.065 330.859 64.5241C330.538 63.9903 330.378 63.3676 330.378 62.6559C330.378 61.6381 330.613 60.7093 331.083 59.8695C331.56 59.0297 332.218 58.3678 333.058 57.8839C333.897 57.3928 334.848 57.1472 335.908 57.1472ZM334.648 63.179C334.947 63.179 335.218 63.0936 335.46 62.9228C335.709 62.7448 335.905 62.5135 336.047 62.2288C336.189 61.937 336.26 61.6275 336.26 61.3001C336.26 60.9584 336.164 60.6809 335.972 60.4674C335.787 60.2467 335.524 60.1364 335.182 60.1364C334.876 60.1364 334.606 60.2325 334.371 60.4247C334.143 60.6097 333.965 60.8517 333.837 61.1506C333.716 61.4495 333.656 61.7627 333.656 62.0901C333.656 62.4246 333.737 62.6915 333.901 62.8907C334.065 63.0829 334.314 63.179 334.648 63.179ZM343.513 64.1398C343.051 64.1398 342.634 64.0579 342.264 63.8942C341.901 63.7234 341.613 63.4957 341.4 63.211C341.186 62.9192 341.072 62.5954 341.058 62.2395H342.318C342.339 62.4886 342.456 62.6986 342.67 62.8694C342.891 63.0331 343.165 63.1149 343.492 63.1149C343.834 63.1149 344.097 63.0509 344.282 62.9228C344.474 62.7875 344.57 62.6167 344.57 62.4103C344.57 62.1897 344.463 62.026 344.25 61.9193C344.044 61.8125 343.713 61.6951 343.257 61.567C342.816 61.446 342.456 61.3285 342.179 61.2147C341.901 61.1008 341.659 60.9264 341.453 60.6916C341.254 60.4567 341.154 60.1471 341.154 59.7628C341.154 59.4496 341.247 59.1649 341.432 58.9087C341.617 58.6454 341.88 58.439 342.222 58.2895C342.57 58.1401 342.969 58.0653 343.417 58.0653C344.086 58.0653 344.624 58.2362 345.029 58.5778C345.442 58.9123 345.663 59.3713 345.691 59.9549H344.474C344.453 59.6916 344.346 59.4816 344.154 59.3251C343.962 59.1685 343.702 59.0902 343.375 59.0902C343.054 59.0902 342.809 59.1507 342.638 59.2717C342.467 59.3927 342.382 59.5528 342.382 59.7521C342.382 59.9087 342.439 60.0403 342.552 60.1471C342.666 60.2539 342.805 60.3393 342.969 60.4033C343.133 60.4602 343.375 60.535 343.695 60.6275C344.122 60.7414 344.471 60.8588 344.741 60.9798C345.019 61.0937 345.257 61.2645 345.456 61.4922C345.656 61.72 345.759 62.0224 345.766 62.3997C345.766 62.7342 345.673 63.0331 345.488 63.2964C345.303 63.5597 345.04 63.7661 344.698 63.9156C344.364 64.0651 343.969 64.1398 343.513 64.1398ZM350.123 58.0653C350.572 58.0653 350.97 58.1614 351.319 58.3536C351.675 58.5458 351.953 58.8304 352.152 59.2076C352.358 59.5848 352.461 60.0403 352.461 60.5741V64.0437H351.255V60.7556C351.255 60.2289 351.123 59.8268 350.86 59.5493C350.597 59.2646 350.237 59.1222 349.782 59.1222C349.326 59.1222 348.963 59.2646 348.693 59.5493C348.43 59.8268 348.298 60.2289 348.298 60.7556V64.0437H347.081V56.1437H348.298V58.8447C348.504 58.5956 348.764 58.4034 349.077 58.2682C349.397 58.133 349.746 58.0653 350.123 58.0653ZM353.608 61.0759C353.608 60.4852 353.729 59.9621 353.971 59.5066C354.22 59.0511 354.555 58.6988 354.975 58.4497C355.402 58.1935 355.871 58.0653 356.384 58.0653C356.846 58.0653 357.248 58.1579 357.59 58.3429C357.939 58.5208 358.216 58.745 358.423 59.0155V58.1614H359.651V64.0437H358.423V63.1683C358.216 63.4459 357.935 63.6772 357.579 63.8622C357.224 64.0473 356.818 64.1398 356.362 64.1398C355.857 64.1398 355.394 64.0117 354.975 63.7555C354.555 63.4921 354.22 63.1292 353.971 62.6665C353.729 62.1968 353.608 61.6666 353.608 61.0759ZM358.423 61.0972C358.423 60.6916 358.337 60.3393 358.167 60.0403C358.003 59.7414 357.786 59.5137 357.515 59.3571C357.245 59.2005 356.953 59.1222 356.64 59.1222C356.327 59.1222 356.035 59.2005 355.765 59.3571C355.494 59.5066 355.274 59.7307 355.103 60.0297C354.939 60.3215 354.857 60.6702 354.857 61.0759C354.857 61.4815 354.939 61.8374 355.103 62.1434C355.274 62.4495 355.494 62.6843 355.765 62.848C356.042 63.0046 356.334 63.0829 356.64 63.0829C356.953 63.0829 357.245 63.0046 357.515 62.848C357.786 62.6915 358.003 62.4637 358.167 62.1648C358.337 61.8588 358.423 61.5029 358.423 61.0972ZM360.843 61.0759C360.843 60.4852 360.964 59.9621 361.206 59.5066C361.455 59.0511 361.79 58.6988 362.21 58.4497C362.637 58.1935 363.11 58.0653 363.63 58.0653C364.014 58.0653 364.391 58.1508 364.761 58.3216C365.139 58.4853 365.437 58.7059 365.658 58.9835V56.1437H366.886V64.0437H365.658V63.1576C365.459 63.4423 365.181 63.6772 364.825 63.8622C364.477 64.0473 364.075 64.1398 363.619 64.1398C363.107 64.1398 362.637 64.0117 362.21 63.7555C361.79 63.4921 361.455 63.1292 361.206 62.6665C360.964 62.1968 360.843 61.6666 360.843 61.0759ZM365.658 61.0972C365.658 60.6916 365.573 60.3393 365.402 60.0403C365.238 59.7414 365.021 59.5137 364.751 59.3571C364.48 59.2005 364.188 59.1222 363.875 59.1222C363.562 59.1222 363.27 59.2005 363 59.3571C362.729 59.5066 362.509 59.7307 362.338 60.0297C362.174 60.3215 362.092 60.6702 362.092 61.0759C362.092 61.4815 362.174 61.8374 362.338 62.1434C362.509 62.4495 362.729 62.6843 363 62.848C363.277 63.0046 363.569 63.0829 363.875 63.0829C364.188 63.0829 364.48 63.0046 364.751 62.848C365.021 62.6915 365.238 62.4637 365.402 62.1648C365.573 61.8588 365.658 61.5029 365.658 61.0972ZM371.036 64.1398C370.481 64.1398 369.979 64.0152 369.53 63.7661C369.082 63.5099 368.73 63.1541 368.474 62.6986C368.217 62.236 368.089 61.7022 368.089 61.0972C368.089 60.4994 368.221 59.9692 368.484 59.5066C368.748 59.0439 369.107 58.6881 369.563 58.439C370.018 58.1899 370.527 58.0653 371.089 58.0653C371.651 58.0653 372.16 58.1899 372.616 58.439C373.071 58.6881 373.431 59.0439 373.694 59.5066C373.957 59.9692 374.089 60.4994 374.089 61.0972C374.089 61.6951 373.954 62.2253 373.683 62.6879C373.413 63.1505 373.043 63.5099 372.573 63.7661C372.11 64.0152 371.598 64.1398 371.036 64.1398ZM371.036 63.0829C371.349 63.0829 371.641 63.0082 371.911 62.8587C372.189 62.7092 372.413 62.4851 372.584 62.1861C372.755 61.8872 372.84 61.5243 372.84 61.0972C372.84 60.6702 372.758 60.3108 372.594 60.019C372.431 59.7201 372.214 59.4959 371.943 59.3464C371.673 59.197 371.381 59.1222 371.068 59.1222C370.755 59.1222 370.463 59.197 370.192 59.3464C369.929 59.4959 369.719 59.7201 369.563 60.019C369.406 60.3108 369.328 60.6702 369.328 61.0972C369.328 61.7306 369.488 62.2217 369.808 62.5705C370.135 62.9121 370.545 63.0829 371.036 63.0829ZM383.192 58.1614L381.367 64.0437H380.085L378.9 59.6987L377.715 64.0437H376.434L374.598 58.1614H375.837L377.064 62.8907L378.313 58.1614H379.584L380.779 62.8694L381.996 58.1614H383.192ZM386.472 58.0653C386.927 58.0653 387.329 58.1579 387.678 58.3429C388.034 58.5208 388.311 58.745 388.511 59.0155V58.1614H389.738V64.1398C389.738 64.6807 389.624 65.1611 389.397 65.581C389.169 66.008 388.838 66.3425 388.404 66.5845C387.977 66.8265 387.464 66.9475 386.867 66.9475C386.069 66.9475 385.408 66.7589 384.881 66.3817C384.354 66.0116 384.055 65.5063 383.984 64.8657H385.19C385.283 65.1718 385.479 65.4173 385.778 65.6023C386.084 65.7945 386.447 65.8906 386.867 65.8906C387.358 65.8906 387.753 65.7411 388.052 65.4422C388.358 65.1433 388.511 64.7091 388.511 64.1398V63.1576C388.304 63.4352 388.023 63.6701 387.667 63.8622C387.318 64.0473 386.92 64.1398 386.472 64.1398C385.959 64.1398 385.489 64.0117 385.062 63.7555C384.642 63.4921 384.308 63.1292 384.059 62.6665C383.817 62.1968 383.696 61.6666 383.696 61.0759C383.696 60.4852 383.817 59.9621 384.059 59.5066C384.308 59.0511 384.642 58.6988 385.062 58.4497C385.489 58.1935 385.959 58.0653 386.472 58.0653ZM388.511 61.0972C388.511 60.6916 388.425 60.3393 388.254 60.0403C388.091 59.7414 387.874 59.5137 387.603 59.3571C387.333 59.2005 387.041 59.1222 386.728 59.1222C386.415 59.1222 386.123 59.2005 385.852 59.3571C385.582 59.5066 385.361 59.7307 385.19 60.0297C385.027 60.3215 384.945 60.6702 384.945 61.0759C384.945 61.4815 385.027 61.8374 385.19 62.1434C385.361 62.4495 385.582 62.6843 385.852 62.848C386.13 63.0046 386.422 63.0829 386.728 63.0829C387.041 63.0829 387.333 63.0046 387.603 62.848C387.874 62.6915 388.091 62.4637 388.254 62.1648C388.425 61.8588 388.511 61.5029 388.511 61.0972ZM392.554 59.0155C392.732 58.7166 392.967 58.4853 393.258 58.3216C393.557 58.1508 393.91 58.0653 394.315 58.0653V59.3251H394.006C393.529 59.3251 393.166 59.4461 392.917 59.688C392.675 59.93 392.554 60.3499 392.554 60.9478V64.0437H391.337V58.1614H392.554V59.0155ZM397.985 64.1398C397.43 64.1398 396.929 64.0152 396.48 63.7661C396.032 63.5099 395.68 63.1541 395.423 62.6986C395.167 62.236 395.039 61.7022 395.039 61.0972C395.039 60.4994 395.171 59.9692 395.434 59.5066C395.697 59.0439 396.057 58.6881 396.512 58.439C396.968 58.1899 397.477 58.0653 398.039 58.0653C398.601 58.0653 399.11 58.1899 399.565 58.439C400.021 58.6881 400.38 59.0439 400.644 59.5066C400.907 59.9692 401.039 60.4994 401.039 61.0972C401.039 61.6951 400.903 62.2253 400.633 62.6879C400.363 63.1505 399.992 63.5099 399.523 63.7661C399.06 64.0152 398.548 64.1398 397.985 64.1398ZM397.985 63.0829C398.299 63.0829 398.59 63.0082 398.861 62.8587C399.138 62.7092 399.363 62.4851 399.533 62.1861C399.704 61.8872 399.79 61.5243 399.79 61.0972C399.79 60.6702 399.708 60.3108 399.544 60.019C399.38 59.7201 399.163 59.4959 398.893 59.3464C398.622 59.197 398.331 59.1222 398.017 59.1222C397.704 59.1222 397.413 59.197 397.142 59.3464C396.879 59.4959 396.669 59.7201 396.512 60.019C396.356 60.3108 396.277 60.6702 396.277 61.0972C396.277 61.7306 396.437 62.2217 396.758 62.5705C397.085 62.9121 397.494 63.0829 397.985 63.0829ZM407.569 58.1614V64.0437H406.352V63.3498C406.16 63.5918 405.907 63.7839 405.594 63.9263C405.288 64.0615 404.961 64.1291 404.612 64.1291C404.149 64.1291 403.733 64.033 403.363 63.8409C403 63.6487 402.712 63.364 402.498 62.9868C402.292 62.6096 402.188 62.1541 402.188 61.6203V58.1614H403.395V61.4388C403.395 61.9655 403.526 62.3712 403.79 62.6559C404.053 62.9334 404.412 63.0722 404.868 63.0722C405.323 63.0722 405.683 62.9334 405.946 62.6559C406.217 62.3712 406.352 61.9655 406.352 61.4388V58.1614H407.569ZM410.392 59.0262C410.598 58.7557 410.879 58.528 411.235 58.3429C411.591 58.1579 411.993 58.0653 412.441 58.0653C412.954 58.0653 413.42 58.1935 413.84 58.4497C414.267 58.6988 414.601 59.0511 414.843 59.5066C415.085 59.9621 415.206 60.4852 415.206 61.0759C415.206 61.6666 415.085 62.1968 414.843 62.6665C414.601 63.1292 414.267 63.4921 413.84 63.7555C413.42 64.0117 412.954 64.1398 412.441 64.1398C411.993 64.1398 411.594 64.0508 411.246 63.8729C410.897 63.6878 410.612 63.4601 410.392 63.1897V66.8407H409.175V58.1614H410.392V59.0262ZM413.968 61.0759C413.968 60.6702 413.883 60.3215 413.712 60.0297C413.548 59.7307 413.328 59.5066 413.05 59.3571C412.779 59.2005 412.488 59.1222 412.175 59.1222C411.868 59.1222 411.577 59.2005 411.299 59.3571C411.029 59.5137 410.808 59.7414 410.637 60.0403C410.474 60.3393 410.392 60.6916 410.392 61.0972C410.392 61.5029 410.474 61.8588 410.637 62.1648C410.808 62.4637 411.029 62.6915 411.299 62.848C411.577 63.0046 411.868 63.0829 412.175 63.0829C412.488 63.0829 412.779 63.0046 413.05 62.848C413.328 62.6843 413.548 62.4495 413.712 62.1434C413.883 61.8374 413.968 61.4815 413.968 61.0759ZM416.004 61.0759C416.004 60.4852 416.125 59.9621 416.367 59.5066C416.616 59.0511 416.951 58.6988 417.371 58.4497C417.798 58.1935 418.271 58.0653 418.791 58.0653C419.246 58.0653 419.648 58.1579 419.997 58.3429C420.353 58.528 420.627 58.7521 420.819 59.0155V58.1614H422.047V66.8407H420.819V63.1897C420.627 63.453 420.349 63.6772 419.986 63.8622C419.623 64.0473 419.21 64.1398 418.748 64.1398C418.243 64.1398 417.78 64.0117 417.36 63.7555C416.947 63.4921 416.616 63.1292 416.367 62.6665C416.125 62.1968 416.004 61.6666 416.004 61.0759ZM420.819 61.0972C420.819 60.6916 420.734 60.3393 420.563 60.0403C420.399 59.7414 420.182 59.5137 419.912 59.3571C419.641 59.2005 419.349 59.1222 419.036 59.1222C418.723 59.1222 418.431 59.2005 418.161 59.3571C417.89 59.5066 417.67 59.7307 417.499 60.0297C417.335 60.3215 417.253 60.6702 417.253 61.0759C417.253 61.4815 417.335 61.8374 417.499 62.1434C417.67 62.4495 417.89 62.6843 418.161 62.848C418.438 63.0046 418.73 63.0829 419.036 63.0829C419.349 63.0829 419.641 63.0046 419.912 62.848C420.182 62.6915 420.399 62.4637 420.563 62.1648C420.734 61.8588 420.819 61.5029 420.819 61.0972ZM423.239 61.0759C423.239 60.4852 423.36 59.9621 423.602 59.5066C423.852 59.0511 424.186 58.6988 424.606 58.4497C425.033 58.1935 425.503 58.0653 426.015 58.0653C426.478 58.0653 426.88 58.1579 427.221 58.3429C427.57 58.5208 427.848 58.745 428.054 59.0155V58.1614H429.282V64.0437H428.054V63.1683C427.848 63.4459 427.567 63.6772 427.211 63.8622C426.855 64.0473 426.449 64.1398 425.994 64.1398C425.488 64.1398 425.026 64.0117 424.606 63.7555C424.186 63.4921 423.852 63.1292 423.602 62.6665C423.36 62.1968 423.239 61.6666 423.239 61.0759ZM428.054 61.0972C428.054 60.6916 427.969 60.3393 427.798 60.0403C427.634 59.7414 427.417 59.5137 427.147 59.3571C426.876 59.2005 426.585 59.1222 426.271 59.1222C425.958 59.1222 425.666 59.2005 425.396 59.3571C425.126 59.5066 424.905 59.7307 424.734 60.0297C424.57 60.3215 424.489 60.6702 424.489 61.0759C424.489 61.4815 424.57 61.8374 424.734 62.1434C424.905 62.4495 425.126 62.6843 425.396 62.848C425.674 63.0046 425.965 63.0829 426.271 63.0829C426.585 63.0829 426.876 63.0046 427.147 62.848C427.417 62.6915 427.634 62.4637 427.798 62.1648C427.969 61.8588 428.054 61.5029 428.054 61.0972ZM432.3 59.1543V62.4103C432.3 62.631 432.35 62.7911 432.45 62.8907C432.556 62.9833 432.734 63.0295 432.983 63.0295H433.731V64.0437H432.77C432.222 64.0437 431.802 63.9156 431.51 63.6594C431.218 63.4032 431.073 62.9868 431.073 62.4103V59.1543H430.379V58.1614H431.073V56.6989H432.3V58.1614H433.731V59.1543H432.3ZM434.447 61.0759C434.447 60.4852 434.568 59.9621 434.81 59.5066C435.059 59.0511 435.393 58.6988 435.813 58.4497C436.24 58.1935 436.71 58.0653 437.222 58.0653C437.685 58.0653 438.087 58.1579 438.429 58.3429C438.778 58.5208 439.055 58.745 439.262 59.0155V58.1614H440.489V64.0437H439.262V63.1683C439.055 63.4459 438.774 63.6772 438.418 63.8622C438.062 64.0473 437.657 64.1398 437.201 64.1398C436.696 64.1398 436.233 64.0117 435.813 63.7555C435.393 63.4921 435.059 63.1292 434.81 62.6665C434.568 62.1968 434.447 61.6666 434.447 61.0759ZM439.262 61.0972C439.262 60.6916 439.176 60.3393 439.005 60.0403C438.842 59.7414 438.625 59.5137 438.354 59.3571C438.084 59.2005 437.792 59.1222 437.479 59.1222C437.166 59.1222 436.874 59.2005 436.603 59.3571C436.333 59.5066 436.112 59.7307 435.941 60.0297C435.778 60.3215 435.696 60.6702 435.696 61.0759C435.696 61.4815 435.778 61.8374 435.941 62.1434C436.112 62.4495 436.333 62.6843 436.603 62.848C436.881 63.0046 437.173 63.0829 437.479 63.0829C437.792 63.0829 438.084 63.0046 438.354 62.848C438.625 62.6915 438.842 62.4637 439.005 62.1648C439.176 61.8588 439.262 61.5029 439.262 61.0972ZM443.305 59.0155C443.483 58.7166 443.718 58.4853 444.009 58.3216C444.308 58.1508 444.661 58.0653 445.066 58.0653V59.3251H444.757C444.28 59.3251 443.917 59.4461 443.668 59.688C443.426 59.93 443.305 60.3499 443.305 60.9478V64.0437H442.088V58.1614H443.305V59.0155ZM446.676 64.1184C446.455 64.1184 446.27 64.0437 446.121 63.8942C445.971 63.7448 445.897 63.5597 445.897 63.3391C445.897 63.1185 445.971 62.9334 446.121 62.784C446.27 62.6345 446.455 62.5598 446.676 62.5598C446.89 62.5598 447.071 62.6345 447.22 62.784C447.37 62.9334 447.445 63.1185 447.445 63.3391C447.445 63.5597 447.37 63.7448 447.22 63.8942C447.071 64.0437 446.89 64.1184 446.676 64.1184ZM448.354 61.0972C448.354 60.4923 448.475 59.9621 448.717 59.5066C448.966 59.0439 449.308 58.6881 449.742 58.439C450.176 58.1899 450.675 58.0653 451.237 58.0653C451.948 58.0653 452.536 58.2362 452.998 58.5778C453.468 58.9123 453.785 59.3927 453.948 60.019H452.635C452.529 59.7272 452.358 59.4994 452.123 59.3357C451.888 59.1721 451.593 59.0902 451.237 59.0902C450.739 59.0902 450.34 59.2681 450.041 59.624C449.749 59.9727 449.603 60.4638 449.603 61.0972C449.603 61.7306 449.749 62.2253 450.041 62.5811C450.34 62.937 450.739 63.1149 451.237 63.1149C451.941 63.1149 452.408 62.8053 452.635 62.1861H453.948C453.778 62.784 453.457 63.2608 452.988 63.6167C452.518 63.9654 451.934 64.1398 451.237 64.1398C450.675 64.1398 450.176 64.0152 449.742 63.7661C449.308 63.5099 448.966 63.1541 448.717 62.6986C448.475 62.236 448.354 61.7022 448.354 61.0972ZM457.713 64.1398C457.158 64.1398 456.656 64.0152 456.207 63.7661C455.759 63.5099 455.407 63.1541 455.151 62.6986C454.894 62.236 454.766 61.7022 454.766 61.0972C454.766 60.4994 454.898 59.9692 455.161 59.5066C455.425 59.0439 455.784 58.6881 456.239 58.439C456.695 58.1899 457.204 58.0653 457.766 58.0653C458.328 58.0653 458.837 58.1899 459.293 58.439C459.748 58.6881 460.108 59.0439 460.371 59.5066C460.634 59.9692 460.766 60.4994 460.766 61.0972C460.766 61.6951 460.631 62.2253 460.36 62.6879C460.09 63.1505 459.72 63.5099 459.25 63.7661C458.787 64.0152 458.275 64.1398 457.713 64.1398ZM457.713 63.0829C458.026 63.0829 458.318 63.0082 458.588 62.8587C458.866 62.7092 459.09 62.4851 459.261 62.1861C459.431 61.8872 459.517 61.5243 459.517 61.0972C459.517 60.6702 459.435 60.3108 459.271 60.019C459.108 59.7201 458.891 59.4959 458.62 59.3464C458.35 59.197 458.058 59.1222 457.745 59.1222C457.432 59.1222 457.14 59.197 456.869 59.3464C456.606 59.4959 456.396 59.7201 456.239 60.019C456.083 60.3108 456.005 60.6702 456.005 61.0972C456.005 61.7306 456.165 62.2217 456.485 62.5705C456.812 62.9121 457.222 63.0829 457.713 63.0829ZM469.09 58.0653C469.552 58.0653 469.965 58.1614 470.328 58.3536C470.698 58.5458 470.986 58.8304 471.193 59.2076C471.406 59.5848 471.513 60.0403 471.513 60.5741V64.0437H470.307V60.7556C470.307 60.2289 470.175 59.8268 469.912 59.5493C469.648 59.2646 469.289 59.1222 468.833 59.1222C468.378 59.1222 468.015 59.2646 467.745 59.5493C467.481 59.8268 467.35 60.2289 467.35 60.7556V64.0437H466.143V60.7556C466.143 60.2289 466.012 59.8268 465.748 59.5493C465.485 59.2646 465.125 59.1222 464.67 59.1222C464.214 59.1222 463.851 59.2646 463.581 59.5493C463.318 59.8268 463.186 60.2289 463.186 60.7556V64.0437H461.969V58.1614H463.186V58.834C463.385 58.592 463.638 58.4034 463.944 58.2682C464.25 58.133 464.577 58.0653 464.926 58.0653C465.396 58.0653 465.816 58.165 466.186 58.3643C466.556 58.5635 466.841 58.8518 467.04 59.229C467.218 58.8731 467.495 58.592 467.873 58.3856C468.25 58.1721 468.656 58.0653 469.09 58.0653Z" fill="white"/>
<rect x="531.303" y="52.0437" width="21.3513" height="21.3513" rx="8.00672" fill="white"/>
<g clip-path="url(#clip1_1623_44)">
<path d="M541.978 55.3799C543.571 55.3799 545.098 56.0126 546.224 57.1387C547.351 58.2649 547.983 59.7923 547.983 61.3849C547.983 63.871 546.088 66.4759 542.379 69.2582C542.263 69.3448 542.123 69.3916 541.978 69.3916C541.834 69.3916 541.693 69.3448 541.578 69.2582C537.868 66.4759 535.973 63.871 535.973 61.3849C535.973 59.7923 536.606 58.2649 537.732 57.1387C538.858 56.0126 540.386 55.3799 541.978 55.3799ZM541.978 59.3832C541.447 59.3832 540.938 59.5941 540.563 59.9695C540.187 60.3449 539.977 60.854 539.977 61.3849C539.977 61.9158 540.187 62.4249 540.563 62.8003C540.938 63.1757 541.447 63.3866 541.978 63.3866C542.509 63.3866 543.018 63.1757 543.394 62.8003C543.769 62.4249 543.98 61.9158 543.98 61.3849C543.98 60.854 543.769 60.3449 543.394 59.9695C543.018 59.5941 542.509 59.3832 541.978 59.3832Z" fill="#F4AA08"/>
</g>
<path d="M562.764 60.2325C563.162 60.3037 563.5 60.5136 563.778 60.8624C564.055 61.2111 564.194 61.6061 564.194 62.0474C564.194 62.4246 564.095 62.7662 563.895 63.0722C563.703 63.3711 563.422 63.6096 563.052 63.7875C562.682 63.9583 562.251 64.0437 561.76 64.0437H558.792V56.6241H561.621C562.127 56.6241 562.561 56.7095 562.924 56.8804C563.287 57.0512 563.561 57.2825 563.746 57.5743C563.931 57.859 564.023 58.1792 564.023 58.5351C564.023 58.9621 563.91 59.318 563.682 59.6026C563.454 59.8873 563.148 60.0973 562.764 60.2325ZM560.009 59.7414H561.515C561.913 59.7414 562.223 59.6525 562.443 59.4745C562.671 59.2895 562.785 59.0262 562.785 58.6845C562.785 58.35 562.671 58.0903 562.443 57.9052C562.223 57.7131 561.913 57.617 561.515 57.617H560.009V59.7414ZM561.653 63.0509C562.066 63.0509 562.39 62.9512 562.625 62.7519C562.86 62.5527 562.977 62.2751 562.977 61.9193C562.977 61.5563 562.853 61.268 562.604 61.0545C562.354 60.841 562.024 60.7343 561.611 60.7343H560.009V63.0509H561.653ZM570.844 58.1614V64.0437H569.627V63.3498C569.435 63.5918 569.182 63.7839 568.869 63.9263C568.563 64.0615 568.235 64.1291 567.887 64.1291C567.424 64.1291 567.008 64.033 566.638 63.8409C566.275 63.6487 565.986 63.364 565.773 62.9868C565.567 62.6096 565.463 62.1541 565.463 61.6203V58.1614H566.67V61.4388C566.67 61.9655 566.801 62.3712 567.065 62.6559C567.328 62.9334 567.687 63.0722 568.143 63.0722C568.598 63.0722 568.958 62.9334 569.221 62.6559C569.492 62.3712 569.627 61.9655 569.627 61.4388V58.1614H570.844ZM573.069 57.3821C572.848 57.3821 572.663 57.3074 572.514 57.1579C572.364 57.0085 572.29 56.8234 572.29 56.6028C572.29 56.3822 572.364 56.1971 572.514 56.0477C572.663 55.8982 572.848 55.8235 573.069 55.8235C573.282 55.8235 573.464 55.8982 573.613 56.0477C573.763 56.1971 573.838 56.3822 573.838 56.6028C573.838 56.8234 573.763 57.0085 573.613 57.1579C573.464 57.3074 573.282 57.3821 573.069 57.3821ZM573.667 58.1614V64.0437H572.45V58.1614H573.667ZM576.482 56.1437V64.0437H575.265V56.1437H576.482ZM577.674 61.0759C577.674 60.4852 577.795 59.9621 578.037 59.5066C578.286 59.0511 578.62 58.6988 579.04 58.4497C579.467 58.1935 579.941 58.0653 580.46 58.0653C580.844 58.0653 581.222 58.1508 581.592 58.3216C581.969 58.4853 582.268 58.7059 582.488 58.9835V56.1437H583.716V64.0437H582.488V63.1576C582.289 63.4423 582.012 63.6772 581.656 63.8622C581.307 64.0473 580.905 64.1398 580.449 64.1398C579.937 64.1398 579.467 64.0117 579.04 63.7555C578.62 63.4921 578.286 63.1292 578.037 62.6665C577.795 62.1968 577.674 61.6666 577.674 61.0759ZM582.488 61.0972C582.488 60.6916 582.403 60.3393 582.232 60.0403C582.069 59.7414 581.851 59.5137 581.581 59.3571C581.311 59.2005 581.019 59.1222 580.706 59.1222C580.392 59.1222 580.101 59.2005 579.83 59.3571C579.56 59.5066 579.339 59.7307 579.168 60.0297C579.005 60.3215 578.923 60.6702 578.923 61.0759C578.923 61.4815 579.005 61.8374 579.168 62.1434C579.339 62.4495 579.56 62.6843 579.83 62.848C580.108 63.0046 580.4 63.0829 580.706 63.0829C581.019 63.0829 581.311 63.0046 581.581 62.848C581.851 62.6915 582.069 62.4637 582.232 62.1648C582.403 61.8588 582.488 61.5029 582.488 61.0972ZM585.934 57.3821C585.713 57.3821 585.528 57.3074 585.379 57.1579C585.229 57.0085 585.155 56.8234 585.155 56.6028C585.155 56.3822 585.229 56.1971 585.379 56.0477C585.528 55.8982 585.713 55.8235 585.934 55.8235C586.147 55.8235 586.329 55.8982 586.478 56.0477C586.628 56.1971 586.702 56.3822 586.702 56.6028C586.702 56.8234 586.628 57.0085 586.478 57.1579C586.329 57.3074 586.147 57.3821 585.934 57.3821ZM586.532 58.1614V64.0437H585.315V58.1614H586.532ZM591.097 58.0653C591.56 58.0653 591.973 58.1614 592.336 58.3536C592.706 58.5458 592.994 58.8304 593.2 59.2076C593.407 59.5848 593.51 60.0403 593.51 60.5741V64.0437H592.304V60.7556C592.304 60.2289 592.172 59.8268 591.909 59.5493C591.645 59.2646 591.286 59.1222 590.83 59.1222C590.375 59.1222 590.012 59.2646 589.742 59.5493C589.478 59.8268 589.347 60.2289 589.347 60.7556V64.0437H588.13V58.1614H589.347V58.834C589.546 58.592 589.798 58.4034 590.104 58.2682C590.418 58.133 590.749 58.0653 591.097 58.0653ZM597.432 58.0653C597.888 58.0653 598.29 58.1579 598.639 58.3429C598.995 58.5208 599.272 58.745 599.471 59.0155V58.1614H600.699V64.1398C600.699 64.6807 600.585 65.1611 600.358 65.581C600.13 66.008 599.799 66.3425 599.365 66.5845C598.938 66.8265 598.425 66.9475 597.827 66.9475C597.03 66.9475 596.368 66.7589 595.842 66.3817C595.315 66.0116 595.016 65.5063 594.945 64.8657H596.151C596.244 65.1718 596.44 65.4173 596.738 65.6023C597.045 65.7945 597.407 65.8906 597.827 65.8906C598.318 65.8906 598.713 65.7411 599.012 65.4422C599.318 65.1433 599.471 64.7091 599.471 64.1398V63.1576C599.265 63.4352 598.984 63.6701 598.628 63.8622C598.279 64.0473 597.881 64.1398 597.432 64.1398C596.92 64.1398 596.45 64.0117 596.023 63.7555C595.603 63.4921 595.269 63.1292 595.02 62.6665C594.778 62.1968 594.657 61.6666 594.657 61.0759C594.657 60.4852 594.778 59.9621 595.02 59.5066C595.269 59.0511 595.603 58.6988 596.023 58.4497C596.45 58.1935 596.92 58.0653 597.432 58.0653ZM599.471 61.0972C599.471 60.6916 599.386 60.3393 599.215 60.0403C599.052 59.7414 598.834 59.5137 598.564 59.3571C598.294 59.2005 598.002 59.1222 597.689 59.1222C597.375 59.1222 597.084 59.2005 596.813 59.3571C596.543 59.5066 596.322 59.7307 596.151 60.0297C595.988 60.3215 595.906 60.6702 595.906 61.0759C595.906 61.4815 595.988 61.8374 596.151 62.1434C596.322 62.4495 596.543 62.6843 596.813 62.848C597.091 63.0046 597.383 63.0829 597.689 63.0829C598.002 63.0829 598.294 63.0046 598.564 62.848C598.834 62.6915 599.052 62.4637 599.215 62.1648C599.386 61.8588 599.471 61.5029 599.471 61.0972ZM611.167 64.0437H609.95L606.288 58.503V64.0437H605.071V56.6135H606.288L609.95 62.1434V56.6135H611.167V64.0437ZM615.316 64.1398C614.761 64.1398 614.259 64.0152 613.811 63.7661C613.363 63.5099 613.01 63.1541 612.754 62.6986C612.498 62.236 612.37 61.7022 612.37 61.0972C612.37 60.4994 612.501 59.9692 612.765 59.5066C613.028 59.0439 613.388 58.6881 613.843 58.439C614.299 58.1899 614.807 58.0653 615.37 58.0653C615.932 58.0653 616.441 58.1899 616.896 58.439C617.352 58.6881 617.711 59.0439 617.974 59.5066C618.238 59.9692 618.369 60.4994 618.369 61.0972C618.369 61.6951 618.234 62.2253 617.964 62.6879C617.693 63.1505 617.323 63.5099 616.854 63.7661C616.391 64.0152 615.878 64.1398 615.316 64.1398ZM615.316 63.0829C615.629 63.0829 615.921 63.0082 616.192 62.8587C616.469 62.7092 616.693 62.4851 616.864 62.1861C617.035 61.8872 617.12 61.5243 617.12 61.0972C617.12 60.6702 617.039 60.3108 616.875 60.019C616.711 59.7201 616.494 59.4959 616.224 59.3464C615.953 59.197 615.661 59.1222 615.348 59.1222C615.035 59.1222 614.743 59.197 614.473 59.3464C614.21 59.4959 614 59.7201 613.843 60.019C613.686 60.3108 613.608 60.6702 613.608 61.0972C613.608 61.7306 613.768 62.2217 614.089 62.5705C614.416 62.9121 614.825 63.0829 615.316 63.0829ZM620.064 64.1184C619.843 64.1184 619.658 64.0437 619.509 63.8942C619.359 63.7448 619.284 63.5597 619.284 63.3391C619.284 63.1185 619.359 62.9334 619.509 62.784C619.658 62.6345 619.843 62.5598 620.064 62.5598C620.277 62.5598 620.459 62.6345 620.608 62.784C620.758 62.9334 620.832 63.1185 620.832 63.3391C620.832 63.5597 620.758 63.7448 620.608 63.8942C620.459 64.0437 620.277 64.1184 620.064 64.1184ZM620.064 59.6347C619.843 59.6347 619.658 59.5599 619.509 59.4105C619.359 59.261 619.284 59.076 619.284 58.8553C619.284 58.6347 619.359 58.4497 619.509 58.3002C619.658 58.1508 619.843 58.076 620.064 58.076C620.277 58.076 620.459 58.1508 620.608 58.3002C620.758 58.4497 620.832 58.6347 620.832 58.8553C620.832 59.076 620.758 59.261 620.608 59.4105C620.459 59.5599 620.277 59.6347 620.064 59.6347ZM624.642 57.3714V56.2612H626.863V64.0437H625.635V57.3714H624.642ZM633.467 57.2006L630.499 64.0437H629.271L632.271 57.3287H628.321V56.2932H633.467V57.2006ZM634.348 57.3714V56.2612H636.569V64.0437H635.341V57.3714H634.348ZM639.735 62.5811L638.444 65.5276H637.654L638.412 62.5811H639.735ZM647.597 58.0653C647.518 57.738 647.376 57.4924 647.17 57.3287C646.963 57.165 646.675 57.0832 646.305 57.0832C645.743 57.0832 645.323 57.3003 645.045 57.7344C644.768 58.1614 644.622 58.8731 644.607 59.8695C644.792 59.5564 645.063 59.3144 645.419 59.1436C645.775 58.9728 646.159 58.8874 646.572 58.8874C647.041 58.8874 647.454 58.9906 647.81 59.197C648.173 59.3962 648.454 59.688 648.653 60.0724C648.86 60.4567 648.963 60.9157 648.963 61.4495C648.963 61.9477 648.863 62.3925 648.664 62.784C648.472 63.1754 648.184 63.485 647.799 63.7128C647.415 63.9334 646.953 64.0437 646.412 64.0437C645.679 64.0437 645.102 63.8836 644.682 63.5633C644.269 63.2359 643.978 62.7769 643.807 62.1861C643.643 61.5954 643.561 60.8588 643.561 59.9763C643.561 57.3714 644.479 56.069 646.316 56.069C647.027 56.069 647.586 56.2612 647.992 56.6455C648.404 57.0298 648.646 57.5031 648.718 58.0653H647.597ZM646.305 59.9122C645.871 59.9122 645.501 60.0439 645.195 60.3072C644.896 60.5634 644.746 60.9371 644.746 61.4282C644.746 61.9193 644.885 62.3107 645.163 62.6025C645.447 62.8872 645.842 63.0295 646.348 63.0295C646.796 63.0295 647.148 62.8907 647.404 62.6132C647.668 62.3356 647.799 61.9655 647.799 61.5029C647.799 61.0189 647.671 60.6346 647.415 60.3499C647.166 60.0581 646.796 59.9122 646.305 59.9122ZM651.841 59.1543V62.4103C651.841 62.631 651.891 62.7911 651.991 62.8907C652.097 62.9833 652.275 63.0295 652.524 63.0295H653.272V64.0437H652.311C651.763 64.0437 651.343 63.9156 651.051 63.6594C650.759 63.4032 650.614 62.9868 650.614 62.4103V59.1543H649.92V58.1614H650.614V56.6989H651.841V58.1614H653.272V59.1543H651.841ZM657.436 58.0653C657.884 58.0653 658.283 58.1614 658.632 58.3536C658.988 58.5458 659.265 58.8304 659.464 59.2076C659.671 59.5848 659.774 60.0403 659.774 60.5741V64.0437H658.568V60.7556C658.568 60.2289 658.436 59.8268 658.173 59.5493C657.909 59.2646 657.55 59.1222 657.094 59.1222C656.639 59.1222 656.276 59.2646 656.005 59.5493C655.742 59.8268 655.61 60.2289 655.61 60.7556V64.0437H654.393V56.1437H655.61V58.8447C655.817 58.5956 656.077 58.4034 656.39 58.2682C656.71 58.133 657.059 58.0653 657.436 58.0653ZM668.466 56.6241V57.617H665.317V59.8055H667.772V60.7983H665.317V64.0437H664.1V56.6241H668.466ZM670.811 56.1437V64.0437H669.594V56.1437H670.811ZM674.96 64.1398C674.405 64.1398 673.903 64.0152 673.455 63.7661C673.006 63.5099 672.654 63.1541 672.398 62.6986C672.142 62.236 672.014 61.7022 672.014 61.0972C672.014 60.4994 672.145 59.9692 672.409 59.5066C672.672 59.0439 673.031 58.6881 673.487 58.439C673.942 58.1899 674.451 58.0653 675.013 58.0653C675.576 58.0653 676.085 58.1899 676.54 58.439C676.996 58.6881 677.355 59.0439 677.618 59.5066C677.882 59.9692 678.013 60.4994 678.013 61.0972C678.013 61.6951 677.878 62.2253 677.608 62.6879C677.337 63.1505 676.967 63.5099 676.497 63.7661C676.035 64.0152 675.522 64.1398 674.96 64.1398ZM674.96 63.0829C675.273 63.0829 675.565 63.0082 675.835 62.8587C676.113 62.7092 676.337 62.4851 676.508 62.1861C676.679 61.8872 676.764 61.5243 676.764 61.0972C676.764 60.6702 676.682 60.3108 676.519 60.019C676.355 59.7201 676.138 59.4959 675.868 59.3464C675.597 59.197 675.305 59.1222 674.992 59.1222C674.679 59.1222 674.387 59.197 674.117 59.3464C673.853 59.4959 673.643 59.7201 673.487 60.019C673.33 60.3108 673.252 60.6702 673.252 61.0972C673.252 61.7306 673.412 62.2217 673.732 62.5705C674.06 62.9121 674.469 63.0829 674.96 63.0829ZM681.768 64.1398C681.213 64.1398 680.711 64.0152 680.263 63.7661C679.814 63.5099 679.462 63.1541 679.206 62.6986C678.95 62.236 678.821 61.7022 678.821 61.0972C678.821 60.4994 678.953 59.9692 679.216 59.5066C679.48 59.0439 679.839 58.6881 680.295 58.439C680.75 58.1899 681.259 58.0653 681.821 58.0653C682.384 58.0653 682.892 58.1899 683.348 58.439C683.803 58.6881 684.163 59.0439 684.426 59.5066C684.689 59.9692 684.821 60.4994 684.821 61.0972C684.821 61.6951 684.686 62.2253 684.415 62.6879C684.145 63.1505 683.775 63.5099 683.305 63.7661C682.843 64.0152 682.33 64.1398 681.768 64.1398ZM681.768 63.0829C682.081 63.0829 682.373 63.0082 682.643 62.8587C682.921 62.7092 683.145 62.4851 683.316 62.1861C683.487 61.8872 683.572 61.5243 683.572 61.0972C683.572 60.6702 683.49 60.3108 683.327 60.019C683.163 59.7201 682.946 59.4959 682.675 59.3464C682.405 59.197 682.113 59.1222 681.8 59.1222C681.487 59.1222 681.195 59.197 680.925 59.3464C680.661 59.4959 680.451 59.7201 680.295 60.019C680.138 60.3108 680.06 60.6702 680.06 61.0972C680.06 61.7306 680.22 62.2217 680.54 62.5705C680.868 62.9121 681.277 63.0829 681.768 63.0829ZM687.241 59.0155C687.419 58.7166 687.654 58.4853 687.946 58.3216C688.245 58.1508 688.597 58.0653 689.003 58.0653V59.3251H688.693C688.216 59.3251 687.853 59.4461 687.604 59.688C687.362 59.93 687.241 60.3499 687.241 60.9478V64.0437H686.024V58.1614H687.241V59.0155ZM561.237 80.1184C560.739 80.1184 560.291 80.033 559.892 79.8622C559.493 79.6843 559.18 79.4352 558.953 79.1149C558.725 78.7947 558.611 78.421 558.611 77.994H559.913C559.942 78.3142 560.066 78.5776 560.287 78.784C560.515 78.9904 560.831 79.0936 561.237 79.0936C561.657 79.0936 561.984 78.9939 562.219 78.7947C562.454 78.5883 562.572 78.3249 562.572 78.0047C562.572 77.7556 562.497 77.5527 562.347 77.3961C562.205 77.2396 562.024 77.1186 561.803 77.0332C561.589 76.9478 561.29 76.8552 560.906 76.7556C560.422 76.6275 560.027 76.4994 559.721 76.3713C559.422 76.2361 559.166 76.0297 558.953 75.7521C558.739 75.4745 558.632 75.1044 558.632 74.6418C558.632 74.2148 558.739 73.8412 558.953 73.5209C559.166 73.2006 559.465 72.9551 559.849 72.7843C560.234 72.6135 560.678 72.5281 561.184 72.5281C561.903 72.5281 562.49 72.7095 562.945 73.0725C563.408 73.4284 563.664 73.9194 563.714 74.5458H562.369C562.347 74.2753 562.219 74.044 561.984 73.8518C561.75 73.6597 561.44 73.5636 561.056 73.5636C560.707 73.5636 560.422 73.6526 560.202 73.8305C559.981 74.0084 559.871 74.2646 559.871 74.5991C559.871 74.8269 559.938 75.0155 560.073 75.1649C560.216 75.3073 560.394 75.4212 560.607 75.5066C560.821 75.592 561.113 75.6845 561.483 75.7841C561.974 75.9193 562.372 76.0546 562.678 76.1898C562.991 76.325 563.255 76.535 563.468 76.8197C563.689 77.0972 563.799 77.4709 563.799 77.9406C563.799 78.3178 563.696 78.6737 563.49 79.0082C563.29 79.3427 562.995 79.6131 562.604 79.8195C562.219 80.0188 561.764 80.1184 561.237 80.1184ZM566.655 75.1543V78.4103C566.655 78.631 566.705 78.7911 566.805 78.8907C566.911 78.9833 567.089 79.0295 567.338 79.0295H568.086V80.0437H567.125C566.577 80.0437 566.157 79.9156 565.865 79.6594C565.573 79.4032 565.427 78.9868 565.427 78.4103V75.1543H564.734V74.1614H565.427V72.6989H566.655V74.1614H568.086V75.1543H566.655ZM570.424 75.0155C570.602 74.7166 570.837 74.4853 571.129 74.3216C571.428 74.1508 571.78 74.0653 572.186 74.0653V75.3251H571.876C571.399 75.3251 571.036 75.4461 570.787 75.688C570.545 75.93 570.424 76.3499 570.424 76.9478V80.0437H569.207V74.1614H570.424V75.0155ZM578.696 76.9584C578.696 77.1791 578.682 77.3784 578.653 77.5563H574.159C574.194 78.026 574.369 78.4032 574.682 78.6879C574.995 78.9726 575.379 79.1149 575.835 79.1149C576.489 79.1149 576.952 78.8409 577.223 78.2929H578.536C578.358 78.8338 578.034 79.2786 577.564 79.6274C577.102 79.969 576.525 80.1398 575.835 80.1398C575.272 80.1398 574.767 80.0152 574.319 79.7661C573.877 79.5099 573.529 79.1541 573.273 78.6986C573.023 78.236 572.899 77.7022 572.899 77.0972C572.899 76.4923 573.02 75.9621 573.262 75.5066C573.511 75.0439 573.856 74.6881 574.297 74.439C574.746 74.1899 575.258 74.0653 575.835 74.0653C576.39 74.0653 576.884 74.1863 577.319 74.4283C577.753 74.6703 578.091 75.0119 578.333 75.4532C578.575 75.8873 578.696 76.3891 578.696 76.9584ZM577.425 76.5741C577.418 76.1257 577.258 75.7663 576.945 75.4959C576.632 75.2254 576.244 75.0902 575.781 75.0902C575.361 75.0902 575.002 75.2254 574.703 75.4959C574.404 75.7592 574.226 76.1186 574.169 76.5741H577.425ZM585.285 76.9584C585.285 77.1791 585.27 77.3784 585.242 77.5563H580.747C580.783 78.026 580.957 78.4032 581.271 78.6879C581.584 78.9726 581.968 79.1149 582.424 79.1149C583.078 79.1149 583.541 78.8409 583.811 78.2929H585.124C584.947 78.8338 584.623 79.2786 584.153 79.6274C583.69 79.969 583.114 80.1398 582.424 80.1398C581.861 80.1398 581.356 80.0152 580.908 79.7661C580.466 79.5099 580.118 79.1541 579.861 78.6986C579.612 78.236 579.488 77.7022 579.488 77.0972C579.488 76.4923 579.609 75.9621 579.851 75.5066C580.1 75.0439 580.445 74.6881 580.886 74.439C581.335 74.1899 581.847 74.0653 582.424 74.0653C582.979 74.0653 583.473 74.1863 583.907 74.4283C584.342 74.6703 584.68 75.0119 584.922 75.4532C585.164 75.8873 585.285 76.3891 585.285 76.9584ZM584.014 76.5741C584.007 76.1257 583.847 75.7663 583.534 75.4959C583.221 75.2254 582.833 75.0902 582.37 75.0902C581.95 75.0902 581.591 75.2254 581.292 75.4959C580.993 75.7592 580.815 76.1186 580.758 76.5741H584.014ZM587.902 75.1543V78.4103C587.902 78.631 587.952 78.7911 588.052 78.8907C588.158 78.9833 588.336 79.0295 588.585 79.0295H589.333V80.0437H588.372C587.824 80.0437 587.404 79.9156 587.112 79.6594C586.82 79.4032 586.674 78.9868 586.674 78.4103V75.1543H585.981V74.1614H586.674V72.6989H587.902V74.1614H589.333V75.1543H587.902ZM599.323 80.0437H598.106L594.445 74.503V80.0437H593.228V72.6135H594.445L598.106 78.1434V72.6135H599.323V80.0437ZM603.473 80.1398C602.918 80.1398 602.416 80.0152 601.968 79.7661C601.519 79.5099 601.167 79.1541 600.911 78.6986C600.655 78.236 600.526 77.7022 600.526 77.0972C600.526 76.4994 600.658 75.9692 600.921 75.5066C601.185 75.0439 601.544 74.6881 602 74.439C602.455 74.1899 602.964 74.0653 603.526 74.0653C604.089 74.0653 604.597 74.1899 605.053 74.439C605.508 74.6881 605.868 75.0439 606.131 75.5066C606.395 75.9692 606.526 76.4994 606.526 77.0972C606.526 77.6951 606.391 78.2253 606.121 78.6879C605.85 79.1505 605.48 79.5099 605.01 79.7661C604.548 80.0152 604.035 80.1398 603.473 80.1398ZM603.473 79.0829C603.786 79.0829 604.078 79.0082 604.348 78.8587C604.626 78.7092 604.85 78.4851 605.021 78.1861C605.192 77.8872 605.277 77.5243 605.277 77.0972C605.277 76.6702 605.195 76.3108 605.032 76.019C604.868 75.7201 604.651 75.4959 604.38 75.3464C604.11 75.197 603.818 75.1222 603.505 75.1222C603.192 75.1222 602.9 75.197 602.63 75.3464C602.366 75.4959 602.156 75.7201 602 76.019C601.843 76.3108 601.765 76.6702 601.765 77.0972C601.765 77.7306 601.925 78.2217 602.245 78.5705C602.573 78.9121 602.982 79.0829 603.473 79.0829ZM608.22 80.1184C608 80.1184 607.815 80.0437 607.665 79.8942C607.516 79.7448 607.441 79.5597 607.441 79.3391C607.441 79.1185 607.516 78.9334 607.665 78.784C607.815 78.6345 608 78.5598 608.22 78.5598C608.434 78.5598 608.615 78.6345 608.765 78.784C608.914 78.9334 608.989 79.1185 608.989 79.3391C608.989 79.5597 608.914 79.7448 608.765 79.8942C608.615 80.0437 608.434 80.1184 608.22 80.1184ZM608.22 75.6347C608 75.6347 607.815 75.5599 607.665 75.4105C607.516 75.261 607.441 75.076 607.441 74.8553C607.441 74.6347 607.516 74.4497 607.665 74.3002C607.815 74.1508 608 74.076 608.22 74.076C608.434 74.076 608.615 74.1508 608.765 74.3002C608.914 74.4497 608.989 74.6347 608.989 74.8553C608.989 75.076 608.914 75.261 608.765 75.4105C608.615 75.5599 608.434 75.6347 608.22 75.6347ZM612.799 73.3714V72.2612H615.02V80.0437H613.792V73.3714H612.799ZM621.709 73.3074H618.133V75.4318C618.282 75.2326 618.503 75.0653 618.795 74.9301C619.093 74.7948 619.41 74.7272 619.745 74.7272C620.342 74.7272 620.826 74.8553 621.197 75.1116C621.574 75.3678 621.841 75.6916 621.997 76.083C622.161 76.4745 622.243 76.8873 622.243 77.3214C622.243 77.8481 622.14 78.3178 621.933 78.7306C621.734 79.1363 621.431 79.4565 621.026 79.6914C620.627 79.9263 620.136 80.0437 619.552 80.0437C618.777 80.0437 618.154 79.8515 617.684 79.4672C617.215 79.0829 616.933 78.574 616.841 77.9406H618.026C618.104 78.2751 618.279 78.542 618.549 78.7413C618.819 78.9334 619.157 79.0295 619.563 79.0295C620.068 79.0295 620.446 78.8765 620.695 78.5705C620.951 78.2644 621.079 77.8588 621.079 77.3534C621.079 76.841 620.951 76.4496 620.695 76.1791C620.439 75.9016 620.061 75.7628 619.563 75.7628C619.214 75.7628 618.919 75.8517 618.677 76.0297C618.442 76.2005 618.271 76.4353 618.165 76.7343H617.012V72.2398H621.709V73.3074ZM623.51 76.051C623.51 74.8198 623.716 73.859 624.129 73.1686C624.549 72.4711 625.268 72.1224 626.285 72.1224C627.303 72.1224 628.018 72.4711 628.431 73.1686C628.851 73.859 629.061 74.8198 629.061 76.051C629.061 77.2965 628.851 78.2715 628.431 78.9761C628.018 79.6736 627.303 80.0223 626.285 80.0223C625.268 80.0223 624.549 79.6736 624.129 78.9761C623.716 78.2715 623.51 77.2965 623.51 76.051ZM627.865 76.051C627.865 75.4745 627.826 74.987 627.748 74.5885C627.677 74.1899 627.527 73.8661 627.299 73.617C627.072 73.3608 626.734 73.2326 626.285 73.2326C625.837 73.2326 625.499 73.3608 625.271 73.617C625.043 73.8661 624.89 74.1899 624.812 74.5885C624.741 74.987 624.705 75.4745 624.705 76.051C624.705 76.6489 624.741 77.1506 624.812 77.5563C624.883 77.962 625.033 78.2893 625.26 78.5384C625.495 78.7875 625.837 78.9121 626.285 78.9121C626.734 78.9121 627.072 78.7875 627.299 78.5384C627.534 78.2893 627.687 77.962 627.759 77.5563C627.83 77.1506 627.865 76.6489 627.865 76.051ZM631.843 78.5811L630.552 81.5276H629.762L630.52 78.5811H631.843ZM636.854 78.9868H640.302V80.0437H635.413V79.0936L638.851 73.681H635.413V72.6241H640.302V73.5743L636.854 78.9868ZM644.184 80.1398C643.629 80.1398 643.127 80.0152 642.679 79.7661C642.231 79.5099 641.878 79.1541 641.622 78.6986C641.366 78.236 641.238 77.7022 641.238 77.0972C641.238 76.4994 641.369 75.9692 641.633 75.5066C641.896 75.0439 642.256 74.6881 642.711 74.439C643.166 74.1899 643.675 74.0653 644.238 74.0653C644.8 74.0653 645.309 74.1899 645.764 74.439C646.22 74.6881 646.579 75.0439 646.842 75.5066C647.106 75.9692 647.237 76.4994 647.237 77.0972C647.237 77.6951 647.102 78.2253 646.832 78.6879C646.561 79.1505 646.191 79.5099 645.722 79.7661C645.259 80.0152 644.746 80.1398 644.184 80.1398ZM644.184 79.0829C644.497 79.0829 644.789 79.0082 645.06 78.8587C645.337 78.7092 645.561 78.4851 645.732 78.1861C645.903 77.8872 645.988 77.5243 645.988 77.0972C645.988 76.6702 645.907 76.3108 645.743 76.019C645.579 75.7201 645.362 75.4959 645.092 75.3464C644.821 75.197 644.529 75.1222 644.216 75.1222C643.903 75.1222 643.611 75.197 643.341 75.3464C643.078 75.4959 642.868 75.7201 642.711 76.019C642.554 76.3108 642.476 76.6702 642.476 77.0972C642.476 77.7306 642.636 78.2217 642.957 78.5705C643.284 78.9121 643.693 79.0829 644.184 79.0829ZM651.408 74.0653C651.871 74.0653 652.284 74.1614 652.647 74.3536C653.017 74.5458 653.305 74.8304 653.511 75.2076C653.718 75.5848 653.821 76.0403 653.821 76.5741V80.0437H652.615V76.7556C652.615 76.2289 652.483 75.8268 652.22 75.5493C651.956 75.2646 651.597 75.1222 651.141 75.1222C650.686 75.1222 650.323 75.2646 650.053 75.5493C649.789 75.8268 649.658 76.2289 649.658 76.7556V80.0437H648.441V74.1614H649.658V74.834C649.857 74.592 650.11 74.4034 650.416 74.2682C650.729 74.133 651.06 74.0653 651.408 74.0653ZM660.765 76.9584C660.765 77.1791 660.75 77.3784 660.722 77.5563H656.228C656.263 78.026 656.437 78.4032 656.751 78.6879C657.064 78.9726 657.448 79.1149 657.904 79.1149C658.558 79.1149 659.021 78.8409 659.291 78.2929H660.605C660.427 78.8338 660.103 79.2786 659.633 79.6274C659.17 79.969 658.594 80.1398 657.904 80.1398C657.341 80.1398 656.836 80.0152 656.388 79.7661C655.946 79.5099 655.598 79.1541 655.341 78.6986C655.092 78.236 654.968 77.7022 654.968 77.0972C654.968 76.4923 655.089 75.9621 655.331 75.5066C655.58 75.0439 655.925 74.6881 656.366 74.439C656.815 74.1899 657.327 74.0653 657.904 74.0653C658.459 74.0653 658.953 74.1863 659.388 74.4283C659.822 74.6703 660.16 75.0119 660.402 75.4532C660.644 75.8873 660.765 76.3891 660.765 76.9584ZM659.494 76.5741C659.487 76.1257 659.327 75.7663 659.014 75.4959C658.701 75.2254 658.313 75.0902 657.85 75.0902C657.43 75.0902 657.071 75.2254 656.772 75.4959C656.473 75.7592 656.295 76.1186 656.238 76.5741H659.494ZM662.453 80.1184C662.233 80.1184 662.048 80.0437 661.898 79.8942C661.749 79.7448 661.674 79.5597 661.674 79.3391C661.674 79.1185 661.749 78.9334 661.898 78.784C662.048 78.6345 662.233 78.5598 662.453 78.5598C662.667 78.5598 662.848 78.6345 662.998 78.784C663.147 78.9334 663.222 79.1185 663.222 79.3391C663.222 79.5597 663.147 79.7448 662.998 79.8942C662.848 80.0437 662.667 80.1184 662.453 80.1184ZM662.453 75.6347C662.233 75.6347 662.048 75.5599 661.898 75.4105C661.749 75.261 661.674 75.076 661.674 74.8553C661.674 74.6347 661.749 74.4497 661.898 74.3002C662.048 74.1508 662.233 74.076 662.453 74.076C662.667 74.076 662.848 74.1508 662.998 74.3002C663.147 74.4497 663.222 74.6347 663.222 74.8553C663.222 75.076 663.147 75.261 662.998 75.4105C662.848 75.5599 662.667 75.6347 662.453 75.6347ZM667.171 74.1828C667.213 73.5209 667.466 73.0049 667.929 72.6348C668.398 72.2647 668.996 72.0797 669.722 72.0797C670.22 72.0797 670.651 72.1686 671.014 72.3466C671.377 72.5245 671.651 72.7665 671.836 73.0725C672.021 73.3785 672.114 73.7237 672.114 74.1081C672.114 74.5493 671.996 74.9265 671.761 75.2397C671.526 75.5528 671.245 75.7628 670.918 75.8695V75.9122C671.338 76.0403 671.665 76.2752 671.9 76.6168C672.135 76.9513 672.252 77.3819 672.252 77.9086C672.252 78.3285 672.156 78.7021 671.964 79.0295C671.772 79.3569 671.487 79.6167 671.11 79.8088C670.733 79.9939 670.281 80.0864 669.754 80.0864C668.986 80.0864 668.352 79.8907 667.854 79.4992C667.363 79.1007 667.1 78.5313 667.064 77.7911H668.238C668.267 78.1683 668.413 78.4779 668.676 78.7199C668.939 78.9548 669.295 79.0722 669.744 79.0722C670.178 79.0722 670.512 78.9548 670.747 78.7199C670.982 78.4779 671.099 78.1683 671.099 77.7911C671.099 77.2929 670.939 76.9407 670.619 76.7343C670.306 76.5207 669.822 76.414 669.167 76.414H668.89V75.4105H669.178C669.754 75.4034 670.192 75.3073 670.491 75.1222C670.797 74.9372 670.95 74.6454 670.95 74.2468C670.95 73.9052 670.84 73.6348 670.619 73.4355C670.398 73.2291 670.085 73.1259 669.68 73.1259C669.281 73.1259 668.971 73.2291 668.751 73.4355C668.53 73.6348 668.398 73.8839 668.356 74.1828H667.171ZM674.844 75.9763C674.104 75.6062 673.734 75.0226 673.734 74.2255C673.734 73.8412 673.83 73.4889 674.022 73.1686C674.214 72.8483 674.502 72.5957 674.887 72.4106C675.271 72.2185 675.741 72.1224 676.296 72.1224C676.844 72.1224 677.31 72.2185 677.694 72.4106C678.086 72.5957 678.378 72.8483 678.57 73.1686C678.762 73.4889 678.858 73.8412 678.858 74.2255C678.858 74.624 678.755 74.9763 678.548 75.2824C678.349 75.5813 678.082 75.8126 677.748 75.9763C678.153 76.1257 678.474 76.3713 678.708 76.7129C678.943 77.0474 679.061 77.4424 679.061 77.8979C679.061 78.3605 678.943 78.7697 678.708 79.1256C678.474 79.4815 678.146 79.7555 677.726 79.9476C677.306 80.1398 676.83 80.2359 676.296 80.2359C675.762 80.2359 675.285 80.1398 674.865 79.9476C674.452 79.7555 674.129 79.4815 673.894 79.1256C673.659 78.7697 673.541 78.3605 673.541 77.8979C673.541 77.4353 673.659 77.0367 673.894 76.7022C674.129 76.3677 674.445 76.1257 674.844 75.9763ZM677.694 74.3749C677.694 73.9764 677.57 73.6703 677.321 73.4568C677.072 73.2433 676.73 73.1366 676.296 73.1366C675.869 73.1366 675.531 73.2433 675.282 73.4568C675.033 73.6703 674.908 73.9799 674.908 74.3856C674.908 74.7415 675.036 75.0333 675.292 75.261C675.556 75.4816 675.89 75.592 676.296 75.592C676.701 75.592 677.036 75.4781 677.299 75.2503C677.563 75.0226 677.694 74.7308 677.694 74.3749ZM676.296 76.5101C675.826 76.5101 675.442 76.6275 675.143 76.8624C674.851 77.0901 674.705 77.4211 674.705 77.8552C674.705 78.2609 674.847 78.5918 675.132 78.848C675.417 79.0971 675.805 79.2217 676.296 79.2217C676.78 79.2217 677.161 79.0936 677.438 78.8374C677.723 78.5811 677.865 78.2538 677.865 77.8552C677.865 77.4282 677.719 77.0972 677.427 76.8624C677.143 76.6275 676.766 76.5101 676.296 76.5101ZM681.833 78.5811L680.541 81.5276H679.751L680.509 78.5811H681.833ZM561.216 88.6241C562.006 88.6241 562.696 88.7772 563.287 89.0832C563.885 89.3821 564.344 89.8162 564.664 90.3856C564.991 90.9479 565.155 91.6062 565.155 92.3606C565.155 93.115 564.991 93.7698 564.664 94.3249C564.344 94.8801 563.885 95.3071 563.287 95.606C562.696 95.8978 562.006 96.0437 561.216 96.0437H558.792V88.6241H561.216ZM561.216 95.0509C562.084 95.0509 562.749 94.816 563.212 94.3463C563.675 93.8765 563.906 93.2147 563.906 92.3606C563.906 91.4994 563.675 90.8269 563.212 90.3429C562.749 89.859 562.084 89.617 561.216 89.617H560.009V95.0509H561.216ZM568.913 96.1398C568.358 96.1398 567.856 96.0152 567.407 95.7661C566.959 95.5099 566.607 95.1541 566.351 94.6986C566.094 94.236 565.966 93.7022 565.966 93.0972C565.966 92.4994 566.098 91.9692 566.361 91.5066C566.625 91.0439 566.984 90.6881 567.439 90.439C567.895 90.1899 568.404 90.0653 568.966 90.0653C569.528 90.0653 570.037 90.1899 570.493 90.439C570.948 90.6881 571.308 91.0439 571.571 91.5066C571.834 91.9692 571.966 92.4994 571.966 93.0972C571.966 93.6951 571.831 94.2253 571.56 94.6879C571.29 95.1505 570.92 95.5099 570.45 95.7661C569.987 96.0152 569.475 96.1398 568.913 96.1398ZM568.913 95.0829C569.226 95.0829 569.518 95.0082 569.788 94.8587C570.066 94.7092 570.29 94.4851 570.461 94.1861C570.631 93.8872 570.717 93.5243 570.717 93.0972C570.717 92.6702 570.635 92.3108 570.471 92.019C570.308 91.7201 570.091 91.4959 569.82 91.3464C569.55 91.197 569.258 91.1222 568.945 91.1222C568.632 91.1222 568.34 91.197 568.069 91.3464C567.806 91.4959 567.596 91.7201 567.439 92.019C567.283 92.3108 567.205 92.6702 567.205 93.0972C567.205 93.7306 567.365 94.2217 567.685 94.5705C568.012 94.9121 568.422 95.0829 568.913 95.0829ZM576.212 90.0653C576.66 90.0653 577.059 90.1614 577.407 90.3536C577.763 90.5458 578.041 90.8304 578.24 91.2076C578.446 91.5848 578.55 92.0403 578.55 92.5741V96.0437H577.343V92.7556C577.343 92.2289 577.212 91.8268 576.948 91.5493C576.685 91.2646 576.325 91.1222 575.87 91.1222C575.414 91.1222 575.051 91.2646 574.781 91.5493C574.518 91.8268 574.386 92.2289 574.386 92.7556V96.0437H573.169V88.1437H574.386V90.8447C574.592 90.5956 574.852 90.4034 575.165 90.2682C575.486 90.133 575.834 90.0653 576.212 90.0653ZM579.696 93.0759C579.696 92.4852 579.817 91.9621 580.059 91.5066C580.308 91.0511 580.643 90.6988 581.063 90.4497C581.49 90.1935 581.959 90.0653 582.472 90.0653C582.935 90.0653 583.337 90.1579 583.678 90.3429C584.027 90.5208 584.305 90.745 584.511 91.0155V90.1614H585.739V96.0437H584.511V95.1683C584.305 95.4459 584.023 95.6772 583.668 95.8622C583.312 96.0473 582.906 96.1398 582.451 96.1398C581.945 96.1398 581.483 96.0117 581.063 95.7555C580.643 95.4921 580.308 95.1292 580.059 94.6665C579.817 94.1968 579.696 93.6666 579.696 93.0759ZM584.511 93.0972C584.511 92.6916 584.426 92.3393 584.255 92.0403C584.091 91.7414 583.874 91.5137 583.604 91.3571C583.333 91.2005 583.041 91.1222 582.728 91.1222C582.415 91.1222 582.123 91.2005 581.853 91.3571C581.582 91.5066 581.362 91.7307 581.191 92.0297C581.027 92.3215 580.945 92.6702 580.945 93.0759C580.945 93.4815 581.027 93.8374 581.191 94.1434C581.362 94.4495 581.582 94.6843 581.853 94.848C582.13 95.0046 582.422 95.0829 582.728 95.0829C583.041 95.0829 583.333 95.0046 583.604 94.848C583.874 94.6915 584.091 94.4637 584.255 94.1648C584.426 93.8588 584.511 93.5029 584.511 93.0972ZM591.853 91.6667V92.6916H587.465V91.6667H591.853ZM599.325 97.3888L598.023 95.9796C597.703 96.0722 597.35 96.1184 596.966 96.1184C596.276 96.1184 595.639 95.9583 595.055 95.638C594.479 95.3106 594.02 94.8587 593.678 94.2822C593.344 93.6986 593.176 93.0438 593.176 92.3179C593.176 91.592 593.344 90.9407 593.678 90.3643C594.02 89.7878 594.479 89.3394 595.055 89.0191C595.639 88.6917 596.276 88.5281 596.966 88.5281C597.664 88.5281 598.301 88.6917 598.877 89.0191C599.461 89.3394 599.92 89.7878 600.254 90.3643C600.589 90.9407 600.756 91.592 600.756 92.3179C600.756 93.0011 600.607 93.6203 600.308 94.1755C600.016 94.7235 599.61 95.1647 599.091 95.4992L600.873 97.3888H599.325ZM594.425 92.3179C594.425 92.8659 594.532 93.3499 594.746 93.7698C594.966 94.1826 595.269 94.5029 595.653 94.7306C596.037 94.9512 596.475 95.0615 596.966 95.0615C597.457 95.0615 597.895 94.9512 598.279 94.7306C598.664 94.5029 598.963 94.1826 599.176 93.7698C599.397 93.3499 599.507 92.8659 599.507 92.3179C599.507 91.7699 599.397 91.2895 599.176 90.8767C598.963 90.4639 598.664 90.1472 598.279 89.9266C597.895 89.7059 597.457 89.5956 596.966 89.5956C596.475 89.5956 596.037 89.7059 595.653 89.9266C595.269 90.1472 594.966 90.4639 594.746 90.8767C594.532 91.2895 594.425 91.7699 594.425 92.3179ZM601.579 93.0759C601.579 92.4852 601.7 91.9621 601.942 91.5066C602.191 91.0511 602.526 90.6988 602.946 90.4497C603.373 90.1935 603.842 90.0653 604.355 90.0653C604.817 90.0653 605.22 90.1579 605.561 90.3429C605.91 90.5208 606.188 90.745 606.394 91.0155V90.1614H607.622V96.0437H606.394V95.1683C606.188 95.4459 605.906 95.6772 605.551 95.8622C605.195 96.0473 604.789 96.1398 604.334 96.1398C603.828 96.1398 603.366 96.0117 602.946 95.7555C602.526 95.4921 602.191 95.1292 601.942 94.6665C601.7 94.1968 601.579 93.6666 601.579 93.0759ZM606.394 93.0972C606.394 92.6916 606.309 92.3393 606.138 92.0403C605.974 91.7414 605.757 91.5137 605.486 91.3571C605.216 91.2005 604.924 91.1222 604.611 91.1222C604.298 91.1222 604.006 91.2005 603.736 91.3571C603.465 91.5066 603.245 91.7307 603.074 92.0297C602.91 92.3215 602.828 92.6702 602.828 93.0759C602.828 93.4815 602.91 93.8374 603.074 94.1434C603.245 94.4495 603.465 94.6843 603.736 94.848C604.013 95.0046 604.305 95.0829 604.611 95.0829C604.924 95.0829 605.216 95.0046 605.486 94.848C605.757 94.6915 605.974 94.4637 606.138 94.1648C606.309 93.8588 606.394 93.5029 606.394 93.0972ZM610.64 91.1543V94.4103C610.64 94.631 610.69 94.7911 610.789 94.8907C610.896 94.9833 611.074 95.0295 611.323 95.0295H612.071V96.0437H611.11C610.562 96.0437 610.142 95.9156 609.85 95.6594C609.558 95.4032 609.412 94.9868 609.412 94.4103V91.1543H608.718V90.1614H609.412V88.6989H610.64V90.1614H612.071V91.1543H610.64ZM612.787 93.0759C612.787 92.4852 612.908 91.9621 613.15 91.5066C613.399 91.0511 613.733 90.6988 614.153 90.4497C614.58 90.1935 615.05 90.0653 615.562 90.0653C616.025 90.0653 616.427 90.1579 616.769 90.3429C617.117 90.5208 617.395 90.745 617.601 91.0155V90.1614H618.829V96.0437H617.601V95.1683C617.395 95.4459 617.114 95.6772 616.758 95.8622C616.402 96.0473 615.996 96.1398 615.541 96.1398C615.036 96.1398 614.573 96.0117 614.153 95.7555C613.733 95.4921 613.399 95.1292 613.15 94.6665C612.908 94.1968 612.787 93.6666 612.787 93.0759ZM617.601 93.0972C617.601 92.6916 617.516 92.3393 617.345 92.0403C617.181 91.7414 616.964 91.5137 616.694 91.3571C616.423 91.2005 616.132 91.1222 615.818 91.1222C615.505 91.1222 615.213 91.2005 614.943 91.3571C614.673 91.5066 614.452 91.7307 614.281 92.0297C614.117 92.3215 614.036 92.6702 614.036 93.0759C614.036 93.4815 614.117 93.8374 614.281 94.1434C614.452 94.4495 614.673 94.6843 614.943 94.848C615.221 95.0046 615.512 95.0829 615.818 95.0829C616.132 95.0829 616.423 95.0046 616.694 94.848C616.964 94.6915 617.181 94.4637 617.345 94.1648C617.516 93.8588 617.601 93.5029 617.601 93.0972ZM621.644 91.0155C621.822 90.7166 622.057 90.4853 622.349 90.3216C622.648 90.1508 623 90.0653 623.406 90.0653V91.3251H623.096C622.62 91.3251 622.257 91.4461 622.007 91.688C621.765 91.93 621.644 92.3499 621.644 92.9478V96.0437H620.427V90.1614H621.644V91.0155ZM558.387 108.318C558.387 107.592 558.554 106.941 558.888 106.364C559.23 105.788 559.689 105.339 560.266 105.019C560.849 104.692 561.486 104.528 562.177 104.528C562.967 104.528 563.668 104.724 564.28 105.115C564.899 105.5 565.347 106.048 565.625 106.759H564.162C563.97 106.368 563.703 106.076 563.362 105.884C563.02 105.692 562.625 105.596 562.177 105.596C561.685 105.596 561.248 105.706 560.863 105.927C560.479 106.147 560.177 106.464 559.956 106.877C559.743 107.289 559.636 107.77 559.636 108.318C559.636 108.866 559.743 109.346 559.956 109.759C560.177 110.172 560.479 110.492 560.863 110.72C561.248 110.941 561.685 111.051 562.177 111.051C562.625 111.051 563.02 110.955 563.362 110.763C563.703 110.57 563.97 110.279 564.162 109.887H565.625C565.347 110.599 564.899 111.147 564.28 111.531C563.668 111.916 562.967 112.108 562.177 112.108C561.479 112.108 560.842 111.948 560.266 111.627C559.689 111.3 559.23 110.848 558.888 110.272C558.554 109.695 558.387 109.044 558.387 108.318ZM567.54 112.118C567.32 112.118 567.135 112.044 566.985 111.894C566.836 111.745 566.761 111.56 566.761 111.339C566.761 111.118 566.836 110.933 566.985 110.784C567.135 110.635 567.32 110.56 567.54 110.56C567.754 110.56 567.935 110.635 568.085 110.784C568.234 110.933 568.309 111.118 568.309 111.339C568.309 111.56 568.234 111.745 568.085 111.894C567.935 112.044 567.754 112.118 567.54 112.118ZM573.478 112.044L571.77 109.076H570.841V112.044H569.624V104.624H572.187C572.756 104.624 573.236 104.724 573.628 104.923C574.026 105.122 574.322 105.389 574.514 105.724C574.713 106.058 574.813 106.432 574.813 106.845C574.813 107.329 574.67 107.77 574.386 108.168C574.108 108.56 573.678 108.827 573.094 108.969L574.93 112.044H573.478ZM570.841 108.104H572.187C572.642 108.104 572.984 107.991 573.211 107.763C573.446 107.535 573.564 107.229 573.564 106.845C573.564 106.46 573.45 106.161 573.222 105.948C572.994 105.727 572.649 105.617 572.187 105.617H570.841V108.104ZM576.861 112.118C576.64 112.118 576.455 112.044 576.306 111.894C576.156 111.745 576.081 111.56 576.081 111.339C576.081 111.118 576.156 110.933 576.306 110.784C576.455 110.635 576.64 110.56 576.861 110.56C577.074 110.56 577.256 110.635 577.405 110.784C577.555 110.933 577.629 111.118 577.629 111.339C577.629 111.56 577.555 111.745 577.405 111.894C577.256 112.044 577.074 112.118 576.861 112.118ZM587.814 112.044H586.597L582.935 106.503V112.044H581.718V104.613H582.935L586.597 110.143V104.613H587.814V112.044ZM591.963 112.14C591.408 112.14 590.906 112.015 590.458 111.766C590.01 111.51 589.657 111.154 589.401 110.699C589.145 110.236 589.017 109.702 589.017 109.097C589.017 108.499 589.149 107.969 589.412 107.507C589.675 107.044 590.035 106.688 590.49 106.439C590.946 106.19 591.454 106.065 592.017 106.065C592.579 106.065 593.088 106.19 593.543 106.439C593.999 106.688 594.358 107.044 594.622 107.507C594.885 107.969 595.017 108.499 595.017 109.097C595.017 109.695 594.881 110.225 594.611 110.688C594.34 111.151 593.97 111.51 593.501 111.766C593.038 112.015 592.526 112.14 591.963 112.14ZM591.963 111.083C592.276 111.083 592.568 111.008 592.839 110.859C593.116 110.709 593.34 110.485 593.511 110.186C593.682 109.887 593.767 109.524 593.767 109.097C593.767 108.67 593.686 108.311 593.522 108.019C593.358 107.72 593.141 107.496 592.871 107.346C592.6 107.197 592.308 107.122 591.995 107.122C591.682 107.122 591.39 107.197 591.12 107.346C590.857 107.496 590.647 107.72 590.49 108.019C590.333 108.311 590.255 108.67 590.255 109.097C590.255 109.731 590.415 110.222 590.736 110.57C591.063 110.912 591.472 111.083 591.963 111.083ZM596.711 112.118C596.49 112.118 596.305 112.044 596.156 111.894C596.006 111.745 595.931 111.56 595.931 111.339C595.931 111.118 596.006 110.933 596.156 110.784C596.305 110.635 596.49 110.56 596.711 110.56C596.924 110.56 597.106 110.635 597.255 110.784C597.405 110.933 597.479 111.118 597.479 111.339C597.479 111.56 597.405 111.745 597.255 111.894C597.106 112.044 596.924 112.118 596.711 112.118ZM596.711 107.635C596.49 107.635 596.305 107.56 596.156 107.41C596.006 107.261 595.931 107.076 595.931 106.855C595.931 106.635 596.006 106.45 596.156 106.3C596.305 106.151 596.49 106.076 596.711 106.076C596.924 106.076 597.106 106.151 597.255 106.3C597.405 106.45 597.479 106.635 597.479 106.855C597.479 107.076 597.405 107.261 597.255 107.41C597.106 107.56 596.924 107.635 596.711 107.635ZM602.122 110.389C602.805 109.798 603.343 109.314 603.734 108.937C604.133 108.553 604.464 108.154 604.727 107.741C604.99 107.329 605.122 106.916 605.122 106.503C605.122 106.076 605.019 105.742 604.812 105.5C604.613 105.258 604.296 105.137 603.862 105.137C603.442 105.137 603.115 105.272 602.88 105.542C602.652 105.806 602.531 106.161 602.517 106.61H601.343C601.364 105.798 601.606 105.179 602.069 104.752C602.538 104.318 603.133 104.101 603.851 104.101C604.627 104.101 605.232 104.315 605.666 104.742C606.108 105.169 606.328 105.738 606.328 106.45C606.328 106.962 606.197 107.457 605.933 107.934C605.677 108.403 605.367 108.827 605.004 109.204C604.649 109.574 604.193 110.005 603.638 110.496L603.158 110.923H606.542V111.937H601.353V111.051L602.122 110.389ZM607.611 108.051C607.611 106.82 607.817 105.859 608.23 105.169C608.65 104.471 609.369 104.122 610.387 104.122C611.404 104.122 612.12 104.471 612.532 105.169C612.952 105.859 613.162 106.82 613.162 108.051C613.162 109.297 612.952 110.272 612.532 110.976C612.12 111.674 611.404 112.022 610.387 112.022C609.369 112.022 608.65 111.674 608.23 110.976C607.817 110.272 607.611 109.297 607.611 108.051ZM611.967 108.051C611.967 107.475 611.927 106.987 611.849 106.588C611.778 106.19 611.628 105.866 611.401 105.617C611.173 105.361 610.835 105.233 610.387 105.233C609.938 105.233 609.6 105.361 609.372 105.617C609.145 105.866 608.992 106.19 608.913 106.588C608.842 106.987 608.807 107.475 608.807 108.051C608.807 108.649 608.842 109.151 608.913 109.556C608.984 109.962 609.134 110.289 609.362 110.538C609.597 110.788 609.938 110.912 610.387 110.912C610.835 110.912 611.173 110.788 611.401 110.538C611.636 110.289 611.789 109.962 611.86 109.556C611.931 109.151 611.967 108.649 611.967 108.051ZM614.45 108.051C614.45 106.82 614.656 105.859 615.069 105.169C615.489 104.471 616.208 104.122 617.226 104.122C618.243 104.122 618.959 104.471 619.371 105.169C619.791 105.859 620.001 106.82 620.001 108.051C620.001 109.297 619.791 110.272 619.371 110.976C618.959 111.674 618.243 112.022 617.226 112.022C616.208 112.022 615.489 111.674 615.069 110.976C614.656 110.272 614.45 109.297 614.45 108.051ZM618.806 108.051C618.806 107.475 618.766 106.987 618.688 106.588C618.617 106.19 618.468 105.866 618.24 105.617C618.012 105.361 617.674 105.233 617.226 105.233C616.777 105.233 616.439 105.361 616.211 105.617C615.984 105.866 615.831 106.19 615.752 106.588C615.681 106.987 615.646 107.475 615.646 108.051C615.646 108.649 615.681 109.151 615.752 109.556C615.824 109.962 615.973 110.289 616.201 110.538C616.436 110.788 616.777 110.912 617.226 110.912C617.674 110.912 618.012 110.788 618.24 110.538C618.475 110.289 618.628 109.962 618.699 109.556C618.77 109.151 618.806 108.649 618.806 108.051ZM621.14 110.421V109.503L624.727 104.357H626.2V109.364H627.193V110.421H626.2V112.044H625.004V110.421H621.14ZM625.058 105.596L622.538 109.364H625.058V105.596ZM628.052 110.421V109.503L631.639 104.357H633.112V109.364H634.105V110.421H633.112V112.044H631.916V110.421H628.052ZM631.97 105.596L629.45 109.364H631.97V105.596ZM639.298 106.065C639.22 105.738 639.077 105.492 638.871 105.329C638.665 105.165 638.376 105.083 638.006 105.083C637.444 105.083 637.024 105.3 636.746 105.734C636.469 106.161 636.323 106.873 636.309 107.87C636.494 107.556 636.764 107.314 637.12 107.144C637.476 106.973 637.86 106.887 638.273 106.887C638.743 106.887 639.156 106.991 639.511 107.197C639.874 107.396 640.156 107.688 640.355 108.072C640.561 108.457 640.664 108.916 640.664 109.45C640.664 109.948 640.565 110.393 640.366 110.784C640.173 111.175 639.885 111.485 639.501 111.713C639.116 111.933 638.654 112.044 638.113 112.044C637.38 112.044 636.803 111.884 636.384 111.563C635.971 111.236 635.679 110.777 635.508 110.186C635.344 109.595 635.263 108.859 635.263 107.976C635.263 105.371 636.181 104.069 638.017 104.069C638.729 104.069 639.287 104.261 639.693 104.645C640.106 105.03 640.348 105.503 640.419 106.065H639.298ZM638.006 107.912C637.572 107.912 637.202 108.044 636.896 108.307C636.597 108.563 636.448 108.937 636.448 109.428C636.448 109.919 636.586 110.311 636.864 110.602C637.149 110.887 637.544 111.03 638.049 111.03C638.497 111.03 638.85 110.891 639.106 110.613C639.369 110.336 639.501 109.966 639.501 109.503C639.501 109.019 639.373 108.635 639.116 108.35C638.867 108.058 638.497 107.912 638.006 107.912Z" fill="white"/>
</g>
<defs>
<clipPath id="clip0_1623_44">
<rect width="794" height="132.111" fill="white"/>
</clipPath>
<clipPath id="clip1_1623_44">
<rect width="16.0134" height="16.0134" fill="white" transform="translate(533.972 54.7126)"/>
</clipPath>
</defs>
</svg>
