<svg width="98" height="91" viewBox="0 0 98 91" fill="none" xmlns="http://www.w3.org/2000/svg">
<circle cx="40.7595" cy="45" r="40" fill="#FFF0CF"/>
<mask id="mask0_1385_1839" style="mask-type:luminance" maskUnits="userSpaceOnUse" x="7" y="13" width="91" height="77">
<path d="M39.3967 89.9026C39.4874 89.8471 44.6621 86.4236 44.7498 86.3616C45.2811 86.0341 45.7641 85.6016 46.1671 85.0636L96.6816 17.6361C97.5916 16.4211 97.3676 14.7026 96.1771 13.7616C95.1726 12.9681 93.7731 12.9651 92.7696 13.7141C92.6776 13.7671 92.5886 13.8266 92.5021 13.8911C92.4101 13.9441 87.5031 17.1906 87.4166 17.2551C87.2286 17.3641 87.0506 17.4966 86.8871 17.6526L87.0961 18.5246L41.1365 61.3796L16.0691 48.6676C15.0856 48.1686 13.9188 48.2826 13.0562 48.9251C12.9642 48.9786 7.78944 52.4016 7.70309 52.4661C7.47504 52.5991 7.26264 52.7651 7.07349 52.9631L39.3967 89.9026Z" fill="white"/>
</mask>
<g mask="url(#mask0_1385_1839)">
<path d="M39.3967 89.9026C39.4874 89.8471 44.6621 86.4236 44.7498 86.3616C45.2811 86.0341 45.7641 85.6016 46.1671 85.0636L96.6816 17.6361C97.5916 16.4211 97.3676 14.7026 96.1771 13.7616C95.1726 12.9681 93.7731 12.9651 92.7696 13.7141C92.6776 13.7671 92.5886 13.8266 92.5021 13.8911C92.4101 13.9441 87.5031 17.1906 87.4166 17.2551C87.2286 17.3641 87.0506 17.4966 86.8871 17.6526L87.0961 18.5246L41.1365 61.3796L16.0691 48.6676C15.0856 48.1686 13.9188 48.2826 13.0562 48.9251C12.9642 48.9786 7.78944 52.4016 7.70309 52.4661C7.47504 52.5991 7.26264 52.7651 7.07349 52.9631L39.3967 89.9026Z" fill="url(#paint0_linear_1385_1839)"/>
</g>
<mask id="mask1_1385_1839" style="mask-type:luminance" maskUnits="userSpaceOnUse" x="6" y="16" width="86" height="75">
<path d="M6.89973 56.7299L32.4015 88.8934C34.4964 91.5354 38.5246 91.4804 40.5462 88.7819L91.0609 21.3539C91.9709 20.1394 91.7469 18.4204 90.5559 17.4794C89.4609 16.6144 87.8959 16.6879 86.8869 17.6524L36.6463 65.6709L10.4482 52.3854C9.31898 51.8124 7.94793 52.0474 7.07333 52.9629C6.08338 53.9994 6.00928 55.6069 6.89973 56.7299Z" fill="white"/>
</mask>
<g mask="url(#mask1_1385_1839)">
<path d="M6.89973 56.7299L32.4015 88.8934C34.4964 91.5354 38.5246 91.4804 40.5462 88.7819L91.0609 21.3539C91.9709 20.1394 91.7469 18.4204 90.5559 17.4794C89.4609 16.6144 87.8959 16.6879 86.8869 17.6524L36.6463 65.6709L10.4482 52.3854C9.31898 51.8124 7.94793 52.0474 7.07333 52.9629C6.08338 53.9994 6.00928 55.6069 6.89973 56.7299Z" fill="url(#paint1_linear_1385_1839)"/>
</g>
<path d="M18.0095 1.75L14.5095 5.25" stroke="#F4AA08" stroke-linecap="round" stroke-linejoin="round"/>
<path d="M14.5095 1.75L18.0095 5.25" stroke="#F4AA08" stroke-linecap="round" stroke-linejoin="round"/>
<g clip-path="url(#clip0_1385_1839)">
<path d="M53.7595 28L51.7595 30" stroke="#F4AA08" stroke-width="0.571429" stroke-linecap="round" stroke-linejoin="round"/>
<path d="M51.7595 28L53.7595 30" stroke="#F4AA08" stroke-width="0.571429" stroke-linecap="round" stroke-linejoin="round"/>
</g>
<g clip-path="url(#clip1_1385_1839)">
<path d="M28.7595 51L26.7595 53" stroke="#F4AA08" stroke-width="0.571429" stroke-linecap="round" stroke-linejoin="round"/>
<path d="M26.7595 51L28.7595 53" stroke="#F4AA08" stroke-width="0.571429" stroke-linecap="round" stroke-linejoin="round"/>
</g>
<circle cx="25.2595" cy="21.5" r="2" stroke="#F4AA08"/>
<circle cx="48.7595" cy="5" r="2.25" stroke="#F4AA08" stroke-width="1.5"/>
<circle cx="3.25952" cy="30.5" r="1.25" stroke="#F4AA08" stroke-width="0.5"/>
<defs>
<linearGradient id="paint0_linear_1385_1839" x1="7.07349" y1="51.5311" x2="97.2405" y2="51.5311" gradientUnits="userSpaceOnUse">
<stop stop-color="#F4AA08"/>
<stop offset="1" stop-color="#F7B92D"/>
</linearGradient>
<linearGradient id="paint1_linear_1385_1839" x1="6.27833" y1="53.8589" x2="91.6198" y2="53.8589" gradientUnits="userSpaceOnUse">
<stop stop-color="#FFDA83"/>
<stop offset="1" stop-color="#F4AA08"/>
</linearGradient>
<clipPath id="clip0_1385_1839">
<rect width="4" height="4" fill="white" transform="translate(50.7595 27)"/>
</clipPath>
<clipPath id="clip1_1385_1839">
<rect width="4" height="4" fill="white" transform="translate(25.7595 50)"/>
</clipPath>
</defs>
</svg>
